<?xml version="1.0" encoding="utf-8"?>
<svg xmlns="http://www.w3.org/2000/svg" width="412.0000mm" height="156.0000mm" viewBox="-6.0000 -436.7692 412.0000 156.0000">
<g>
	<path d="M0.0000,-430.7692 L0.0000,-417.1329 L-6.0000,-417.1329 L-6.0000,-417.1329 L-6.0000,-403.4965 L0.0000,-403.4965 L0.0000,-403.4965 L0.0000,-389.8601 L-6.0000,-389.8601 L-6.0000,-389.8601 L-6.0000,-376.2238 L0.0000,-376.2238 L0.0000,-376.2238 L0.0000,-362.5874 L-6.0000,-362.5874 L-6.0000,-362.5874 L-6.0000,-348.9510 L0.0000,-348.9510 L0.0000,-348.9510 L0.0000,-335.3147 L-6.0000,-335.3147 L-6.0000,-335.3147 L-6.0000,-321.6783 L0.0000,-321.6783 L0.0000,-321.6783 L0.0000,-308.0420 L-6.0000,-308.0420 L-6.0000,-308.0420 L-6.0000,-294.4056 L0.0000,-294.4056 L0.0000,-294.4056 L0.0000,-280.7692 L0.0000,-280.7692 L200.0000,-280.7692 L400.0000,-280.7692 L400.0000,-280.7692 L400.0000,-294.4056 L406.0000,-294.4056 L406.0000,-294.4056 L406.0000,-308.0420 L400.0000,-308.0420 L400.0000,-308.0420 L400.0000,-321.6783 L406.0000,-321.6783 L406.0000,-321.6783 L406.0000,-335.3147 L400.0000,-335.3147 L400.0000,-335.3147 L400.0000,-348.9510 L406.0000,-348.9510 L406.0000,-348.9510 L406.0000,-362.5874 L400.0000,-362.5874 L400.0000,-362.5874 L400.0000,-376.2238 L406.0000,-376.2238 L406.0000,-376.2238 L406.0000,-389.8601 L400.0000,-389.8601 L400.0000,-389.8601 L400.0000,-403.4965 L406.0000,-403.4965 L406.0000,-403.4965 L406.0000,-417.1329 L400.0000,-417.1329 L400.0000,-417.1329 L400.0000,-430.7692 L400.0000,-430.7692 L384.0000,-430.7692 L384.0000,-436.7692 L384.0000,-436.7692 L368.0000,-436.7692 L368.0000,-430.7692 L368.0000,-430.7692 L352.0000,-430.7692 L352.0000,-436.7692 L352.0000,-436.7692 L336.0000,-436.7692 L336.0000,-430.7692 L336.0000,-430.7692 L320.0000,-430.7692 L320.0000,-436.7692 L320.0000,-436.7692 L304.0000,-436.7692 L304.0000,-430.7692 L304.0000,-430.7692 L288.0000,-430.7692 L288.0000,-436.7692 L288.0000,-436.7692 L272.0000,-436.7692 L272.0000,-430.7692 L272.0000,-430.7692 L256.0000,-430.7692 L256.0000,-436.7692 L256.0000,-436.7692 L240.0000,-436.7692 L240.0000,-430.7692 L240.0000,-430.7692 L224.0000,-430.7692 L224.0000,-436.7692 L224.0000,-436.7692 L208.0000,-436.7692 L208.0000,-430.7692 L208.0000,-430.7692 L192.0000,-430.7692 L192.0000,-436.7692 L192.0000,-436.7692 L176.0000,-436.7692 L176.0000,-430.7692 L176.0000,-430.7692 L160.0000,-430.7692 L160.0000,-436.7692 L160.0000,-436.7692 L144.0000,-436.7692 L144.0000,-430.7692 L144.0000,-430.7692 L128.0000,-430.7692 L128.0000,-436.7692 L128.0000,-436.7692 L112.0000,-436.7692 L112.0000,-430.7692 L112.0000,-430.7692 L96.0000,-430.7692 L96.0000,-436.7692 L96.0000,-436.7692 L80.0000,-436.7692 L80.0000,-430.7692 L80.0000,-430.7692 L64.0000,-430.7692 L64.0000,-436.7692 L64.0000,-436.7692 L48.0000,-436.7692 L48.0000,-430.7692 L48.0000,-430.7692 L32.0000,-430.7692 L32.0000,-436.7692 L32.0000,-436.7692 L16.0000,-436.7692 L16.0000,-430.7692 L16.0000,-430.7692 L0.0000,-430.7692 L0.0000,-430.7692"></path>
</g>
</svg>