<?xml version="1.0" encoding="utf-8"?>
<svg xmlns="http://www.w3.org/2000/svg" width="416.0000mm" height="199.5000mm" viewBox="-430.7692 -430.7692 416.0000 199.5000">
<g>
	<path d="M-427.7692,-430.7692 L-427.8222,-430.7688 L-427.8751,-430.7674 L-427.9280,-430.7650 L-427.9808,-430.7618 L-428.0336,-430.7576 L-428.0863,-430.7524 L-428.1389,-430.7464 L-428.1914,-430.7394 L-428.2438,-430.7315 L-428.2960,-430.7226 L-428.3480,-430.7129 L-428.3999,-430.7022 L-428.4515,-430.6906 L-428.5030,-430.6781 L-428.5542,-430.6647 L-428.6052,-430.6504 L-428.6559,-430.6352 L-428.7063,-430.6191 L-428.7565,-430.6021 L-428.8063,-430.5843 L-428.8559,-430.5655 L-428.9050,-430.5459 L-428.9539,-430.5254 L-429.0023,-430.5041 L-429.0504,-430.4819 L-429.0981,-430.4589 L-429.1453,-430.4350 L-429.1922,-430.4103 L-429.2386,-430.3848 L-429.2845,-430.3584 L-429.3299,-430.3313 L-429.3749,-430.3033 L-429.4194,-430.2746 L-429.4634,-430.2451 L-429.5068,-430.2148 L-429.5497,-430.1838 L-429.5920,-430.1520 L-429.6338,-430.1194 L-429.6750,-430.0862 L-429.7156,-430.0522 L-429.7555,-430.0175 L-429.7949,-429.9821 L-429.8337,-429.9460 L-429.8717,-429.9092 L-429.9092,-429.8717 L-429.9460,-429.8337 L-429.9821,-429.7949 L-430.0175,-429.7555 L-430.0522,-429.7156 L-430.0862,-429.6750 L-430.1194,-429.6338 L-430.1520,-429.5920 L-430.1838,-429.5497 L-430.2148,-429.5068 L-430.2451,-429.4634 L-430.2746,-429.4194 L-430.3033,-429.3749 L-430.3313,-429.3299 L-430.3584,-429.2845 L-430.3848,-429.2386 L-430.4103,-429.1922 L-430.4350,-429.1453 L-430.4589,-429.0981 L-430.4819,-429.0504 L-430.5041,-429.0023 L-430.5254,-428.9539 L-430.5459,-428.9050 L-430.5655,-428.8559 L-430.5843,-428.8063 L-430.6021,-428.7565 L-430.6191,-428.7063 L-430.6352,-428.6559 L-430.6504,-428.6052 L-430.6647,-428.5542 L-430.6781,-428.5030 L-430.6906,-428.4515 L-430.7022,-428.3999 L-430.7129,-428.3480 L-430.7226,-428.2960 L-430.7315,-428.2438 L-430.7394,-428.1914 L-430.7464,-428.1389 L-430.7524,-428.0863 L-430.7576,-428.0336 L-430.7618,-427.9808 L-430.7650,-427.9280 L-430.7674,-427.8751 L-430.7688,-427.8222 L-430.7692,-427.7692 L-430.7692,-234.2692 L-430.7688,-234.2163 L-430.7674,-234.1634 L-430.7650,-234.1105 L-430.7618,-234.0576 L-430.7576,-234.0048 L-430.7524,-233.9521 L-430.7464,-233.8995 L-430.7394,-233.8471 L-430.7315,-233.7947 L-430.7226,-233.7425 L-430.7129,-233.6905 L-430.7022,-233.6386 L-430.6906,-233.5869 L-430.6781,-233.5355 L-430.6647,-233.4843 L-430.6504,-233.4333 L-430.6352,-233.3826 L-430.6191,-233.3321 L-430.6021,-233.2820 L-430.5843,-233.2321 L-430.5655,-233.1826 L-430.5459,-233.1334 L-430.5254,-233.0846 L-430.5041,-233.0361 L-430.4819,-232.9881 L-430.4589,-232.9404 L-430.4350,-232.8931 L-430.4103,-232.8463 L-430.3848,-232.7999 L-430.3584,-232.7540 L-430.3313,-232.7085 L-430.3033,-232.6635 L-430.2746,-232.6191 L-430.2451,-232.5751 L-430.2148,-232.5317 L-430.1838,-232.4888 L-430.1520,-232.4464 L-430.1194,-232.4047 L-430.0862,-232.3635 L-430.0522,-232.3229 L-430.0175,-232.2829 L-429.9821,-232.2435 L-429.9460,-232.2048 L-429.9092,-232.1667 L-429.8717,-232.1293 L-429.8337,-232.0925 L-429.7949,-232.0564 L-429.7555,-232.0210 L-429.7156,-231.9863 L-429.6750,-231.9523 L-429.6338,-231.9190 L-429.5920,-231.8865 L-429.5497,-231.8547 L-429.5068,-231.8236 L-429.4634,-231.7934 L-429.4194,-231.7638 L-429.3749,-231.7351 L-429.3299,-231.7072 L-429.2845,-231.6800 L-429.2386,-231.6537 L-429.1922,-231.6282 L-429.1453,-231.6035 L-429.0981,-231.5796 L-429.0504,-231.5566 L-429.0023,-231.5344 L-428.9539,-231.5130 L-428.9050,-231.4926 L-428.8559,-231.4729 L-428.8063,-231.4542 L-428.7565,-231.4363 L-428.7063,-231.4194 L-428.6559,-231.4033 L-428.6052,-231.3881 L-428.5542,-231.3737 L-428.5030,-231.3603 L-428.4515,-231.3479 L-428.3999,-231.3363 L-428.3480,-231.3256 L-428.2960,-231.3158 L-428.2438,-231.3070 L-428.1914,-231.2991 L-428.1389,-231.2921 L-428.0863,-231.2860 L-428.0336,-231.2809 L-427.9808,-231.2767 L-427.9280,-231.2734 L-427.8751,-231.2711 L-427.8222,-231.2697 L-427.7692,-231.2692 L-17.7692,-231.2692 L-17.7163,-231.2697 L-17.6634,-231.2711 L-17.6105,-231.2734 L-17.5576,-231.2767 L-17.5048,-231.2809 L-17.4521,-231.2860 L-17.3995,-231.2921 L-17.3471,-231.2991 L-17.2947,-231.3070 L-17.2425,-231.3158 L-17.1905,-231.3256 L-17.1386,-231.3363 L-17.0869,-231.3479 L-17.0355,-231.3603 L-16.9843,-231.3737 L-16.9333,-231.3881 L-16.8826,-231.4033 L-16.8321,-231.4194 L-16.7820,-231.4363 L-16.7321,-231.4542 L-16.6826,-231.4729 L-16.6334,-231.4926 L-16.5846,-231.5130 L-16.5361,-231.5344 L-16.4881,-231.5566 L-16.4404,-231.5796 L-16.3931,-231.6035 L-16.3463,-231.6282 L-16.2999,-231.6537 L-16.2540,-231.6800 L-16.2085,-231.7072 L-16.1635,-231.7351 L-16.1191,-231.7638 L-16.0751,-231.7934 L-16.0317,-231.8236 L-15.9888,-231.8547 L-15.9464,-231.8865 L-15.9047,-231.9190 L-15.8635,-231.9523 L-15.8229,-231.9863 L-15.7829,-232.0210 L-15.7435,-232.0564 L-15.7048,-232.0925 L-15.6667,-232.1293 L-15.6293,-232.1667 L-15.5925,-232.2048 L-15.5564,-232.2435 L-15.5210,-232.2829 L-15.4863,-232.3229 L-15.4523,-232.3635 L-15.4190,-232.4047 L-15.3865,-232.4464 L-15.3547,-232.4888 L-15.3236,-232.5317 L-15.2934,-232.5751 L-15.2638,-232.6191 L-15.2351,-232.6635 L-15.2072,-232.7085 L-15.1800,-232.7540 L-15.1537,-232.7999 L-15.1282,-232.8463 L-15.1035,-232.8931 L-15.0796,-232.9404 L-15.0566,-232.9881 L-15.0344,-233.0361 L-15.0130,-233.0846 L-14.9926,-233.1334 L-14.9729,-233.1826 L-14.9542,-233.2321 L-14.9363,-233.2820 L-14.9194,-233.3321 L-14.9033,-233.3826 L-14.8881,-233.4333 L-14.8737,-233.4843 L-14.8603,-233.5355 L-14.8479,-233.5869 L-14.8363,-233.6386 L-14.8256,-233.6905 L-14.8158,-233.7425 L-14.8070,-233.7947 L-14.7991,-233.8471 L-14.7921,-233.8995 L-14.7860,-233.9521 L-14.7809,-234.0048 L-14.7767,-234.0576 L-14.7734,-234.1105 L-14.7711,-234.1634 L-14.7697,-234.2163 L-14.7692,-234.2692 L-14.7692,-427.7692 L-14.7697,-427.8222 L-14.7711,-427.8751 L-14.7734,-427.9280 L-14.7767,-427.9808 L-14.7809,-428.0336 L-14.7860,-428.0863 L-14.7921,-428.1389 L-14.7991,-428.1914 L-14.8070,-428.2438 L-14.8158,-428.2960 L-14.8256,-428.3480 L-14.8363,-428.3999 L-14.8479,-428.4515 L-14.8603,-428.5030 L-14.8737,-428.5542 L-14.8881,-428.6052 L-14.9033,-428.6559 L-14.9194,-428.7063 L-14.9363,-428.7565 L-14.9542,-428.8063 L-14.9729,-428.8559 L-14.9926,-428.9050 L-15.0130,-428.9539 L-15.0344,-429.0023 L-15.0566,-429.0504 L-15.0796,-429.0981 L-15.1035,-429.1453 L-15.1282,-429.1922 L-15.1537,-429.2386 L-15.1800,-429.2845 L-15.2072,-429.3299 L-15.2351,-429.3749 L-15.2638,-429.4194 L-15.2934,-429.4634 L-15.3236,-429.5068 L-15.3547,-429.5497 L-15.3865,-429.5920 L-15.4190,-429.6338 L-15.4523,-429.6750 L-15.4863,-429.7156 L-15.5210,-429.7555 L-15.5564,-429.7949 L-15.5925,-429.8337 L-15.6293,-429.8717 L-15.6667,-429.9092 L-15.7048,-429.9460 L-15.7435,-429.9821 L-15.7829,-430.0175 L-15.8229,-430.0522 L-15.8635,-430.0862 L-15.9047,-430.1194 L-15.9464,-430.1520 L-15.9888,-430.1838 L-16.0317,-430.2148 L-16.0751,-430.2451 L-16.1191,-430.2746 L-16.1635,-430.3033 L-16.2085,-430.3313 L-16.2540,-430.3584 L-16.2999,-430.3848 L-16.3463,-430.4103 L-16.3931,-430.4350 L-16.4404,-430.4589 L-16.4881,-430.4819 L-16.5361,-430.5041 L-16.5846,-430.5254 L-16.6334,-430.5459 L-16.6826,-430.5655 L-16.7321,-430.5843 L-16.7820,-430.6021 L-16.8321,-430.6191 L-16.8826,-430.6352 L-16.9333,-430.6504 L-16.9843,-430.6647 L-17.0355,-430.6781 L-17.0869,-430.6906 L-17.1386,-430.7022 L-17.1905,-430.7129 L-17.2425,-430.7226 L-17.2947,-430.7315 L-17.3471,-430.7394 L-17.3995,-430.7464 L-17.4521,-430.7524 L-17.5048,-430.7576 L-17.5576,-430.7618 L-17.6105,-430.7650 L-17.6634,-430.7674 L-17.7163,-430.7688 L-17.7692,-430.7692 L-427.7692,-430.7692"></path>
</g>
</svg>