<?xml version="1.0" encoding="utf-8"?>
<svg xmlns="http://www.w3.org/2000/svg" width="209.0000mm" height="162.0000mm" viewBox="-436.7692 -6.0000 209.0000 162.0000">
<g>
	<path d="M-430.7692,-6.0000 L-436.7692,-6.0000 L-436.7692,0.0000 L-436.7692,13.6364 L-430.7692,13.6364 L-430.7692,13.6364 L-430.7692,27.2727 L-436.7692,27.2727 L-436.7692,27.2727 L-436.7692,40.9091 L-430.7692,40.9091 L-430.7692,40.9091 L-430.7692,54.5455 L-436.7692,54.5455 L-436.7692,54.5455 L-436.7692,68.1818 L-430.7692,68.1818 L-430.7692,68.1818 L-430.7692,81.8182 L-436.7692,81.8182 L-436.7692,81.8182 L-436.7692,95.4545 L-430.7692,95.4545 L-430.7692,95.4545 L-430.7692,109.0909 L-436.7692,109.0909 L-436.7692,109.0909 L-436.7692,122.7273 L-430.7692,122.7273 L-430.7692,122.7273 L-430.7692,136.3636 L-436.7692,136.3636 L-436.7692,136.3636 L-436.7692,150.0000 L-436.7692,156.0000 L-430.7692,156.0000 L-430.7692,156.0000 L-380.7692,156.0000 L-380.7692,150.0000 L-380.7692,150.0000 L-330.7692,150.0000 L-280.7692,150.0000 L-280.7692,156.0000 L-280.7692,156.0000 L-230.7692,156.0000 L-230.7692,156.0000 L-227.7692,156.0000 L-227.7692,150.0000 L-227.7692,136.3636 L-230.7692,136.3636 L-230.7692,136.3636 L-230.7692,122.7273 L-227.7692,122.7273 L-227.7692,122.7273 L-227.7692,109.0909 L-230.7692,109.0909 L-230.7692,109.0909 L-230.7692,95.4545 L-227.7692,95.4545 L-227.7692,95.4545 L-227.7692,81.8182 L-230.7692,81.8182 L-230.7692,81.8182 L-230.7692,68.1818 L-227.7692,68.1818 L-227.7692,68.1818 L-227.7692,54.5455 L-230.7692,54.5455 L-230.7692,54.5455 L-230.7692,40.9091 L-227.7692,40.9091 L-227.7692,40.9091 L-227.7692,27.2727 L-230.7692,27.2727 L-230.7692,27.2727 L-230.7692,13.6364 L-227.7692,13.6364 L-227.7692,13.6364 L-227.7692,0.0000 L-227.7692,-6.0000 L-230.7692,-6.0000 L-230.7692,-6.0000 L-330.7692,-6.0000 L-430.7692,-6.0000 L-430.7692,-6.0000"></path>
	<path d="M-430.7692,0.0000 L-430.7692,5.0000 L-230.7692,5.0000 L-230.7692,0.0000 L-430.7692,0.0000"></path>
	<path d="M-412.5874,124.0000 L-412.6487,124.0005 L-412.7099,124.0021 L-412.7711,124.0048 L-412.8322,124.0086 L-412.8933,124.0134 L-412.9543,124.0193 L-413.0151,124.0262 L-413.0759,124.0343 L-413.1364,124.0433 L-413.1969,124.0535 L-413.2571,124.0647 L-413.3171,124.0769 L-413.3769,124.0902 L-413.4365,124.1045 L-413.4957,124.1199 L-413.5548,124.1363 L-413.6135,124.1538 L-413.6719,124.1722 L-413.7300,124.1917 L-413.7877,124.2122 L-413.8450,124.2338 L-413.9020,124.2563 L-413.9586,124.2798 L-414.0147,124.3043 L-414.0704,124.3297 L-414.1257,124.3562 L-414.1805,124.3836 L-414.2348,124.4119 L-414.2886,124.4412 L-414.3418,124.4715 L-414.3946,124.5026 L-414.4467,124.5347 L-414.4984,124.5677 L-414.5494,124.6016 L-414.5998,124.6364 L-414.6496,124.6720 L-414.6988,124.7086 L-414.7473,124.7459 L-414.7952,124.7842 L-414.8424,124.8232 L-414.8889,124.8631 L-414.9347,124.9038 L-414.9798,124.9453 L-415.0241,124.9875 L-415.0677,125.0305 L-415.1105,125.0743 L-415.1526,125.1189 L-415.1939,125.1641 L-415.2344,125.2101 L-415.2740,125.2568 L-415.3129,125.3041 L-415.3509,125.3522 L-415.3881,125.4009 L-415.4244,125.4502 L-415.4598,125.5002 L-415.4944,125.5507 L-415.5280,125.6019 L-415.5608,125.6537 L-415.5927,125.7060 L-415.6236,125.7588 L-415.6536,125.8123 L-415.6827,125.8662 L-415.7108,125.9206 L-415.7380,125.9755 L-415.7641,126.0309 L-415.7894,126.0867 L-415.8136,126.1429 L-415.8369,126.1996 L-415.8591,126.2567 L-415.8804,126.3141 L-415.9006,126.3719 L-415.9199,126.4301 L-415.9381,126.4886 L-415.9553,126.5474 L-415.9714,126.6065 L-415.9866,126.6658 L-416.0006,126.7254 L-416.0137,126.7853 L-416.0256,126.8454 L-416.0366,126.9056 L-416.0465,126.9661 L-416.0553,127.0267 L-416.0630,127.0875 L-416.0697,127.1484 L-416.0753,127.2094 L-416.0799,127.2705 L-416.0834,127.3316 L-416.0858,127.3928 L-416.0871,127.4541 L-416.0874,127.5153 L-416.0866,127.5766 L-416.0847,127.6378 L-416.0818,127.6990 L-416.0777,127.7601 L-416.0726,127.8211 L-416.0665,127.8821 L-416.0593,127.9429 L-416.0510,128.0036 L-416.0416,128.0642 L-416.0312,128.1245 L-416.0198,128.1847 L-416.0073,128.2447 L-415.9937,128.3044 L-415.9791,128.3639 L-415.9635,128.4231 L-415.9468,128.4821 L-415.9291,128.5407 L-415.9104,128.5990 L-415.8906,128.6570 L-415.8699,128.7146 L-415.8481,128.7719 L-415.8254,128.8288 L-415.8016,128.8852 L-415.7769,128.9413 L-415.7512,128.9969 L-415.7245,129.0520 L-415.6968,129.1067 L-415.6683,129.1609 L-415.6387,129.2145 L-415.6082,129.2677 L-415.5768,129.3203 L-415.5445,129.3723 L-415.5113,129.4238 L-415.4772,129.4746 L-415.4422,129.5249 L-415.4063,129.5746 L-415.3696,129.6236 L-415.3320,129.6719 L-415.2936,129.7196 L-415.2543,129.7667 L-415.2142,129.8130 L-415.1733,129.8586 L-415.1317,129.9035 L-415.0892,129.9477 L-415.0460,129.9911 L-415.0020,130.0337 L-414.9573,130.0756 L-414.9119,130.1167 L-414.8657,130.1569 L-414.8189,130.1964 L-414.7713,130.2350 L-414.7231,130.2728 L-414.6743,130.3098 L-414.6248,130.3459 L-414.5747,130.3811 L-414.5239,130.4155 L-414.4726,130.4489 L-414.4207,130.4814 L-414.3683,130.5131 L-414.3153,130.5438 L-414.2617,130.5735 L-414.2077,130.6024 L-414.1531,130.6303 L-414.0981,130.6572 L-414.0426,130.6831 L-413.9867,130.7081 L-413.9303,130.7321 L-413.8736,130.7551 L-413.8164,130.7771 L-413.7589,130.7981 L-413.7010,130.8181 L-413.6427,130.8371 L-413.5842,130.8551 L-413.5253,130.8720 L-413.4661,130.8879 L-413.4067,130.9028 L-413.3470,130.9166 L-413.2871,130.9293 L-413.2270,130.9411 L-413.1667,130.9517 L-413.1062,130.9613 L-413.0455,130.9699 L-412.9847,130.9774 L-412.9238,130.9838 L-412.8628,130.9892 L-412.8017,130.9934 L-412.7405,130.9967 L-412.6793,130.9988 L-412.6180,130.9999 L-412.5568,130.9999 L-412.4955,130.9988 L-412.4343,130.9967 L-412.3731,130.9934 L-412.3120,130.9892 L-412.2510,130.9838 L-412.1901,130.9774 L-412.1293,130.9699 L-412.0686,130.9613 L-412.0082,130.9517 L-411.9478,130.9411 L-411.8877,130.9293 L-411.8278,130.9166 L-411.7681,130.9028 L-411.7087,130.8879 L-411.6495,130.8720 L-411.5907,130.8551 L-411.5321,130.8371 L-411.4739,130.8181 L-411.4160,130.7981 L-411.3584,130.7771 L-411.3013,130.7551 L-411.2445,130.7321 L-411.1881,130.7081 L-411.1322,130.6831 L-411.0767,130.6572 L-411.0217,130.6303 L-410.9671,130.6024 L-410.9131,130.5735 L-410.8596,130.5438 L-410.8066,130.5131 L-410.7541,130.4814 L-410.7022,130.4489 L-410.6509,130.4155 L-410.6002,130.3811 L-410.5500,130.3459 L-410.5005,130.3098 L-410.4517,130.2728 L-410.4035,130.2350 L-410.3560,130.1964 L-410.3091,130.1569 L-410.2630,130.1167 L-410.2175,130.0756 L-410.1728,130.0337 L-410.1288,129.9911 L-410.0856,129.9477 L-410.0432,129.9035 L-410.0015,129.8586 L-409.9606,129.8130 L-409.9205,129.7667 L-409.8813,129.7196 L-409.8428,129.6719 L-409.8052,129.6236 L-409.7685,129.5746 L-409.7326,129.5249 L-409.6976,129.4746 L-409.6635,129.4238 L-409.6303,129.3723 L-409.5980,129.3203 L-409.5666,129.2677 L-409.5361,129.2145 L-409.5066,129.1609 L-409.4780,129.1067 L-409.4503,129.0520 L-409.4237,128.9969 L-409.3979,128.9413 L-409.3732,128.8852 L-409.3495,128.8288 L-409.3267,128.7719 L-409.3049,128.7146 L-409.2842,128.6570 L-409.2644,128.5990 L-409.2457,128.5407 L-409.2280,128.4821 L-409.2113,128.4231 L-409.1957,128.3639 L-409.1811,128.3044 L-409.1675,128.2447 L-409.1550,128.1847 L-409.1436,128.1245 L-409.1332,128.0642 L-409.1238,128.0036 L-409.1156,127.9429 L-409.1083,127.8821 L-409.1022,127.8211 L-409.0971,127.7601 L-409.0931,127.6990 L-409.0901,127.6378 L-409.0883,127.5766 L-409.0874,127.5153 L-409.0877,127.4541 L-409.0891,127.3928 L-409.0915,127.3316 L-409.0949,127.2705 L-409.0995,127.2094 L-409.1051,127.1484 L-409.1118,127.0875 L-409.1196,127.0267 L-409.1284,126.9661 L-409.1382,126.9056 L-409.1492,126.8454 L-409.1612,126.7853 L-409.1742,126.7254 L-409.1883,126.6658 L-409.2034,126.6065 L-409.2195,126.5474 L-409.2367,126.4886 L-409.2549,126.4301 L-409.2742,126.3719 L-409.2944,126.3141 L-409.3157,126.2567 L-409.3380,126.1996 L-409.3612,126.1429 L-409.3855,126.0867 L-409.4107,126.0309 L-409.4369,125.9755 L-409.4640,125.9206 L-409.4922,125.8662 L-409.5212,125.8123 L-409.5512,125.7588 L-409.5822,125.7060 L-409.6140,125.6537 L-409.6468,125.6019 L-409.6805,125.5507 L-409.7150,125.5002 L-409.7505,125.4502 L-409.7868,125.4009 L-409.8239,125.3522 L-409.8619,125.3041 L-409.9008,125.2568 L-409.9405,125.2101 L-409.9809,125.1641 L-410.0222,125.1189 L-410.0643,125.0743 L-410.1071,125.0305 L-410.1507,124.9875 L-410.1951,124.9453 L-410.2401,124.9038 L-410.2859,124.8631 L-410.3324,124.8232 L-410.3796,124.7842 L-410.4275,124.7459 L-410.4760,124.7086 L-410.5252,124.6720 L-410.5750,124.6364 L-410.6254,124.6016 L-410.6765,124.5677 L-410.7281,124.5347 L-410.7803,124.5026 L-410.8330,124.4715 L-410.8863,124.4412 L-410.9401,124.4119 L-410.9944,124.3836 L-411.0491,124.3562 L-411.1044,124.3297 L-411.1601,124.3043 L-411.2163,124.2798 L-411.2728,124.2563 L-411.3298,124.2338 L-411.3871,124.2122 L-411.4449,124.1917 L-411.5029,124.1722 L-411.5613,124.1538 L-411.6201,124.1363 L-411.6791,124.1199 L-411.7384,124.1045 L-411.7979,124.0902 L-411.8577,124.0769 L-411.9177,124.0647 L-411.9780,124.0535 L-412.0384,124.0433 L-412.0990,124.0343 L-412.1597,124.0262 L-412.2205,124.0193 L-412.2815,124.0134 L-412.3426,124.0086 L-412.4037,124.0048 L-412.4649,124.0021 L-412.5262,124.0005 L-412.5874,124.0000"></path>
	<path d="M-394.4056,124.0000 L-394.4668,124.0005 L-394.5281,124.0021 L-394.5893,124.0048 L-394.6504,124.0086 L-394.7115,124.0134 L-394.7725,124.0193 L-394.8333,124.0262 L-394.8940,124.0343 L-394.9546,124.0433 L-395.0150,124.0535 L-395.0753,124.0647 L-395.1353,124.0769 L-395.1951,124.0902 L-395.2546,124.1045 L-395.3139,124.1199 L-395.3729,124.1363 L-395.4317,124.1538 L-395.4901,124.1722 L-395.5481,124.1917 L-395.6059,124.2122 L-395.6632,124.2338 L-395.7202,124.2563 L-395.7768,124.2798 L-395.8329,124.3043 L-395.8886,124.3297 L-395.9439,124.3562 L-395.9987,124.3836 L-396.0530,124.4119 L-396.1067,124.4412 L-396.1600,124.4715 L-396.2127,124.5026 L-396.2649,124.5347 L-396.3165,124.5677 L-396.3676,124.6016 L-396.4180,124.6364 L-396.4678,124.6720 L-396.5170,124.7086 L-396.5655,124.7459 L-396.6134,124.7842 L-396.6606,124.8232 L-396.7071,124.8631 L-396.7529,124.9038 L-396.7979,124.9453 L-396.8423,124.9875 L-396.8859,125.0305 L-396.9287,125.0743 L-396.9708,125.1189 L-397.0121,125.1641 L-397.0525,125.2101 L-397.0922,125.2568 L-397.1311,125.3041 L-397.1691,125.3522 L-397.2062,125.4009 L-397.2425,125.4502 L-397.2780,125.5002 L-397.3125,125.5507 L-397.3462,125.6019 L-397.3790,125.6537 L-397.4108,125.7060 L-397.4418,125.7588 L-397.4718,125.8123 L-397.5008,125.8662 L-397.5290,125.9206 L-397.5561,125.9755 L-397.5823,126.0309 L-397.6076,126.0867 L-397.6318,126.1429 L-397.6551,126.1996 L-397.6773,126.2567 L-397.6986,126.3141 L-397.7188,126.3719 L-397.7381,126.4301 L-397.7563,126.4886 L-397.7735,126.5474 L-397.7896,126.6065 L-397.8047,126.6658 L-397.8188,126.7254 L-397.8318,126.7853 L-397.8438,126.8454 L-397.8548,126.9056 L-397.8646,126.9661 L-397.8734,127.0267 L-397.8812,127.0875 L-397.8879,127.1484 L-397.8935,127.2094 L-397.8981,127.2705 L-397.9015,127.3316 L-397.9040,127.3928 L-397.9053,127.4541 L-397.9056,127.5153 L-397.9048,127.5766 L-397.9029,127.6378 L-397.8999,127.6990 L-397.8959,127.7601 L-397.8908,127.8211 L-397.8847,127.8821 L-397.8775,127.9429 L-397.8692,128.0036 L-397.8598,128.0642 L-397.8494,128.1245 L-397.8380,128.1847 L-397.8255,128.2447 L-397.8119,128.3044 L-397.7973,128.3639 L-397.7817,128.4231 L-397.7650,128.4821 L-397.7473,128.5407 L-397.7286,128.5990 L-397.7088,128.6570 L-397.6881,128.7146 L-397.6663,128.7719 L-397.6436,128.8288 L-397.6198,128.8852 L-397.5951,128.9413 L-397.5694,128.9969 L-397.5427,129.0520 L-397.5150,129.1067 L-397.4864,129.1609 L-397.4569,129.2145 L-397.4264,129.2677 L-397.3950,129.3203 L-397.3627,129.3723 L-397.3295,129.4238 L-397.2954,129.4746 L-397.2604,129.5249 L-397.2245,129.5746 L-397.1878,129.6236 L-397.1502,129.6719 L-397.1117,129.7196 L-397.0725,129.7667 L-397.0324,129.8130 L-396.9915,129.8586 L-396.9498,129.9035 L-396.9074,129.9477 L-396.8642,129.9911 L-396.8202,130.0337 L-396.7755,130.0756 L-396.7300,130.1167 L-396.6839,130.1569 L-396.6371,130.1964 L-396.5895,130.2350 L-396.5413,130.2728 L-396.4925,130.3098 L-396.4430,130.3459 L-396.3929,130.3811 L-396.3421,130.4155 L-396.2908,130.4489 L-396.2389,130.4814 L-396.1864,130.5131 L-396.1334,130.5438 L-396.0799,130.5735 L-396.0259,130.6024 L-395.9713,130.6303 L-395.9163,130.6572 L-395.8608,130.6831 L-395.8049,130.7081 L-395.7485,130.7321 L-395.6918,130.7551 L-395.6346,130.7771 L-395.5770,130.7981 L-395.5191,130.8181 L-395.4609,130.8371 L-395.4023,130.8551 L-395.3435,130.8720 L-395.2843,130.8879 L-395.2249,130.9028 L-395.1652,130.9166 L-395.1053,130.9293 L-395.0452,130.9411 L-394.9849,130.9517 L-394.9244,130.9613 L-394.8637,130.9699 L-394.8029,130.9774 L-394.7420,130.9838 L-394.6810,130.9892 L-394.6199,130.9934 L-394.5587,130.9967 L-394.4975,130.9988 L-394.4362,130.9999 L-394.3750,130.9999 L-394.3137,130.9988 L-394.2525,130.9967 L-394.1913,130.9934 L-394.1302,130.9892 L-394.0692,130.9838 L-394.0083,130.9774 L-393.9475,130.9699 L-393.8868,130.9613 L-393.8263,130.9517 L-393.7660,130.9411 L-393.7059,130.9293 L-393.6460,130.9166 L-393.5863,130.9028 L-393.5269,130.8879 L-393.4677,130.8720 L-393.4088,130.8551 L-393.3503,130.8371 L-393.2920,130.8181 L-393.2341,130.7981 L-393.1766,130.7771 L-393.1194,130.7551 L-393.0627,130.7321 L-393.0063,130.7081 L-392.9504,130.6831 L-392.8949,130.6572 L-392.8399,130.6303 L-392.7853,130.6024 L-392.7313,130.5735 L-392.6777,130.5438 L-392.6247,130.5131 L-392.5723,130.4814 L-392.5204,130.4489 L-392.4691,130.4155 L-392.4183,130.3811 L-392.3682,130.3459 L-392.3187,130.3098 L-392.2699,130.2728 L-392.2217,130.2350 L-392.1741,130.1964 L-392.1273,130.1569 L-392.0811,130.1167 L-392.0357,130.0756 L-391.9910,130.0337 L-391.9470,129.9911 L-391.9038,129.9477 L-391.8613,129.9035 L-391.8197,129.8586 L-391.7788,129.8130 L-391.7387,129.7667 L-391.6995,129.7196 L-391.6610,129.6719 L-391.6234,129.6236 L-391.5867,129.5746 L-391.5508,129.5249 L-391.5158,129.4746 L-391.4817,129.4238 L-391.4485,129.3723 L-391.4162,129.3203 L-391.3848,129.2677 L-391.3543,129.2145 L-391.3248,129.1609 L-391.2962,129.1067 L-391.2685,129.0520 L-391.2418,128.9969 L-391.2161,128.9413 L-391.1914,128.8852 L-391.1676,128.8288 L-391.1449,128.7719 L-391.1231,128.7146 L-391.1024,128.6570 L-391.0826,128.5990 L-391.0639,128.5407 L-391.0462,128.4821 L-391.0295,128.4231 L-391.0139,128.3639 L-390.9993,128.3044 L-390.9857,128.2447 L-390.9732,128.1847 L-390.9618,128.1245 L-390.9514,128.0642 L-390.9420,128.0036 L-390.9337,127.9429 L-390.9265,127.8821 L-390.9204,127.8211 L-390.9153,127.7601 L-390.9113,127.6990 L-390.9083,127.6378 L-390.9064,127.5766 L-390.9056,127.5153 L-390.9059,127.4541 L-390.9072,127.3928 L-390.9096,127.3316 L-390.9131,127.2705 L-390.9177,127.2094 L-390.9233,127.1484 L-390.9300,127.0875 L-390.9377,127.0267 L-390.9466,126.9661 L-390.9564,126.9056 L-390.9674,126.8454 L-390.9793,126.7853 L-390.9924,126.7254 L-391.0065,126.6658 L-391.0216,126.6065 L-391.0377,126.5474 L-391.0549,126.4886 L-391.0731,126.4301 L-391.0924,126.3719 L-391.1126,126.3141 L-391.1339,126.2567 L-391.1561,126.1996 L-391.1794,126.1429 L-391.2036,126.0867 L-391.2289,126.0309 L-391.2551,125.9755 L-391.2822,125.9206 L-391.3103,125.8662 L-391.3394,125.8123 L-391.3694,125.7588 L-391.4004,125.7060 L-391.4322,125.6537 L-391.4650,125.6019 L-391.4986,125.5507 L-391.5332,125.5002 L-391.5686,125.4502 L-391.6050,125.4009 L-391.6421,125.3522 L-391.6801,125.3041 L-391.7190,125.2568 L-391.7586,125.2101 L-391.7991,125.1641 L-391.8404,125.1189 L-391.8825,125.0743 L-391.9253,125.0305 L-391.9689,124.9875 L-392.0133,124.9453 L-392.0583,124.9038 L-392.1041,124.8631 L-392.1506,124.8232 L-392.1978,124.7842 L-392.2457,124.7459 L-392.2942,124.7086 L-392.3434,124.6720 L-392.3932,124.6364 L-392.4436,124.6016 L-392.4947,124.5677 L-392.5463,124.5347 L-392.5984,124.5026 L-392.6512,124.4715 L-392.7044,124.4412 L-392.7582,124.4119 L-392.8125,124.3836 L-392.8673,124.3562 L-392.9226,124.3297 L-392.9783,124.3043 L-393.0344,124.2798 L-393.0910,124.2563 L-393.1480,124.2338 L-393.2053,124.2122 L-393.2630,124.1917 L-393.3211,124.1722 L-393.3795,124.1538 L-393.4382,124.1363 L-393.4973,124.1199 L-393.5566,124.1045 L-393.6161,124.0902 L-393.6759,124.0769 L-393.7359,124.0647 L-393.7962,124.0535 L-393.8566,124.0433 L-393.9171,124.0343 L-393.9779,124.0262 L-394.0387,124.0193 L-394.0997,124.0134 L-394.1608,124.0086 L-394.2219,124.0048 L-394.2831,124.0021 L-394.3443,124.0005 L-394.4056,124.0000"></path>
	<path d="M-376.2238,124.0000 L-376.2850,124.0005 L-376.3463,124.0021 L-376.4075,124.0048 L-376.4686,124.0086 L-376.5297,124.0134 L-376.5906,124.0193 L-376.6515,124.0262 L-376.7122,124.0343 L-376.7728,124.0433 L-376.8332,124.0535 L-376.8934,124.0647 L-376.9535,124.0769 L-377.0133,124.0902 L-377.0728,124.1045 L-377.1321,124.1199 L-377.1911,124.1363 L-377.2498,124.1538 L-377.3082,124.1722 L-377.3663,124.1917 L-377.4240,124.2122 L-377.4814,124.2338 L-377.5384,124.2563 L-377.5949,124.2798 L-377.6511,124.3043 L-377.7068,124.3297 L-377.7621,124.3562 L-377.8168,124.3836 L-377.8711,124.4119 L-377.9249,124.4412 L-377.9782,124.4715 L-378.0309,124.5026 L-378.0831,124.5347 L-378.1347,124.5677 L-378.1857,124.6016 L-378.2362,124.6364 L-378.2860,124.6720 L-378.3352,124.7086 L-378.3837,124.7459 L-378.4316,124.7842 L-378.4787,124.8232 L-378.5252,124.8631 L-378.5710,124.9038 L-378.6161,124.9453 L-378.6605,124.9875 L-378.7041,125.0305 L-378.7469,125.0743 L-378.7890,125.1189 L-378.8302,125.1641 L-378.8707,125.2101 L-378.9104,125.2568 L-378.9492,125.3041 L-378.9873,125.3522 L-379.0244,125.4009 L-379.0607,125.4502 L-379.0962,125.5002 L-379.1307,125.5507 L-379.1644,125.6019 L-379.1972,125.6537 L-379.2290,125.7060 L-379.2600,125.7588 L-379.2900,125.8123 L-379.3190,125.8662 L-379.3472,125.9206 L-379.3743,125.9755 L-379.4005,126.0309 L-379.4257,126.0867 L-379.4500,126.1429 L-379.4732,126.1996 L-379.4955,126.2567 L-379.5168,126.3141 L-379.5370,126.3719 L-379.5562,126.4301 L-379.5745,126.4886 L-379.5916,126.5474 L-379.6078,126.6065 L-379.6229,126.6658 L-379.6370,126.7254 L-379.6500,126.7853 L-379.6620,126.8454 L-379.6729,126.9056 L-379.6828,126.9661 L-379.6916,127.0267 L-379.6994,127.0875 L-379.7061,127.1484 L-379.7117,127.2094 L-379.7162,127.2705 L-379.7197,127.3316 L-379.7221,127.3928 L-379.7235,127.4541 L-379.7237,127.5153 L-379.7229,127.5766 L-379.7211,127.6378 L-379.7181,127.6990 L-379.7141,127.7601 L-379.7090,127.8211 L-379.7029,127.8821 L-379.6956,127.9429 L-379.6874,128.0036 L-379.6780,128.0642 L-379.6676,128.1245 L-379.6562,128.1847 L-379.6436,128.2447 L-379.6301,128.3044 L-379.6155,128.3639 L-379.5998,128.4231 L-379.5832,128.4821 L-379.5655,128.5407 L-379.5467,128.5990 L-379.5270,128.6570 L-379.5063,128.7146 L-379.4845,128.7719 L-379.4617,128.8288 L-379.4380,128.8852 L-379.4132,128.9413 L-379.3875,128.9969 L-379.3609,129.0520 L-379.3332,129.1067 L-379.3046,129.1609 L-379.2751,129.2145 L-379.2446,129.2677 L-379.2132,129.3203 L-379.1809,129.3723 L-379.1477,129.4238 L-379.1136,129.4746 L-379.0786,129.5249 L-379.0427,129.5746 L-379.0059,129.6236 L-378.9684,129.6719 L-378.9299,129.7196 L-378.8907,129.7667 L-378.8506,129.8130 L-378.8097,129.8586 L-378.7680,129.9035 L-378.7256,129.9477 L-378.6824,129.9911 L-378.6384,130.0337 L-378.5937,130.0756 L-378.5482,130.1167 L-378.5021,130.1569 L-378.4552,130.1964 L-378.4077,130.2350 L-378.3595,130.2728 L-378.3106,130.3098 L-378.2612,130.3459 L-378.2110,130.3811 L-378.1603,130.4155 L-378.1090,130.4489 L-378.0571,130.4814 L-378.0046,130.5131 L-377.9516,130.5438 L-377.8981,130.5735 L-377.8440,130.6024 L-377.7895,130.6303 L-377.7345,130.6572 L-377.6790,130.6831 L-377.6231,130.7081 L-377.5667,130.7321 L-377.5099,130.7551 L-377.4528,130.7771 L-377.3952,130.7981 L-377.3373,130.8181 L-377.2791,130.8371 L-377.2205,130.8551 L-377.1617,130.8720 L-377.1025,130.8879 L-377.0431,130.9028 L-376.9834,130.9166 L-376.9235,130.9293 L-376.8634,130.9411 L-376.8030,130.9517 L-376.7425,130.9613 L-376.6819,130.9699 L-376.6211,130.9774 L-376.5602,130.9838 L-376.4991,130.9892 L-376.4380,130.9934 L-376.3769,130.9967 L-376.3157,130.9988 L-376.2544,130.9999 L-376.1931,130.9999 L-376.1319,130.9988 L-376.0707,130.9967 L-376.0095,130.9934 L-375.9484,130.9892 L-375.8874,130.9838 L-375.8265,130.9774 L-375.7657,130.9699 L-375.7050,130.9613 L-375.6445,130.9517 L-375.5842,130.9411 L-375.5241,130.9293 L-375.4642,130.9166 L-375.4045,130.9028 L-375.3451,130.8879 L-375.2859,130.8720 L-375.2270,130.8551 L-375.1685,130.8371 L-375.1102,130.8181 L-375.0523,130.7981 L-374.9948,130.7771 L-374.9376,130.7551 L-374.8808,130.7321 L-374.8245,130.7081 L-374.7686,130.6831 L-374.7131,130.6572 L-374.6580,130.6303 L-374.6035,130.6024 L-374.5495,130.5735 L-374.4959,130.5438 L-374.4429,130.5131 L-374.3905,130.4814 L-374.3386,130.4489 L-374.2872,130.4155 L-374.2365,130.3811 L-374.1864,130.3459 L-374.1369,130.3098 L-374.0881,130.2728 L-374.0399,130.2350 L-373.9923,130.1964 L-373.9455,130.1569 L-373.8993,130.1167 L-373.8539,130.0756 L-373.8092,130.0337 L-373.7652,129.9911 L-373.7220,129.9477 L-373.6795,129.9035 L-373.6379,129.8586 L-373.5970,129.8130 L-373.5569,129.7667 L-373.5176,129.7196 L-373.4792,129.6719 L-373.4416,129.6236 L-373.4049,129.5746 L-373.3690,129.5249 L-373.3340,129.4746 L-373.2999,129.4238 L-373.2667,129.3723 L-373.2343,129.3203 L-373.2029,129.2677 L-373.1725,129.2145 L-373.1429,129.1609 L-373.1143,129.1067 L-373.0867,129.0520 L-373.0600,128.9969 L-373.0343,128.9413 L-373.0096,128.8852 L-372.9858,128.8288 L-372.9631,128.7719 L-372.9413,128.7146 L-372.9205,128.6570 L-372.9008,128.5990 L-372.8821,128.5407 L-372.8644,128.4821 L-372.8477,128.4231 L-372.8321,128.3639 L-372.8175,128.3044 L-372.8039,128.2447 L-372.7914,128.1847 L-372.7799,128.1245 L-372.7695,128.0642 L-372.7602,128.0036 L-372.7519,127.9429 L-372.7447,127.8821 L-372.7385,127.8211 L-372.7335,127.7601 L-372.7294,127.6990 L-372.7265,127.6378 L-372.7246,127.5766 L-372.7238,127.5153 L-372.7241,127.4541 L-372.7254,127.3928 L-372.7278,127.3316 L-372.7313,127.2705 L-372.7359,127.2094 L-372.7415,127.1484 L-372.7482,127.0875 L-372.7559,127.0267 L-372.7647,126.9661 L-372.7746,126.9056 L-372.7855,126.8454 L-372.7975,126.7853 L-372.8106,126.7254 L-372.8246,126.6658 L-372.8398,126.6065 L-372.8559,126.5474 L-372.8731,126.4886 L-372.8913,126.4301 L-372.9105,126.3719 L-372.9308,126.3141 L-372.9521,126.2567 L-372.9743,126.1996 L-372.9976,126.1429 L-373.0218,126.0867 L-373.0470,126.0309 L-373.0732,125.9755 L-373.1004,125.9206 L-373.1285,125.8662 L-373.1576,125.8123 L-373.1876,125.7588 L-373.2185,125.7060 L-373.2504,125.6537 L-373.2832,125.6019 L-373.3168,125.5507 L-373.3514,125.5002 L-373.3868,125.4502 L-373.4231,125.4009 L-373.4603,125.3522 L-373.4983,125.3041 L-373.5372,125.2568 L-373.5768,125.2101 L-373.6173,125.1641 L-373.6586,125.1189 L-373.7007,125.0743 L-373.7435,125.0305 L-373.7871,124.9875 L-373.8314,124.9453 L-373.8765,124.9038 L-373.9223,124.8631 L-373.9688,124.8232 L-374.0160,124.7842 L-374.0639,124.7459 L-374.1124,124.7086 L-374.1616,124.6720 L-374.2114,124.6364 L-374.2618,124.6016 L-374.3128,124.5677 L-374.3644,124.5347 L-374.4166,124.5026 L-374.4694,124.4715 L-374.5226,124.4412 L-374.5764,124.4119 L-374.6307,124.3836 L-374.6855,124.3562 L-374.7408,124.3297 L-374.7965,124.3043 L-374.8526,124.2798 L-374.9092,124.2563 L-374.9662,124.2338 L-375.0235,124.2122 L-375.0812,124.1917 L-375.1393,124.1722 L-375.1977,124.1538 L-375.2564,124.1363 L-375.3154,124.1199 L-375.3747,124.1045 L-375.4343,124.0902 L-375.4941,124.0769 L-375.5541,124.0647 L-375.6143,124.0535 L-375.6747,124.0433 L-375.7353,124.0343 L-375.7961,124.0262 L-375.8569,124.0193 L-375.9179,124.0134 L-375.9789,124.0086 L-376.0401,124.0048 L-376.1013,124.0021 L-376.1625,124.0005 L-376.2238,124.0000"></path>
	<path d="M-358.0420,124.0000 L-358.1032,124.0005 L-358.1644,124.0021 L-358.2256,124.0048 L-358.2868,124.0086 L-358.3479,124.0134 L-358.4088,124.0193 L-358.4697,124.0262 L-358.5304,124.0343 L-358.5910,124.0433 L-358.6514,124.0535 L-358.7116,124.0647 L-358.7716,124.0769 L-358.8314,124.0902 L-358.8910,124.1045 L-358.9503,124.1199 L-359.0093,124.1363 L-359.0680,124.1538 L-359.1264,124.1722 L-359.1845,124.1917 L-359.2422,124.2122 L-359.2996,124.2338 L-359.3566,124.2563 L-359.4131,124.2798 L-359.4693,124.3043 L-359.5250,124.3297 L-359.5802,124.3562 L-359.6350,124.3836 L-359.6893,124.4119 L-359.7431,124.4412 L-359.7964,124.4715 L-359.8491,124.5026 L-359.9013,124.5347 L-359.9529,124.5677 L-360.0039,124.6016 L-360.0544,124.6364 L-360.1042,124.6720 L-360.1533,124.7086 L-360.2019,124.7459 L-360.2497,124.7842 L-360.2969,124.8232 L-360.3434,124.8631 L-360.3892,124.9038 L-360.4343,124.9453 L-360.4786,124.9875 L-360.5222,125.0305 L-360.5651,125.0743 L-360.6071,125.1189 L-360.6484,125.1641 L-360.6889,125.2101 L-360.7286,125.2568 L-360.7674,125.3041 L-360.8054,125.3522 L-360.8426,125.4009 L-360.8789,125.4502 L-360.9143,125.5002 L-360.9489,125.5507 L-360.9826,125.6019 L-361.0153,125.6537 L-361.0472,125.7060 L-361.0781,125.7588 L-361.1081,125.8123 L-361.1372,125.8662 L-361.1653,125.9206 L-361.1925,125.9755 L-361.2187,126.0309 L-361.2439,126.0867 L-361.2682,126.1429 L-361.2914,126.1996 L-361.3137,126.2567 L-361.3349,126.3141 L-361.3552,126.3719 L-361.3744,126.4301 L-361.3926,126.4886 L-361.4098,126.5474 L-361.4260,126.6065 L-361.4411,126.6658 L-361.4552,126.7254 L-361.4682,126.7853 L-361.4802,126.8454 L-361.4911,126.9056 L-361.5010,126.9661 L-361.5098,127.0267 L-361.5176,127.0875 L-361.5242,127.1484 L-361.5299,127.2094 L-361.5344,127.2705 L-361.5379,127.3316 L-361.5403,127.3928 L-361.5417,127.4541 L-361.5419,127.5153 L-361.5411,127.5766 L-361.5392,127.6378 L-361.5363,127.6990 L-361.5323,127.7601 L-361.5272,127.8211 L-361.5210,127.8821 L-361.5138,127.9429 L-361.5055,128.0036 L-361.4962,128.0642 L-361.4858,128.1245 L-361.4743,128.1847 L-361.4618,128.2447 L-361.4483,128.3044 L-361.4337,128.3639 L-361.4180,128.4231 L-361.4014,128.4821 L-361.3837,128.5407 L-361.3649,128.5990 L-361.3452,128.6570 L-361.3244,128.7146 L-361.3027,128.7719 L-361.2799,128.8288 L-361.2562,128.8852 L-361.2314,128.9413 L-361.2057,128.9969 L-361.1790,129.0520 L-361.1514,129.1067 L-361.1228,129.1609 L-361.0933,129.2145 L-361.0628,129.2677 L-361.0314,129.3203 L-360.9991,129.3723 L-360.9659,129.4238 L-360.9317,129.4746 L-360.8967,129.5249 L-360.8609,129.5746 L-360.8241,129.6236 L-360.7865,129.6719 L-360.7481,129.7196 L-360.7088,129.7667 L-360.6688,129.8130 L-360.6279,129.8586 L-360.5862,129.9035 L-360.5438,129.9477 L-360.5005,129.9911 L-360.4566,130.0337 L-360.4119,130.0756 L-360.3664,130.1167 L-360.3203,130.1569 L-360.2734,130.1964 L-360.2259,130.2350 L-360.1777,130.2728 L-360.1288,130.3098 L-360.0793,130.3459 L-360.0292,130.3811 L-359.9785,130.4155 L-359.9272,130.4489 L-359.8753,130.4814 L-359.8228,130.5131 L-359.7698,130.5438 L-359.7163,130.5735 L-359.6622,130.6024 L-359.6077,130.6303 L-359.5527,130.6572 L-359.4972,130.6831 L-359.4412,130.7081 L-359.3849,130.7321 L-359.3281,130.7551 L-359.2710,130.7771 L-359.2134,130.7981 L-359.1555,130.8181 L-359.0973,130.8371 L-359.0387,130.8551 L-358.9798,130.8720 L-358.9207,130.8879 L-358.8613,130.9028 L-358.8016,130.9166 L-358.7417,130.9293 L-358.6815,130.9411 L-358.6212,130.9517 L-358.5607,130.9613 L-358.5001,130.9699 L-358.4393,130.9774 L-358.3783,130.9838 L-358.3173,130.9892 L-358.2562,130.9934 L-358.1951,130.9967 L-358.1338,130.9988 L-358.0726,130.9999 L-358.0113,130.9999 L-357.9501,130.9988 L-357.8889,130.9967 L-357.8277,130.9934 L-357.7666,130.9892 L-357.7056,130.9838 L-357.6446,130.9774 L-357.5839,130.9699 L-357.5232,130.9613 L-357.4627,130.9517 L-357.4024,130.9411 L-357.3423,130.9293 L-357.2823,130.9166 L-357.2227,130.9028 L-357.1632,130.8879 L-357.1041,130.8720 L-357.0452,130.8551 L-356.9866,130.8371 L-356.9284,130.8181 L-356.8705,130.7981 L-356.8130,130.7771 L-356.7558,130.7551 L-356.6990,130.7321 L-356.6427,130.7081 L-356.5867,130.6831 L-356.5313,130.6572 L-356.4762,130.6303 L-356.4217,130.6024 L-356.3676,130.5735 L-356.3141,130.5438 L-356.2611,130.5131 L-356.2086,130.4814 L-356.1567,130.4489 L-356.1054,130.4155 L-356.0547,130.3811 L-356.0046,130.3459 L-355.9551,130.3098 L-355.9062,130.2728 L-355.8580,130.2350 L-355.8105,130.1964 L-355.7637,130.1569 L-355.7175,130.1167 L-355.6721,130.0756 L-355.6274,130.0337 L-355.5834,129.9911 L-355.5402,129.9477 L-355.4977,129.9035 L-355.4560,129.8586 L-355.4152,129.8130 L-355.3751,129.7667 L-355.3358,129.7196 L-355.2974,129.6719 L-355.2598,129.6236 L-355.2231,129.5746 L-355.1872,129.5249 L-355.1522,129.4746 L-355.1181,129.4238 L-355.0848,129.3723 L-355.0525,129.3203 L-355.0211,129.2677 L-354.9907,129.2145 L-354.9611,129.1609 L-354.9325,129.1067 L-354.9049,129.0520 L-354.8782,128.9969 L-354.8525,128.9413 L-354.8278,128.8852 L-354.8040,128.8288 L-354.7812,128.7719 L-354.7595,128.7146 L-354.7387,128.6570 L-354.7190,128.5990 L-354.7003,128.5407 L-354.6826,128.4821 L-354.6659,128.4231 L-354.6502,128.3639 L-354.6356,128.3044 L-354.6221,128.2447 L-354.6096,128.1847 L-354.5981,128.1245 L-354.5877,128.0642 L-354.5784,128.0036 L-354.5701,127.9429 L-354.5629,127.8821 L-354.5567,127.8211 L-354.5516,127.7601 L-354.5476,127.6990 L-354.5447,127.6378 L-354.5428,127.5766 L-354.5420,127.5153 L-354.5423,127.4541 L-354.5436,127.3928 L-354.5460,127.3316 L-354.5495,127.2705 L-354.5540,127.2094 L-354.5597,127.1484 L-354.5664,127.0875 L-354.5741,127.0267 L-354.5829,126.9661 L-354.5928,126.9056 L-354.6037,126.8454 L-354.6157,126.7853 L-354.6287,126.7254 L-354.6428,126.6658 L-354.6579,126.6065 L-354.6741,126.5474 L-354.6913,126.4886 L-354.7095,126.4301 L-354.7287,126.3719 L-354.7490,126.3141 L-354.7702,126.2567 L-354.7925,126.1996 L-354.8158,126.1429 L-354.8400,126.0867 L-354.8652,126.0309 L-354.8914,125.9755 L-354.9186,125.9206 L-354.9467,125.8662 L-354.9758,125.8123 L-355.0058,125.7588 L-355.0367,125.7060 L-355.0686,125.6537 L-355.1013,125.6019 L-355.1350,125.5507 L-355.1696,125.5002 L-355.2050,125.4502 L-355.2413,125.4009 L-355.2785,125.3522 L-355.3165,125.3041 L-355.3553,125.2568 L-355.3950,125.2101 L-355.4355,125.1641 L-355.4768,125.1189 L-355.5188,125.0743 L-355.5617,125.0305 L-355.6053,124.9875 L-355.6496,124.9453 L-355.6947,124.9038 L-355.7405,124.8631 L-355.7870,124.8232 L-355.8342,124.7842 L-355.8821,124.7459 L-355.9306,124.7086 L-355.9798,124.6720 L-356.0296,124.6364 L-356.0800,124.6016 L-356.1310,124.5677 L-356.1826,124.5347 L-356.2348,124.5026 L-356.2875,124.4715 L-356.3408,124.4412 L-356.3946,124.4119 L-356.4489,124.3836 L-356.5037,124.3562 L-356.5589,124.3297 L-356.6147,124.3043 L-356.6708,124.2798 L-356.7274,124.2563 L-356.7843,124.2338 L-356.8417,124.2122 L-356.8994,124.1917 L-356.9575,124.1722 L-357.0159,124.1538 L-357.0746,124.1363 L-357.1336,124.1199 L-357.1929,124.1045 L-357.2525,124.0902 L-357.3123,124.0769 L-357.3723,124.0647 L-357.4325,124.0535 L-357.4929,124.0433 L-357.5535,124.0343 L-357.6142,124.0262 L-357.6751,124.0193 L-357.7361,124.0134 L-357.7971,124.0086 L-357.8583,124.0048 L-357.9195,124.0021 L-357.9807,124.0005 L-358.0420,124.0000"></path>
	<path d="M-339.8601,124.0000 L-339.9214,124.0005 L-339.9826,124.0021 L-340.0438,124.0048 L-340.1050,124.0086 L-340.1660,124.0134 L-340.2270,124.0193 L-340.2879,124.0262 L-340.3486,124.0343 L-340.4092,124.0433 L-340.4696,124.0535 L-340.5298,124.0647 L-340.5898,124.0769 L-340.6496,124.0902 L-340.7092,124.1045 L-340.7685,124.1199 L-340.8275,124.1363 L-340.8862,124.1538 L-340.9446,124.1722 L-341.0027,124.1917 L-341.0604,124.2122 L-341.1178,124.2338 L-341.1747,124.2563 L-341.2313,124.2798 L-341.2874,124.3043 L-341.3432,124.3297 L-341.3984,124.3562 L-341.4532,124.3836 L-341.5075,124.4119 L-341.5613,124.4412 L-341.6146,124.4715 L-341.6673,124.5026 L-341.7195,124.5347 L-341.7711,124.5677 L-341.8221,124.6016 L-341.8725,124.6364 L-341.9223,124.6720 L-341.9715,124.7086 L-342.0200,124.7459 L-342.0679,124.7842 L-342.1151,124.8232 L-342.1616,124.8631 L-342.2074,124.9038 L-342.2525,124.9453 L-342.2968,124.9875 L-342.3404,125.0305 L-342.3833,125.0743 L-342.4253,125.1189 L-342.4666,125.1641 L-342.5071,125.2101 L-342.5468,125.2568 L-342.5856,125.3041 L-342.6236,125.3522 L-342.6608,125.4009 L-342.6971,125.4502 L-342.7325,125.5002 L-342.7671,125.5507 L-342.8008,125.6019 L-342.8335,125.6537 L-342.8654,125.7060 L-342.8963,125.7588 L-342.9263,125.8123 L-342.9554,125.8662 L-342.9835,125.9206 L-343.0107,125.9755 L-343.0369,126.0309 L-343.0621,126.0867 L-343.0863,126.1429 L-343.1096,126.1996 L-343.1319,126.2567 L-343.1531,126.3141 L-343.1734,126.3719 L-343.1926,126.4301 L-343.2108,126.4886 L-343.2280,126.5474 L-343.2442,126.6065 L-343.2593,126.6658 L-343.2734,126.7254 L-343.2864,126.7853 L-343.2984,126.8454 L-343.3093,126.9056 L-343.3192,126.9661 L-343.3280,127.0267 L-343.3357,127.0875 L-343.3424,127.1484 L-343.3481,127.2094 L-343.3526,127.2705 L-343.3561,127.3316 L-343.3585,127.3928 L-343.3598,127.4541 L-343.3601,127.5153 L-343.3593,127.5766 L-343.3574,127.6378 L-343.3545,127.6990 L-343.3505,127.7601 L-343.3454,127.8211 L-343.3392,127.8821 L-343.3320,127.9429 L-343.3237,128.0036 L-343.3144,128.0642 L-343.3040,128.1245 L-343.2925,128.1847 L-343.2800,128.2447 L-343.2664,128.3044 L-343.2519,128.3639 L-343.2362,128.4231 L-343.2195,128.4821 L-343.2018,128.5407 L-343.1831,128.5990 L-343.1634,128.6570 L-343.1426,128.7146 L-343.1209,128.7719 L-343.0981,128.8288 L-343.0743,128.8852 L-343.0496,128.9413 L-343.0239,128.9969 L-342.9972,129.0520 L-342.9696,129.1067 L-342.9410,129.1609 L-342.9114,129.2145 L-342.8810,129.2677 L-342.8496,129.3203 L-342.8173,129.3723 L-342.7840,129.4238 L-342.7499,129.4746 L-342.7149,129.5249 L-342.6790,129.5746 L-342.6423,129.6236 L-342.6047,129.6719 L-342.5663,129.7196 L-342.5270,129.7667 L-342.4869,129.8130 L-342.4461,129.8586 L-342.4044,129.9035 L-342.3619,129.9477 L-342.3187,129.9911 L-342.2747,130.0337 L-342.2300,130.0756 L-342.1846,130.1167 L-342.1384,130.1569 L-342.0916,130.1964 L-342.0441,130.2350 L-341.9959,130.2728 L-341.9470,130.3098 L-341.8975,130.3459 L-341.8474,130.3811 L-341.7967,130.4155 L-341.7454,130.4489 L-341.6935,130.4814 L-341.6410,130.5131 L-341.5880,130.5438 L-341.5345,130.5735 L-341.4804,130.6024 L-341.4259,130.6303 L-341.3708,130.6572 L-341.3154,130.6831 L-341.2594,130.7081 L-341.2031,130.7321 L-341.1463,130.7551 L-341.0891,130.7771 L-341.0316,130.7981 L-340.9737,130.8181 L-340.9154,130.8371 L-340.8569,130.8551 L-340.7980,130.8720 L-340.7389,130.8879 L-340.6794,130.9028 L-340.6198,130.9166 L-340.5598,130.9293 L-340.4997,130.9411 L-340.4394,130.9517 L-340.3789,130.9613 L-340.3182,130.9699 L-340.2575,130.9774 L-340.1965,130.9838 L-340.1355,130.9892 L-340.0744,130.9934 L-340.0132,130.9967 L-339.9520,130.9988 L-339.8908,130.9999 L-339.8295,130.9999 L-339.7683,130.9988 L-339.7070,130.9967 L-339.6459,130.9934 L-339.5848,130.9892 L-339.5237,130.9838 L-339.4628,130.9774 L-339.4020,130.9699 L-339.3414,130.9613 L-339.2809,130.9517 L-339.2206,130.9411 L-339.1604,130.9293 L-339.1005,130.9166 L-339.0408,130.9028 L-338.9814,130.8879 L-338.9223,130.8720 L-338.8634,130.8551 L-338.8048,130.8371 L-338.7466,130.8181 L-338.6887,130.7981 L-338.6311,130.7771 L-338.5740,130.7551 L-338.5172,130.7321 L-338.4609,130.7081 L-338.4049,130.6831 L-338.3494,130.6572 L-338.2944,130.6303 L-338.2399,130.6024 L-338.1858,130.5735 L-338.1323,130.5438 L-338.0793,130.5131 L-338.0268,130.4814 L-337.9749,130.4489 L-337.9236,130.4155 L-337.8729,130.3811 L-337.8228,130.3459 L-337.7733,130.3098 L-337.7244,130.2728 L-337.6762,130.2350 L-337.6287,130.1964 L-337.5818,130.1569 L-337.5357,130.1167 L-337.4902,130.0756 L-337.4455,130.0337 L-337.4016,129.9911 L-337.3583,129.9477 L-337.3159,129.9035 L-337.2742,129.8586 L-337.2333,129.8130 L-337.1933,129.7667 L-337.1540,129.7196 L-337.1156,129.6719 L-337.0780,129.6236 L-337.0412,129.5746 L-337.0054,129.5249 L-336.9704,129.4746 L-336.9362,129.4238 L-336.9030,129.3723 L-336.8707,129.3203 L-336.8393,129.2677 L-336.8088,129.2145 L-336.7793,129.1609 L-336.7507,129.1067 L-336.7231,129.0520 L-336.6964,128.9969 L-336.6707,128.9413 L-336.6459,128.8852 L-336.6222,128.8288 L-336.5994,128.7719 L-336.5777,128.7146 L-336.5569,128.6570 L-336.5372,128.5990 L-336.5184,128.5407 L-336.5007,128.4821 L-336.4841,128.4231 L-336.4684,128.3639 L-336.4538,128.3044 L-336.4403,128.2447 L-336.4278,128.1847 L-336.4163,128.1245 L-336.4059,128.0642 L-336.3966,128.0036 L-336.3883,127.9429 L-336.3811,127.8821 L-336.3749,127.8211 L-336.3698,127.7601 L-336.3658,127.6990 L-336.3629,127.6378 L-336.3610,127.5766 L-336.3602,127.5153 L-336.3604,127.4541 L-336.3618,127.3928 L-336.3642,127.3316 L-336.3677,127.2705 L-336.3722,127.2094 L-336.3778,127.1484 L-336.3845,127.0875 L-336.3923,127.0267 L-336.4011,126.9661 L-336.4110,126.9056 L-336.4219,126.8454 L-336.4339,126.7853 L-336.4469,126.7254 L-336.4610,126.6658 L-336.4761,126.6065 L-336.4923,126.5474 L-336.5095,126.4886 L-336.5277,126.4301 L-336.5469,126.3719 L-336.5672,126.3141 L-336.5884,126.2567 L-336.6107,126.1996 L-336.6339,126.1429 L-336.6582,126.0867 L-336.6834,126.0309 L-336.7096,125.9755 L-336.7368,125.9206 L-336.7649,125.8662 L-336.7940,125.8123 L-336.8240,125.7588 L-336.8549,125.7060 L-336.8868,125.6537 L-336.9195,125.6019 L-336.9532,125.5507 L-336.9878,125.5002 L-337.0232,125.4502 L-337.0595,125.4009 L-337.0967,125.3522 L-337.1347,125.3041 L-337.1735,125.2568 L-337.2132,125.2101 L-337.2537,125.1641 L-337.2950,125.1189 L-337.3370,125.0743 L-337.3799,125.0305 L-337.4235,124.9875 L-337.4678,124.9453 L-337.5129,124.9038 L-337.5587,124.8631 L-337.6052,124.8232 L-337.6524,124.7842 L-337.7002,124.7459 L-337.7488,124.7086 L-337.7979,124.6720 L-337.8477,124.6364 L-337.8982,124.6016 L-337.9492,124.5677 L-338.0008,124.5347 L-338.0530,124.5026 L-338.1057,124.4715 L-338.1590,124.4412 L-338.2128,124.4119 L-338.2671,124.3836 L-338.3219,124.3562 L-338.3771,124.3297 L-338.4328,124.3043 L-338.4890,124.2798 L-338.5455,124.2563 L-338.6025,124.2338 L-338.6599,124.2122 L-338.7176,124.1917 L-338.7757,124.1722 L-338.8341,124.1538 L-338.8928,124.1363 L-338.9518,124.1199 L-339.0111,124.1045 L-339.0707,124.0902 L-339.1305,124.0769 L-339.1905,124.0647 L-339.2507,124.0535 L-339.3111,124.0433 L-339.3717,124.0343 L-339.4324,124.0262 L-339.4933,124.0193 L-339.5542,124.0134 L-339.6153,124.0086 L-339.6765,124.0048 L-339.7377,124.0021 L-339.7989,124.0005 L-339.8601,124.0000"></path>
	<path d="M-321.6783,124.0000 L-321.7396,124.0005 L-321.8008,124.0021 L-321.8620,124.0048 L-321.9231,124.0086 L-321.9842,124.0134 L-322.0452,124.0193 L-322.1060,124.0262 L-322.1668,124.0343 L-322.2274,124.0433 L-322.2878,124.0535 L-322.3480,124.0647 L-322.4080,124.0769 L-322.4678,124.0902 L-322.5274,124.1045 L-322.5867,124.1199 L-322.6457,124.1363 L-322.7044,124.1538 L-322.7628,124.1722 L-322.8209,124.1917 L-322.8786,124.2122 L-322.9359,124.2338 L-322.9929,124.2563 L-323.0495,124.2798 L-323.1056,124.3043 L-323.1613,124.3297 L-323.2166,124.3562 L-323.2714,124.3836 L-323.3257,124.4119 L-323.3795,124.4412 L-323.4327,124.4715 L-323.4855,124.5026 L-323.5377,124.5347 L-323.5893,124.5677 L-323.6403,124.6016 L-323.6907,124.6364 L-323.7405,124.6720 L-323.7897,124.7086 L-323.8382,124.7459 L-323.8861,124.7842 L-323.9333,124.8232 L-323.9798,124.8631 L-324.0256,124.9038 L-324.0707,124.9453 L-324.1150,124.9875 L-324.1586,125.0305 L-324.2014,125.0743 L-324.2435,125.1189 L-324.2848,125.1641 L-324.3253,125.2101 L-324.3649,125.2568 L-324.4038,125.3041 L-324.4418,125.3522 L-324.4790,125.4009 L-324.5153,125.4502 L-324.5507,125.5002 L-324.5853,125.5507 L-324.6189,125.6019 L-324.6517,125.6537 L-324.6836,125.7060 L-324.7145,125.7588 L-324.7445,125.8123 L-324.7736,125.8662 L-324.8017,125.9206 L-324.8289,125.9755 L-324.8551,126.0309 L-324.8803,126.0867 L-324.9045,126.1429 L-324.9278,126.1996 L-324.9500,126.2567 L-324.9713,126.3141 L-324.9916,126.3719 L-325.0108,126.4301 L-325.0290,126.4886 L-325.0462,126.5474 L-325.0623,126.6065 L-325.0775,126.6658 L-325.0915,126.7254 L-325.1046,126.7853 L-325.1166,126.8454 L-325.1275,126.9056 L-325.1374,126.9661 L-325.1462,127.0267 L-325.1539,127.0875 L-325.1606,127.1484 L-325.1662,127.2094 L-325.1708,127.2705 L-325.1743,127.3316 L-325.1767,127.3928 L-325.1780,127.4541 L-325.1783,127.5153 L-325.1775,127.5766 L-325.1756,127.6378 L-325.1727,127.6990 L-325.1686,127.7601 L-325.1636,127.8211 L-325.1574,127.8821 L-325.1502,127.9429 L-325.1419,128.0036 L-325.1326,128.0642 L-325.1222,128.1245 L-325.1107,128.1847 L-325.0982,128.2447 L-325.0846,128.3044 L-325.0700,128.3639 L-325.0544,128.4231 L-325.0377,128.4821 L-325.0200,128.5407 L-325.0013,128.5990 L-324.9816,128.6570 L-324.9608,128.7146 L-324.9390,128.7719 L-324.9163,128.8288 L-324.8925,128.8852 L-324.8678,128.9413 L-324.8421,128.9969 L-324.8154,129.0520 L-324.7878,129.1067 L-324.7592,129.1609 L-324.7296,129.2145 L-324.6991,129.2677 L-324.6678,129.3203 L-324.6354,129.3723 L-324.6022,129.4238 L-324.5681,129.4746 L-324.5331,129.5249 L-324.4972,129.5746 L-324.4605,129.6236 L-324.4229,129.6719 L-324.3845,129.7196 L-324.3452,129.7667 L-324.3051,129.8130 L-324.2642,129.8586 L-324.2226,129.9035 L-324.1801,129.9477 L-324.1369,129.9911 L-324.0929,130.0337 L-324.0482,130.0756 L-324.0028,130.1167 L-323.9566,130.1569 L-323.9098,130.1964 L-323.8622,130.2350 L-323.8140,130.2728 L-323.7652,130.3098 L-323.7157,130.3459 L-323.6656,130.3811 L-323.6149,130.4155 L-323.5635,130.4489 L-323.5116,130.4814 L-323.4592,130.5131 L-323.4062,130.5438 L-323.3526,130.5735 L-323.2986,130.6024 L-323.2440,130.6303 L-323.1890,130.6572 L-323.1335,130.6831 L-323.0776,130.7081 L-323.0213,130.7321 L-322.9645,130.7551 L-322.9073,130.7771 L-322.8498,130.7981 L-322.7919,130.8181 L-322.7336,130.8371 L-322.6751,130.8551 L-322.6162,130.8720 L-322.5570,130.8879 L-322.4976,130.9028 L-322.4379,130.9166 L-322.3780,130.9293 L-322.3179,130.9411 L-322.2576,130.9517 L-322.1971,130.9613 L-322.1364,130.9699 L-322.0756,130.9774 L-322.0147,130.9838 L-321.9537,130.9892 L-321.8926,130.9934 L-321.8314,130.9967 L-321.7702,130.9988 L-321.7089,130.9999 L-321.6477,130.9999 L-321.5864,130.9988 L-321.5252,130.9967 L-321.4641,130.9934 L-321.4030,130.9892 L-321.3419,130.9838 L-321.2810,130.9774 L-321.2202,130.9699 L-321.1596,130.9613 L-321.0991,130.9517 L-321.0387,130.9411 L-320.9786,130.9293 L-320.9187,130.9166 L-320.8590,130.9028 L-320.7996,130.8879 L-320.7404,130.8720 L-320.6816,130.8551 L-320.6230,130.8371 L-320.5648,130.8181 L-320.5069,130.7981 L-320.4493,130.7771 L-320.3922,130.7551 L-320.3354,130.7321 L-320.2790,130.7081 L-320.2231,130.6831 L-320.1676,130.6572 L-320.1126,130.6303 L-320.0581,130.6024 L-320.0040,130.5735 L-319.9505,130.5438 L-319.8975,130.5131 L-319.8450,130.4814 L-319.7931,130.4489 L-319.7418,130.4155 L-319.6911,130.3811 L-319.6409,130.3459 L-319.5915,130.3098 L-319.5426,130.2728 L-319.4944,130.2350 L-319.4469,130.1964 L-319.4000,130.1569 L-319.3539,130.1167 L-319.3084,130.0756 L-319.2637,130.0337 L-319.2197,129.9911 L-319.1765,129.9477 L-319.1341,129.9035 L-319.0924,129.8586 L-319.0515,129.8130 L-319.0114,129.7667 L-318.9722,129.7196 L-318.9337,129.6719 L-318.8962,129.6236 L-318.8594,129.5746 L-318.8235,129.5249 L-318.7885,129.4746 L-318.7544,129.4238 L-318.7212,129.3723 L-318.6889,129.3203 L-318.6575,129.2677 L-318.6270,129.2145 L-318.5975,129.1609 L-318.5689,129.1067 L-318.5412,129.0520 L-318.5146,128.9969 L-318.4889,128.9413 L-318.4641,128.8852 L-318.4404,128.8288 L-318.4176,128.7719 L-318.3958,128.7146 L-318.3751,128.6570 L-318.3553,128.5990 L-318.3366,128.5407 L-318.3189,128.4821 L-318.3022,128.4231 L-318.2866,128.3639 L-318.2720,128.3044 L-318.2585,128.2447 L-318.2459,128.1847 L-318.2345,128.1245 L-318.2241,128.0642 L-318.2147,128.0036 L-318.2065,127.9429 L-318.1992,127.8821 L-318.1931,127.8211 L-318.1880,127.7601 L-318.1840,127.6990 L-318.1810,127.6378 L-318.1792,127.5766 L-318.1784,127.5153 L-318.1786,127.4541 L-318.1800,127.3928 L-318.1824,127.3316 L-318.1859,127.2705 L-318.1904,127.2094 L-318.1960,127.1484 L-318.2027,127.0875 L-318.2105,127.0267 L-318.2193,126.9661 L-318.2292,126.9056 L-318.2401,126.8454 L-318.2521,126.7853 L-318.2651,126.7254 L-318.2792,126.6658 L-318.2943,126.6065 L-318.3105,126.5474 L-318.3276,126.4886 L-318.3459,126.4301 L-318.3651,126.3719 L-318.3853,126.3141 L-318.4066,126.2567 L-318.4289,126.1996 L-318.4521,126.1429 L-318.4764,126.0867 L-318.5016,126.0309 L-318.5278,125.9755 L-318.5549,125.9206 L-318.5831,125.8662 L-318.6121,125.8123 L-318.6421,125.7588 L-318.6731,125.7060 L-318.7049,125.6537 L-318.7377,125.6019 L-318.7714,125.5507 L-318.8059,125.5002 L-318.8414,125.4502 L-318.8777,125.4009 L-318.9148,125.3522 L-318.9529,125.3041 L-318.9917,125.2568 L-319.0314,125.2101 L-319.0719,125.1641 L-319.1131,125.1189 L-319.1552,125.0743 L-319.1980,125.0305 L-319.2416,124.9875 L-319.2860,124.9453 L-319.3311,124.9038 L-319.3769,124.8631 L-319.4234,124.8232 L-319.4705,124.7842 L-319.5184,124.7459 L-319.5669,124.7086 L-319.6161,124.6720 L-319.6659,124.6364 L-319.7164,124.6016 L-319.7674,124.5677 L-319.8190,124.5347 L-319.8712,124.5026 L-319.9239,124.4715 L-319.9772,124.4412 L-320.0310,124.4119 L-320.0853,124.3836 L-320.1400,124.3562 L-320.1953,124.3297 L-320.2510,124.3043 L-320.3072,124.2798 L-320.3637,124.2563 L-320.4207,124.2338 L-320.4781,124.2122 L-320.5358,124.1917 L-320.5938,124.1722 L-320.6523,124.1538 L-320.7110,124.1363 L-320.7700,124.1199 L-320.8293,124.1045 L-320.8888,124.0902 L-320.9486,124.0769 L-321.0087,124.0647 L-321.0689,124.0535 L-321.1293,124.0433 L-321.1899,124.0343 L-321.2506,124.0262 L-321.3115,124.0193 L-321.3724,124.0134 L-321.4335,124.0086 L-321.4946,124.0048 L-321.5558,124.0021 L-321.6171,124.0005 L-321.6783,124.0000"></path>
	<path d="M-303.4965,124.0000 L-303.5578,124.0005 L-303.6190,124.0021 L-303.6802,124.0048 L-303.7413,124.0086 L-303.8024,124.0134 L-303.8634,124.0193 L-303.9242,124.0262 L-303.9850,124.0343 L-304.0455,124.0433 L-304.1059,124.0535 L-304.1662,124.0647 L-304.2262,124.0769 L-304.2860,124.0902 L-304.3455,124.1045 L-304.4048,124.1199 L-304.4639,124.1363 L-304.5226,124.1538 L-304.5810,124.1722 L-304.6390,124.1917 L-304.6968,124.2122 L-304.7541,124.2338 L-304.8111,124.2563 L-304.8677,124.2798 L-304.9238,124.3043 L-304.9795,124.3297 L-305.0348,124.3562 L-305.0896,124.3836 L-305.1439,124.4119 L-305.1977,124.4412 L-305.2509,124.4715 L-305.3037,124.5026 L-305.3558,124.5347 L-305.4074,124.5677 L-305.4585,124.6016 L-305.5089,124.6364 L-305.5587,124.6720 L-305.6079,124.7086 L-305.6564,124.7459 L-305.7043,124.7842 L-305.7515,124.8232 L-305.7980,124.8631 L-305.8438,124.9038 L-305.8888,124.9453 L-305.9332,124.9875 L-305.9768,125.0305 L-306.0196,125.0743 L-306.0617,125.1189 L-306.1030,125.1641 L-306.1434,125.2101 L-306.1831,125.2568 L-306.2220,125.3041 L-306.2600,125.3522 L-306.2971,125.4009 L-306.3335,125.4502 L-306.3689,125.5002 L-306.4035,125.5507 L-306.4371,125.6019 L-306.4699,125.6537 L-306.5017,125.7060 L-306.5327,125.7588 L-306.5627,125.8123 L-306.5918,125.8662 L-306.6199,125.9206 L-306.6470,125.9755 L-306.6732,126.0309 L-306.6985,126.0867 L-306.7227,126.1429 L-306.7460,126.1996 L-306.7682,126.2567 L-306.7895,126.3141 L-306.8097,126.3719 L-306.8290,126.4301 L-306.8472,126.4886 L-306.8644,126.5474 L-306.8805,126.6065 L-306.8956,126.6658 L-306.9097,126.7254 L-306.9228,126.7853 L-306.9347,126.8454 L-306.9457,126.9056 L-306.9555,126.9661 L-306.9644,127.0267 L-306.9721,127.0875 L-306.9788,127.1484 L-306.9844,127.2094 L-306.9890,127.2705 L-306.9925,127.3316 L-306.9949,127.3928 L-306.9962,127.4541 L-306.9965,127.5153 L-306.9957,127.5766 L-306.9938,127.6378 L-306.9908,127.6990 L-306.9868,127.7601 L-306.9817,127.8211 L-306.9756,127.8821 L-306.9684,127.9429 L-306.9601,128.0036 L-306.9507,128.0642 L-306.9403,128.1245 L-306.9289,128.1847 L-306.9164,128.2447 L-306.9028,128.3044 L-306.8882,128.3639 L-306.8726,128.4231 L-306.8559,128.4821 L-306.8382,128.5407 L-306.8195,128.5990 L-306.7997,128.6570 L-306.7790,128.7146 L-306.7572,128.7719 L-306.7345,128.8288 L-306.7107,128.8852 L-306.6860,128.9413 L-306.6603,128.9969 L-306.6336,129.0520 L-306.6059,129.1067 L-306.5773,129.1609 L-306.5478,129.2145 L-306.5173,129.2677 L-306.4859,129.3203 L-306.4536,129.3723 L-306.4204,129.4238 L-306.3863,129.4746 L-306.3513,129.5249 L-306.3154,129.5746 L-306.2787,129.6236 L-306.2411,129.6719 L-306.2026,129.7196 L-306.1634,129.7667 L-306.1233,129.8130 L-306.0824,129.8586 L-306.0408,129.9035 L-305.9983,129.9477 L-305.9551,129.9911 L-305.9111,130.0337 L-305.8664,130.0756 L-305.8210,130.1167 L-305.7748,130.1569 L-305.7280,130.1964 L-305.6804,130.2350 L-305.6322,130.2728 L-305.5834,130.3098 L-305.5339,130.3459 L-305.4838,130.3811 L-305.4330,130.4155 L-305.3817,130.4489 L-305.3298,130.4814 L-305.2774,130.5131 L-305.2244,130.5438 L-305.1708,130.5735 L-305.1168,130.6024 L-305.0622,130.6303 L-305.0072,130.6572 L-304.9517,130.6831 L-304.8958,130.7081 L-304.8394,130.7321 L-304.7827,130.7551 L-304.7255,130.7771 L-304.6680,130.7981 L-304.6101,130.8181 L-304.5518,130.8371 L-304.4932,130.8551 L-304.4344,130.8720 L-304.3752,130.8879 L-304.3158,130.9028 L-304.2561,130.9166 L-304.1962,130.9293 L-304.1361,130.9411 L-304.0758,130.9517 L-304.0153,130.9613 L-303.9546,130.9699 L-303.8938,130.9774 L-303.8329,130.9838 L-303.7719,130.9892 L-303.7108,130.9934 L-303.6496,130.9967 L-303.5884,130.9988 L-303.5271,130.9999 L-303.4659,130.9999 L-303.4046,130.9988 L-303.3434,130.9967 L-303.2822,130.9934 L-303.2211,130.9892 L-303.1601,130.9838 L-303.0992,130.9774 L-303.0384,130.9699 L-302.9777,130.9613 L-302.9172,130.9517 L-302.8569,130.9411 L-302.7968,130.9293 L-302.7369,130.9166 L-302.6772,130.9028 L-302.6178,130.8879 L-302.5586,130.8720 L-302.4998,130.8551 L-302.4412,130.8371 L-302.3830,130.8181 L-302.3251,130.7981 L-302.2675,130.7771 L-302.2103,130.7551 L-302.1536,130.7321 L-302.0972,130.7081 L-302.0413,130.6831 L-301.9858,130.6572 L-301.9308,130.6303 L-301.8762,130.6024 L-301.8222,130.5735 L-301.7687,130.5438 L-301.7156,130.5131 L-301.6632,130.4814 L-301.6113,130.4489 L-301.5600,130.4155 L-301.5092,130.3811 L-301.4591,130.3459 L-301.4096,130.3098 L-301.3608,130.2728 L-301.3126,130.2350 L-301.2650,130.1964 L-301.2182,130.1569 L-301.1720,130.1167 L-301.1266,130.0756 L-301.0819,130.0337 L-301.0379,129.9911 L-300.9947,129.9477 L-300.9523,129.9035 L-300.9106,129.8586 L-300.8697,129.8130 L-300.8296,129.7667 L-300.7904,129.7196 L-300.7519,129.6719 L-300.7143,129.6236 L-300.6776,129.5746 L-300.6417,129.5249 L-300.6067,129.4746 L-300.5726,129.4238 L-300.5394,129.3723 L-300.5071,129.3203 L-300.4757,129.2677 L-300.4452,129.2145 L-300.4157,129.1609 L-300.3871,129.1067 L-300.3594,129.0520 L-300.3327,128.9969 L-300.3070,128.9413 L-300.2823,128.8852 L-300.2585,128.8288 L-300.2358,128.7719 L-300.2140,128.7146 L-300.1933,128.6570 L-300.1735,128.5990 L-300.1548,128.5407 L-300.1371,128.4821 L-300.1204,128.4231 L-300.1048,128.3639 L-300.0902,128.3044 L-300.0766,128.2447 L-300.0641,128.1847 L-300.0527,128.1245 L-300.0423,128.0642 L-300.0329,128.0036 L-300.0246,127.9429 L-300.0174,127.8821 L-300.0113,127.8211 L-300.0062,127.7601 L-300.0022,127.6990 L-299.9992,127.6378 L-299.9973,127.5766 L-299.9965,127.5153 L-299.9968,127.4541 L-299.9981,127.3928 L-300.0006,127.3316 L-300.0040,127.2705 L-300.0086,127.2094 L-300.0142,127.1484 L-300.0209,127.0875 L-300.0287,127.0267 L-300.0375,126.9661 L-300.0473,126.9056 L-300.0583,126.8454 L-300.0703,126.7853 L-300.0833,126.7254 L-300.0974,126.6658 L-300.1125,126.6065 L-300.1286,126.5474 L-300.1458,126.4886 L-300.1640,126.4301 L-300.1833,126.3719 L-300.2035,126.3141 L-300.2248,126.2567 L-300.2470,126.1996 L-300.2703,126.1429 L-300.2945,126.0867 L-300.3198,126.0309 L-300.3460,125.9755 L-300.3731,125.9206 L-300.4012,125.8662 L-300.4303,125.8123 L-300.4603,125.7588 L-300.4913,125.7060 L-300.5231,125.6537 L-300.5559,125.6019 L-300.5896,125.5507 L-300.6241,125.5002 L-300.6596,125.4502 L-300.6959,125.4009 L-300.7330,125.3522 L-300.7710,125.3041 L-300.8099,125.2568 L-300.8496,125.2101 L-300.8900,125.1641 L-300.9313,125.1189 L-300.9734,125.0743 L-301.0162,125.0305 L-301.0598,124.9875 L-301.1042,124.9453 L-301.1492,124.9038 L-301.1950,124.8631 L-301.2415,124.8232 L-301.2887,124.7842 L-301.3366,124.7459 L-301.3851,124.7086 L-301.4343,124.6720 L-301.4841,124.6364 L-301.5345,124.6016 L-301.5856,124.5677 L-301.6372,124.5347 L-301.6894,124.5026 L-301.7421,124.4715 L-301.7954,124.4412 L-301.8491,124.4119 L-301.9034,124.3836 L-301.9582,124.3562 L-302.0135,124.3297 L-302.0692,124.3043 L-302.1253,124.2798 L-302.1819,124.2563 L-302.2389,124.2338 L-302.2962,124.2122 L-302.3540,124.1917 L-302.4120,124.1722 L-302.4704,124.1538 L-302.5292,124.1363 L-302.5882,124.1199 L-302.6475,124.1045 L-302.7070,124.0902 L-302.7668,124.0769 L-302.8268,124.0647 L-302.8871,124.0535 L-302.9475,124.0433 L-303.0080,124.0343 L-303.0688,124.0262 L-303.1296,124.0193 L-303.1906,124.0134 L-303.2517,124.0086 L-303.3128,124.0048 L-303.3740,124.0021 L-303.4352,124.0005 L-303.4965,124.0000"></path>
	<path d="M-285.3147,124.0000 L-285.3759,124.0005 L-285.4372,124.0021 L-285.4984,124.0048 L-285.5595,124.0086 L-285.6206,124.0134 L-285.6816,124.0193 L-285.7424,124.0262 L-285.8031,124.0343 L-285.8637,124.0433 L-285.9241,124.0535 L-285.9844,124.0647 L-286.0444,124.0769 L-286.1042,124.0902 L-286.1637,124.1045 L-286.2230,124.1199 L-286.2820,124.1363 L-286.3408,124.1538 L-286.3992,124.1722 L-286.4572,124.1917 L-286.5150,124.2122 L-286.5723,124.2338 L-286.6293,124.2563 L-286.6858,124.2798 L-286.7420,124.3043 L-286.7977,124.3297 L-286.8530,124.3562 L-286.9077,124.3836 L-286.9620,124.4119 L-287.0158,124.4412 L-287.0691,124.4715 L-287.1218,124.5026 L-287.1740,124.5347 L-287.2256,124.5677 L-287.2767,124.6016 L-287.3271,124.6364 L-287.3769,124.6720 L-287.4261,124.7086 L-287.4746,124.7459 L-287.5225,124.7842 L-287.5697,124.8232 L-287.6162,124.8631 L-287.6619,124.9038 L-287.7070,124.9453 L-287.7514,124.9875 L-287.7950,125.0305 L-287.8378,125.0743 L-287.8799,125.1189 L-287.9212,125.1641 L-287.9616,125.2101 L-288.0013,125.2568 L-288.0401,125.3041 L-288.0782,125.3522 L-288.1153,125.4009 L-288.1516,125.4502 L-288.1871,125.5002 L-288.2216,125.5507 L-288.2553,125.6019 L-288.2881,125.6537 L-288.3199,125.7060 L-288.3509,125.7588 L-288.3809,125.8123 L-288.4099,125.8662 L-288.4381,125.9206 L-288.4652,125.9755 L-288.4914,126.0309 L-288.5166,126.0867 L-288.5409,126.1429 L-288.5641,126.1996 L-288.5864,126.2567 L-288.6077,126.3141 L-288.6279,126.3719 L-288.6471,126.4301 L-288.6654,126.4886 L-288.6826,126.5474 L-288.6987,126.6065 L-288.7138,126.6658 L-288.7279,126.7254 L-288.7409,126.7853 L-288.7529,126.8454 L-288.7639,126.9056 L-288.7737,126.9661 L-288.7825,127.0267 L-288.7903,127.0875 L-288.7970,127.1484 L-288.8026,127.2094 L-288.8071,127.2705 L-288.8106,127.3316 L-288.8130,127.3928 L-288.8144,127.4541 L-288.8147,127.5153 L-288.8138,127.5766 L-288.8120,127.6378 L-288.8090,127.6990 L-288.8050,127.7601 L-288.7999,127.8211 L-288.7938,127.8821 L-288.7865,127.9429 L-288.7783,128.0036 L-288.7689,128.0642 L-288.7585,128.1245 L-288.7471,128.1847 L-288.7346,128.2447 L-288.7210,128.3044 L-288.7064,128.3639 L-288.6908,128.4231 L-288.6741,128.4821 L-288.6564,128.5407 L-288.6377,128.5990 L-288.6179,128.6570 L-288.5972,128.7146 L-288.5754,128.7719 L-288.5526,128.8288 L-288.5289,128.8852 L-288.5042,128.9413 L-288.4784,128.9969 L-288.4518,129.0520 L-288.4241,129.1067 L-288.3955,129.1609 L-288.3660,129.2145 L-288.3355,129.2677 L-288.3041,129.3203 L-288.2718,129.3723 L-288.2386,129.4238 L-288.2045,129.4746 L-288.1695,129.5249 L-288.1336,129.5746 L-288.0969,129.6236 L-288.0593,129.6719 L-288.0208,129.7196 L-287.9816,129.7667 L-287.9415,129.8130 L-287.9006,129.8586 L-287.8589,129.9035 L-287.8165,129.9477 L-287.7733,129.9911 L-287.7293,130.0337 L-287.6846,130.0756 L-287.6391,130.1167 L-287.5930,130.1569 L-287.5461,130.1964 L-287.4986,130.2350 L-287.4504,130.2728 L-287.4016,130.3098 L-287.3521,130.3459 L-287.3019,130.3811 L-287.2512,130.4155 L-287.1999,130.4489 L-287.1480,130.4814 L-287.0955,130.5131 L-287.0425,130.5438 L-286.9890,130.5735 L-286.9350,130.6024 L-286.8804,130.6303 L-286.8254,130.6572 L-286.7699,130.6831 L-286.7140,130.7081 L-286.6576,130.7321 L-286.6008,130.7551 L-286.5437,130.7771 L-286.4861,130.7981 L-286.4282,130.8181 L-286.3700,130.8371 L-286.3114,130.8551 L-286.2526,130.8720 L-286.1934,130.8879 L-286.1340,130.9028 L-286.0743,130.9166 L-286.0144,130.9293 L-285.9543,130.9411 L-285.8939,130.9517 L-285.8334,130.9613 L-285.7728,130.9699 L-285.7120,130.9774 L-285.6511,130.9838 L-285.5901,130.9892 L-285.5289,130.9934 L-285.4678,130.9967 L-285.4066,130.9988 L-285.3453,130.9999 L-285.2841,130.9999 L-285.2228,130.9988 L-285.1616,130.9967 L-285.1004,130.9934 L-285.0393,130.9892 L-284.9783,130.9838 L-284.9174,130.9774 L-284.8566,130.9699 L-284.7959,130.9613 L-284.7354,130.9517 L-284.6751,130.9411 L-284.6150,130.9293 L-284.5551,130.9166 L-284.4954,130.9028 L-284.4360,130.8879 L-284.3768,130.8720 L-284.3179,130.8551 L-284.2594,130.8371 L-284.2011,130.8181 L-284.1432,130.7981 L-284.0857,130.7771 L-284.0285,130.7551 L-283.9718,130.7321 L-283.9154,130.7081 L-283.8595,130.6831 L-283.8040,130.6572 L-283.7490,130.6303 L-283.6944,130.6024 L-283.6404,130.5735 L-283.5868,130.5438 L-283.5338,130.5131 L-283.4814,130.4814 L-283.4295,130.4489 L-283.3782,130.4155 L-283.3274,130.3811 L-283.2773,130.3459 L-283.2278,130.3098 L-283.1790,130.2728 L-283.1308,130.2350 L-283.0832,130.1964 L-283.0364,130.1569 L-282.9902,130.1167 L-282.9448,130.0756 L-282.9001,130.0337 L-282.8561,129.9911 L-282.8129,129.9477 L-282.7704,129.9035 L-282.7288,129.8586 L-282.6879,129.8130 L-282.6478,129.7667 L-282.6085,129.7196 L-282.5701,129.6719 L-282.5325,129.6236 L-282.4958,129.5746 L-282.4599,129.5249 L-282.4249,129.4746 L-282.3908,129.4238 L-282.3576,129.3723 L-282.3253,129.3203 L-282.2939,129.2677 L-282.2634,129.2145 L-282.2338,129.1609 L-282.2053,129.1067 L-282.1776,129.0520 L-282.1509,128.9969 L-282.1252,128.9413 L-282.1005,128.8852 L-282.0767,128.8288 L-282.0540,128.7719 L-282.0322,128.7146 L-282.0115,128.6570 L-281.9917,128.5990 L-281.9730,128.5407 L-281.9553,128.4821 L-281.9386,128.4231 L-281.9230,128.3639 L-281.9084,128.3044 L-281.8948,128.2447 L-281.8823,128.1847 L-281.8709,128.1245 L-281.8605,128.0642 L-281.8511,128.0036 L-281.8428,127.9429 L-281.8356,127.8821 L-281.8294,127.8211 L-281.8244,127.7601 L-281.8203,127.6990 L-281.8174,127.6378 L-281.8155,127.5766 L-281.8147,127.5153 L-281.8150,127.4541 L-281.8163,127.3928 L-281.8187,127.3316 L-281.8222,127.2705 L-281.8268,127.2094 L-281.8324,127.1484 L-281.8391,127.0875 L-281.8468,127.0267 L-281.8556,126.9661 L-281.8655,126.9056 L-281.8765,126.8454 L-281.8884,126.7853 L-281.9015,126.7254 L-281.9155,126.6658 L-281.9307,126.6065 L-281.9468,126.5474 L-281.9640,126.4886 L-281.9822,126.4301 L-282.0015,126.3719 L-282.0217,126.3141 L-282.0430,126.2567 L-282.0652,126.1996 L-282.0885,126.1429 L-282.1127,126.0867 L-282.1379,126.0309 L-282.1641,125.9755 L-282.1913,125.9206 L-282.2194,125.8662 L-282.2485,125.8123 L-282.2785,125.7588 L-282.3094,125.7060 L-282.3413,125.6537 L-282.3741,125.6019 L-282.4077,125.5507 L-282.4423,125.5002 L-282.4777,125.4502 L-282.5140,125.4009 L-282.5512,125.3522 L-282.5892,125.3041 L-282.6281,125.2568 L-282.6677,125.2101 L-282.7082,125.1641 L-282.7495,125.1189 L-282.7916,125.0743 L-282.8344,125.0305 L-282.8780,124.9875 L-282.9223,124.9453 L-282.9674,124.9038 L-283.0132,124.8631 L-283.0597,124.8232 L-283.1069,124.7842 L-283.1548,124.7459 L-283.2033,124.7086 L-283.2525,124.6720 L-283.3023,124.6364 L-283.3527,124.6016 L-283.4037,124.5677 L-283.4554,124.5347 L-283.5075,124.5026 L-283.5603,124.4715 L-283.6135,124.4412 L-283.6673,124.4119 L-283.7216,124.3836 L-283.7764,124.3562 L-283.8317,124.3297 L-283.8874,124.3043 L-283.9435,124.2798 L-284.0001,124.2563 L-284.0571,124.2338 L-284.1144,124.2122 L-284.1721,124.1917 L-284.2302,124.1722 L-284.2886,124.1538 L-284.3473,124.1363 L-284.4064,124.1199 L-284.4656,124.1045 L-284.5252,124.0902 L-284.5850,124.0769 L-284.6450,124.0647 L-284.7052,124.0535 L-284.7657,124.0433 L-284.8262,124.0343 L-284.8870,124.0262 L-284.9478,124.0193 L-285.0088,124.0134 L-285.0699,124.0086 L-285.1310,124.0048 L-285.1922,124.0021 L-285.2534,124.0005 L-285.3147,124.0000"></path>
	<path d="M-267.1329,124.0000 L-267.1941,124.0005 L-267.2554,124.0021 L-267.3166,124.0048 L-267.3777,124.0086 L-267.4388,124.0134 L-267.4997,124.0193 L-267.5606,124.0262 L-267.6213,124.0343 L-267.6819,124.0433 L-267.7423,124.0535 L-267.8025,124.0647 L-267.8626,124.0769 L-267.9224,124.0902 L-267.9819,124.1045 L-268.0412,124.1199 L-268.1002,124.1363 L-268.1589,124.1538 L-268.2173,124.1722 L-268.2754,124.1917 L-268.3331,124.2122 L-268.3905,124.2338 L-268.4475,124.2563 L-268.5040,124.2798 L-268.5602,124.3043 L-268.6159,124.3297 L-268.6711,124.3562 L-268.7259,124.3836 L-268.7802,124.4119 L-268.8340,124.4412 L-268.8873,124.4715 L-268.9400,124.5026 L-268.9922,124.5347 L-269.0438,124.5677 L-269.0948,124.6016 L-269.1453,124.6364 L-269.1951,124.6720 L-269.2442,124.7086 L-269.2928,124.7459 L-269.3406,124.7842 L-269.3878,124.8232 L-269.4343,124.8631 L-269.4801,124.9038 L-269.5252,124.9453 L-269.5696,124.9875 L-269.6131,125.0305 L-269.6560,125.0743 L-269.6981,125.1189 L-269.7393,125.1641 L-269.7798,125.2101 L-269.8195,125.2568 L-269.8583,125.3041 L-269.8963,125.3522 L-269.9335,125.4009 L-269.9698,125.4502 L-270.0053,125.5002 L-270.0398,125.5507 L-270.0735,125.6019 L-270.1063,125.6537 L-270.1381,125.7060 L-270.1690,125.7588 L-270.1991,125.8123 L-270.2281,125.8662 L-270.2562,125.9206 L-270.2834,125.9755 L-270.3096,126.0309 L-270.3348,126.0867 L-270.3591,126.1429 L-270.3823,126.1996 L-270.4046,126.2567 L-270.4258,126.3141 L-270.4461,126.3719 L-270.4653,126.4301 L-270.4835,126.4886 L-270.5007,126.5474 L-270.5169,126.6065 L-270.5320,126.6658 L-270.5461,126.7254 L-270.5591,126.7853 L-270.5711,126.8454 L-270.5820,126.9056 L-270.5919,126.9661 L-270.6007,127.0267 L-270.6085,127.0875 L-270.6152,127.1484 L-270.6208,127.2094 L-270.6253,127.2705 L-270.6288,127.3316 L-270.6312,127.3928 L-270.6326,127.4541 L-270.6328,127.5153 L-270.6320,127.5766 L-270.6302,127.6378 L-270.6272,127.6990 L-270.6232,127.7601 L-270.6181,127.8211 L-270.6119,127.8821 L-270.6047,127.9429 L-270.5964,128.0036 L-270.5871,128.0642 L-270.5767,128.1245 L-270.5652,128.1847 L-270.5527,128.2447 L-270.5392,128.3044 L-270.5246,128.3639 L-270.5089,128.4231 L-270.4923,128.4821 L-270.4746,128.5407 L-270.4558,128.5990 L-270.4361,128.6570 L-270.4153,128.7146 L-270.3936,128.7719 L-270.3708,128.8288 L-270.3471,128.8852 L-270.3223,128.9413 L-270.2966,128.9969 L-270.2699,129.0520 L-270.2423,129.1067 L-270.2137,129.1609 L-270.1842,129.2145 L-270.1537,129.2677 L-270.1223,129.3203 L-270.0900,129.3723 L-270.0568,129.4238 L-270.0226,129.4746 L-269.9876,129.5249 L-269.9518,129.5746 L-269.9150,129.6236 L-269.8774,129.6719 L-269.8390,129.7196 L-269.7998,129.7667 L-269.7597,129.8130 L-269.7188,129.8586 L-269.6771,129.9035 L-269.6347,129.9477 L-269.5914,129.9911 L-269.5475,130.0337 L-269.5028,130.0756 L-269.4573,130.1167 L-269.4112,130.1569 L-269.3643,130.1964 L-269.3168,130.2350 L-269.2686,130.2728 L-269.2197,130.3098 L-269.1702,130.3459 L-269.1201,130.3811 L-269.0694,130.4155 L-269.0181,130.4489 L-268.9662,130.4814 L-268.9137,130.5131 L-268.8607,130.5438 L-268.8072,130.5735 L-268.7531,130.6024 L-268.6986,130.6303 L-268.6436,130.6572 L-268.5881,130.6831 L-268.5322,130.7081 L-268.4758,130.7321 L-268.4190,130.7551 L-268.3619,130.7771 L-268.3043,130.7981 L-268.2464,130.8181 L-268.1882,130.8371 L-268.1296,130.8551 L-268.0707,130.8720 L-268.0116,130.8879 L-267.9522,130.9028 L-267.8925,130.9166 L-267.8326,130.9293 L-267.7724,130.9411 L-267.7121,130.9517 L-267.6516,130.9613 L-267.5910,130.9699 L-267.5302,130.9774 L-267.4693,130.9838 L-267.4082,130.9892 L-267.3471,130.9934 L-267.2860,130.9967 L-267.2247,130.9988 L-267.1635,130.9999 L-267.1022,130.9999 L-267.0410,130.9988 L-266.9798,130.9967 L-266.9186,130.9934 L-266.8575,130.9892 L-266.7965,130.9838 L-266.7356,130.9774 L-266.6748,130.9699 L-266.6141,130.9613 L-266.5536,130.9517 L-266.4933,130.9411 L-266.4332,130.9293 L-266.3733,130.9166 L-266.3136,130.9028 L-266.2541,130.8879 L-266.1950,130.8720 L-266.1361,130.8551 L-266.0776,130.8371 L-266.0193,130.8181 L-265.9614,130.7981 L-265.9039,130.7771 L-265.8467,130.7551 L-265.7899,130.7321 L-265.7336,130.7081 L-265.6776,130.6831 L-265.6222,130.6572 L-265.5671,130.6303 L-265.5126,130.6024 L-265.4586,130.5735 L-265.4050,130.5438 L-265.3520,130.5131 L-265.2996,130.4814 L-265.2477,130.4489 L-265.1963,130.4155 L-265.1456,130.3811 L-265.0955,130.3459 L-265.0460,130.3098 L-264.9971,130.2728 L-264.9489,130.2350 L-264.9014,130.1964 L-264.8546,130.1569 L-264.8084,130.1167 L-264.7630,130.0756 L-264.7183,130.0337 L-264.6743,129.9911 L-264.6311,129.9477 L-264.5886,129.9035 L-264.5469,129.8586 L-264.5061,129.8130 L-264.4660,129.7667 L-264.4267,129.7196 L-264.3883,129.6719 L-264.3507,129.6236 L-264.3140,129.5746 L-264.2781,129.5249 L-264.2431,129.4746 L-264.2090,129.4238 L-264.1758,129.3723 L-264.1434,129.3203 L-264.1120,129.2677 L-264.0816,129.2145 L-264.0520,129.1609 L-264.0234,129.1067 L-263.9958,129.0520 L-263.9691,128.9969 L-263.9434,128.9413 L-263.9187,128.8852 L-263.8949,128.8288 L-263.8722,128.7719 L-263.8504,128.7146 L-263.8296,128.6570 L-263.8099,128.5990 L-263.7912,128.5407 L-263.7735,128.4821 L-263.7568,128.4231 L-263.7412,128.3639 L-263.7266,128.3044 L-263.7130,128.2447 L-263.7005,128.1847 L-263.6890,128.1245 L-263.6786,128.0642 L-263.6693,128.0036 L-263.6610,127.9429 L-263.6538,127.8821 L-263.6476,127.8211 L-263.6425,127.7601 L-263.6385,127.6990 L-263.6356,127.6378 L-263.6337,127.5766 L-263.6329,127.5153 L-263.6332,127.4541 L-263.6345,127.3928 L-263.6369,127.3316 L-263.6404,127.2705 L-263.6450,127.2094 L-263.6506,127.1484 L-263.6573,127.0875 L-263.6650,127.0267 L-263.6738,126.9661 L-263.6837,126.9056 L-263.6946,126.8454 L-263.7066,126.7853 L-263.7196,126.7254 L-263.7337,126.6658 L-263.7488,126.6065 L-263.7650,126.5474 L-263.7822,126.4886 L-263.8004,126.4301 L-263.8196,126.3719 L-263.8399,126.3141 L-263.8611,126.2567 L-263.8834,126.1996 L-263.9067,126.1429 L-263.9309,126.0867 L-263.9561,126.0309 L-263.9823,125.9755 L-264.0095,125.9206 L-264.0376,125.8662 L-264.0667,125.8123 L-264.0967,125.7588 L-264.1276,125.7060 L-264.1595,125.6537 L-264.1922,125.6019 L-264.2259,125.5507 L-264.2605,125.5002 L-264.2959,125.4502 L-264.3322,125.4009 L-264.3694,125.3522 L-264.4074,125.3041 L-264.4463,125.2568 L-264.4859,125.2101 L-264.5264,125.1641 L-264.5677,125.1189 L-264.6097,125.0743 L-264.6526,125.0305 L-264.6962,124.9875 L-264.7405,124.9453 L-264.7856,124.9038 L-264.8314,124.8631 L-264.8779,124.8232 L-264.9251,124.7842 L-264.9730,124.7459 L-265.0215,124.7086 L-265.0707,124.6720 L-265.1205,124.6364 L-265.1709,124.6016 L-265.2219,124.5677 L-265.2735,124.5347 L-265.3257,124.5026 L-265.3784,124.4715 L-265.4317,124.4412 L-265.4855,124.4119 L-265.5398,124.3836 L-265.5946,124.3562 L-265.6498,124.3297 L-265.7056,124.3043 L-265.7617,124.2798 L-265.8183,124.2563 L-265.8752,124.2338 L-265.9326,124.2122 L-265.9903,124.1917 L-266.0484,124.1722 L-266.1068,124.1538 L-266.1655,124.1363 L-266.2245,124.1199 L-266.2838,124.1045 L-266.3434,124.0902 L-266.4032,124.0769 L-266.4632,124.0647 L-266.5234,124.0535 L-266.5838,124.0433 L-266.6444,124.0343 L-266.7051,124.0262 L-266.7660,124.0193 L-266.8270,124.0134 L-266.8880,124.0086 L-266.9492,124.0048 L-267.0104,124.0021 L-267.0716,124.0005 L-267.1329,124.0000"></path>
	<path d="M-248.9510,124.0000 L-249.0123,124.0005 L-249.0735,124.0021 L-249.1347,124.0048 L-249.1959,124.0086 L-249.2569,124.0134 L-249.3179,124.0193 L-249.3788,124.0262 L-249.4395,124.0343 L-249.5001,124.0433 L-249.5605,124.0535 L-249.6207,124.0647 L-249.6807,124.0769 L-249.7405,124.0902 L-249.8001,124.1045 L-249.8594,124.1199 L-249.9184,124.1363 L-249.9771,124.1538 L-250.0355,124.1722 L-250.0936,124.1917 L-250.1513,124.2122 L-250.2087,124.2338 L-250.2656,124.2563 L-250.3222,124.2798 L-250.3784,124.3043 L-250.4341,124.3297 L-250.4893,124.3562 L-250.5441,124.3836 L-250.5984,124.4119 L-250.6522,124.4412 L-250.7055,124.4715 L-250.7582,124.5026 L-250.8104,124.5347 L-250.8620,124.5677 L-250.9130,124.6016 L-250.9634,124.6364 L-251.0132,124.6720 L-251.0624,124.7086 L-251.1110,124.7459 L-251.1588,124.7842 L-251.2060,124.8232 L-251.2525,124.8631 L-251.2983,124.9038 L-251.3434,124.9453 L-251.3877,124.9875 L-251.4313,125.0305 L-251.4742,125.0743 L-251.5162,125.1189 L-251.5575,125.1641 L-251.5980,125.2101 L-251.6377,125.2568 L-251.6765,125.3041 L-251.7145,125.3522 L-251.7517,125.4009 L-251.7880,125.4502 L-251.8234,125.5002 L-251.8580,125.5507 L-251.8917,125.6019 L-251.9244,125.6537 L-251.9563,125.7060 L-251.9872,125.7588 L-252.0172,125.8123 L-252.0463,125.8662 L-252.0744,125.9206 L-252.1016,125.9755 L-252.1278,126.0309 L-252.1530,126.0867 L-252.1773,126.1429 L-252.2005,126.1996 L-252.2228,126.2567 L-252.2440,126.3141 L-252.2643,126.3719 L-252.2835,126.4301 L-252.3017,126.4886 L-252.3189,126.5474 L-252.3351,126.6065 L-252.3502,126.6658 L-252.3643,126.7254 L-252.3773,126.7853 L-252.3893,126.8454 L-252.4002,126.9056 L-252.4101,126.9661 L-252.4189,127.0267 L-252.4267,127.0875 L-252.4333,127.1484 L-252.4390,127.2094 L-252.4435,127.2705 L-252.4470,127.3316 L-252.4494,127.3928 L-252.4507,127.4541 L-252.4510,127.5153 L-252.4502,127.5766 L-252.4483,127.6378 L-252.4454,127.6990 L-252.4414,127.7601 L-252.4363,127.8211 L-252.4301,127.8821 L-252.4229,127.9429 L-252.4146,128.0036 L-252.4053,128.0642 L-252.3949,128.1245 L-252.3834,128.1847 L-252.3709,128.2447 L-252.3574,128.3044 L-252.3428,128.3639 L-252.3271,128.4231 L-252.3104,128.4821 L-252.2927,128.5407 L-252.2740,128.5990 L-252.2543,128.6570 L-252.2335,128.7146 L-252.2118,128.7719 L-252.1890,128.8288 L-252.1653,128.8852 L-252.1405,128.9413 L-252.1148,128.9969 L-252.0881,129.0520 L-252.0605,129.1067 L-252.0319,129.1609 L-252.0023,129.2145 L-251.9719,129.2677 L-251.9405,129.3203 L-251.9082,129.3723 L-251.8749,129.4238 L-251.8408,129.4746 L-251.8058,129.5249 L-251.7700,129.5746 L-251.7332,129.6236 L-251.6956,129.6719 L-251.6572,129.7196 L-251.6179,129.7667 L-251.5779,129.8130 L-251.5370,129.8586 L-251.4953,129.9035 L-251.4528,129.9477 L-251.4096,129.9911 L-251.3657,130.0337 L-251.3209,130.0756 L-251.2755,130.1167 L-251.2294,130.1569 L-251.1825,130.1964 L-251.1350,130.2350 L-251.0868,130.2728 L-251.0379,130.3098 L-250.9884,130.3459 L-250.9383,130.3811 L-250.8876,130.4155 L-250.8363,130.4489 L-250.7844,130.4814 L-250.7319,130.5131 L-250.6789,130.5438 L-250.6254,130.5735 L-250.5713,130.6024 L-250.5168,130.6303 L-250.4618,130.6572 L-250.4063,130.6831 L-250.3503,130.7081 L-250.2940,130.7321 L-250.2372,130.7551 L-250.1800,130.7771 L-250.1225,130.7981 L-250.0646,130.8181 L-250.0064,130.8371 L-249.9478,130.8551 L-249.8889,130.8720 L-249.8298,130.8879 L-249.7703,130.9028 L-249.7107,130.9166 L-249.6508,130.9293 L-249.5906,130.9411 L-249.5303,130.9517 L-249.4698,130.9613 L-249.4092,130.9699 L-249.3484,130.9774 L-249.2874,130.9838 L-249.2264,130.9892 L-249.1653,130.9934 L-249.1041,130.9967 L-249.0429,130.9988 L-248.9817,130.9999 L-248.9204,130.9999 L-248.8592,130.9988 L-248.7980,130.9967 L-248.7368,130.9934 L-248.6757,130.9892 L-248.6147,130.9838 L-248.5537,130.9774 L-248.4929,130.9699 L-248.4323,130.9613 L-248.3718,130.9517 L-248.3115,130.9411 L-248.2513,130.9293 L-248.1914,130.9166 L-248.1318,130.9028 L-248.0723,130.8879 L-248.0132,130.8720 L-247.9543,130.8551 L-247.8957,130.8371 L-247.8375,130.8181 L-247.7796,130.7981 L-247.7221,130.7771 L-247.6649,130.7551 L-247.6081,130.7321 L-247.5518,130.7081 L-247.4958,130.6831 L-247.4403,130.6572 L-247.3853,130.6303 L-247.3308,130.6024 L-247.2767,130.5735 L-247.2232,130.5438 L-247.1702,130.5131 L-247.1177,130.4814 L-247.0658,130.4489 L-247.0145,130.4155 L-246.9638,130.3811 L-246.9137,130.3459 L-246.8642,130.3098 L-246.8153,130.2728 L-246.7671,130.2350 L-246.7196,130.1964 L-246.6727,130.1569 L-246.6266,130.1167 L-246.5812,130.0756 L-246.5364,130.0337 L-246.4925,129.9911 L-246.4493,129.9477 L-246.4068,129.9035 L-246.3651,129.8586 L-246.3242,129.8130 L-246.2842,129.7667 L-246.2449,129.7196 L-246.2065,129.6719 L-246.1689,129.6236 L-246.1321,129.5746 L-246.0963,129.5249 L-246.0613,129.4746 L-246.0272,129.4238 L-245.9939,129.3723 L-245.9616,129.3203 L-245.9302,129.2677 L-245.8997,129.2145 L-245.8702,129.1609 L-245.8416,129.1067 L-245.8140,129.0520 L-245.7873,128.9969 L-245.7616,128.9413 L-245.7368,128.8852 L-245.7131,128.8288 L-245.6903,128.7719 L-245.6686,128.7146 L-245.6478,128.6570 L-245.6281,128.5990 L-245.6094,128.5407 L-245.5916,128.4821 L-245.5750,128.4231 L-245.5593,128.3639 L-245.5447,128.3044 L-245.5312,128.2447 L-245.5187,128.1847 L-245.5072,128.1245 L-245.4968,128.0642 L-245.4875,128.0036 L-245.4792,127.9429 L-245.4720,127.8821 L-245.4658,127.8211 L-245.4607,127.7601 L-245.4567,127.6990 L-245.4538,127.6378 L-245.4519,127.5766 L-245.4511,127.5153 L-245.4514,127.4541 L-245.4527,127.3928 L-245.4551,127.3316 L-245.4586,127.2705 L-245.4631,127.2094 L-245.4688,127.1484 L-245.4754,127.0875 L-245.4832,127.0267 L-245.4920,126.9661 L-245.5019,126.9056 L-245.5128,126.8454 L-245.5248,126.7853 L-245.5378,126.7254 L-245.5519,126.6658 L-245.5670,126.6065 L-245.5832,126.5474 L-245.6004,126.4886 L-245.6186,126.4301 L-245.6378,126.3719 L-245.6581,126.3141 L-245.6793,126.2567 L-245.7016,126.1996 L-245.7248,126.1429 L-245.7491,126.0867 L-245.7743,126.0309 L-245.8005,125.9755 L-245.8277,125.9206 L-245.8558,125.8662 L-245.8849,125.8123 L-245.9149,125.7588 L-245.9458,125.7060 L-245.9777,125.6537 L-246.0104,125.6019 L-246.0441,125.5507 L-246.0787,125.5002 L-246.1141,125.4502 L-246.1504,125.4009 L-246.1876,125.3522 L-246.2256,125.3041 L-246.2644,125.2568 L-246.3041,125.2101 L-246.3446,125.1641 L-246.3859,125.1189 L-246.4279,125.0743 L-246.4708,125.0305 L-246.5144,124.9875 L-246.5587,124.9453 L-246.6038,124.9038 L-246.6496,124.8631 L-246.6961,124.8232 L-246.7433,124.7842 L-246.7911,124.7459 L-246.8397,124.7086 L-246.8888,124.6720 L-246.9387,124.6364 L-246.9891,124.6016 L-247.0401,124.5677 L-247.0917,124.5347 L-247.1439,124.5026 L-247.1966,124.4715 L-247.2499,124.4412 L-247.3037,124.4119 L-247.3580,124.3836 L-247.4128,124.3562 L-247.4680,124.3297 L-247.5237,124.3043 L-247.5799,124.2798 L-247.6365,124.2563 L-247.6934,124.2338 L-247.7508,124.2122 L-247.8085,124.1917 L-247.8666,124.1722 L-247.9250,124.1538 L-247.9837,124.1363 L-248.0427,124.1199 L-248.1020,124.1045 L-248.1616,124.0902 L-248.2214,124.0769 L-248.2814,124.0647 L-248.3416,124.0535 L-248.4020,124.0433 L-248.4626,124.0343 L-248.5233,124.0262 L-248.5842,124.0193 L-248.6452,124.0134 L-248.7062,124.0086 L-248.7674,124.0048 L-248.8286,124.0021 L-248.8898,124.0005 L-248.9510,124.0000"></path>
</g>
</svg>