<?xml version="1.0" encoding="utf-8"?>
<svg xmlns="http://www.w3.org/2000/svg" width="209.0000mm" height="162.0000mm" viewBox="424.7692 -6.0000 209.0000 162.0000">
<g>
	<path d="M430.7692,-6.0000 L424.7692,-6.0000 L424.7692,0.0000 L424.7692,13.6364 L430.7692,13.6364 L430.7692,13.6364 L430.7692,27.2727 L424.7692,27.2727 L424.7692,27.2727 L424.7692,40.9091 L430.7692,40.9091 L430.7692,40.9091 L430.7692,54.5455 L424.7692,54.5455 L424.7692,54.5455 L424.7692,68.1818 L430.7692,68.1818 L430.7692,68.1818 L430.7692,81.8182 L424.7692,81.8182 L424.7692,81.8182 L424.7692,95.4545 L430.7692,95.4545 L430.7692,95.4545 L430.7692,109.0909 L424.7692,109.0909 L424.7692,109.0909 L424.7692,122.7273 L430.7692,122.7273 L430.7692,122.7273 L430.7692,136.3636 L424.7692,136.3636 L424.7692,136.3636 L424.7692,150.0000 L424.7692,156.0000 L430.7692,156.0000 L430.7692,156.0000 L480.7692,156.0000 L480.7692,150.0000 L480.7692,150.0000 L530.7692,150.0000 L580.7692,150.0000 L580.7692,156.0000 L580.7692,156.0000 L630.7692,156.0000 L630.7692,156.0000 L633.7692,156.0000 L633.7692,150.0000 L633.7692,136.3636 L630.7692,136.3636 L630.7692,136.3636 L630.7692,122.7273 L633.7692,122.7273 L633.7692,122.7273 L633.7692,109.0909 L630.7692,109.0909 L630.7692,109.0909 L630.7692,95.4545 L633.7692,95.4545 L633.7692,95.4545 L633.7692,81.8182 L630.7692,81.8182 L630.7692,81.8182 L630.7692,68.1818 L633.7692,68.1818 L633.7692,68.1818 L633.7692,54.5455 L630.7692,54.5455 L630.7692,54.5455 L630.7692,40.9091 L633.7692,40.9091 L633.7692,40.9091 L633.7692,27.2727 L630.7692,27.2727 L630.7692,27.2727 L630.7692,13.6364 L633.7692,13.6364 L633.7692,13.6364 L633.7692,0.0000 L633.7692,-6.0000 L630.7692,-6.0000 L630.7692,-6.0000 L615.3846,-6.0000 L615.3846,0.0000 L615.3846,0.0000 L600.0000,0.0000 L600.0000,-6.0000 L600.0000,-6.0000 L584.6154,-6.0000 L584.6154,0.0000 L584.6154,0.0000 L569.2308,0.0000 L569.2308,-6.0000 L569.2308,-6.0000 L553.8462,-6.0000 L553.8462,0.0000 L553.8462,0.0000 L538.4615,0.0000 L538.4615,-6.0000 L538.4615,-6.0000 L523.0769,-6.0000 L523.0769,0.0000 L523.0769,0.0000 L507.6923,0.0000 L507.6923,-6.0000 L507.6923,-6.0000 L492.3077,-6.0000 L492.3077,0.0000 L492.3077,0.0000 L476.9231,0.0000 L476.9231,-6.0000 L476.9231,-6.0000 L461.5385,-6.0000 L461.5385,0.0000 L461.5385,0.0000 L446.1538,0.0000 L446.1538,-6.0000 L446.1538,-6.0000 L430.7692,-6.0000"></path>
	<path d="M448.9510,124.0000 L448.8898,124.0005 L448.8286,124.0021 L448.7674,124.0048 L448.7062,124.0086 L448.6452,124.0134 L448.5842,124.0193 L448.5233,124.0262 L448.4626,124.0343 L448.4020,124.0433 L448.3416,124.0535 L448.2814,124.0647 L448.2214,124.0769 L448.1616,124.0902 L448.1020,124.1045 L448.0427,124.1199 L447.9837,124.1363 L447.9250,124.1538 L447.8666,124.1722 L447.8085,124.1917 L447.7508,124.2122 L447.6934,124.2338 L447.6365,124.2563 L447.5799,124.2798 L447.5237,124.3043 L447.4680,124.3297 L447.4128,124.3562 L447.3580,124.3836 L447.3037,124.4119 L447.2499,124.4412 L447.1966,124.4715 L447.1439,124.5026 L447.0917,124.5347 L447.0401,124.5677 L446.9891,124.6016 L446.9387,124.6364 L446.8888,124.6720 L446.8397,124.7086 L446.7911,124.7459 L446.7433,124.7842 L446.6961,124.8232 L446.6496,124.8631 L446.6038,124.9038 L446.5587,124.9453 L446.5144,124.9875 L446.4708,125.0305 L446.4279,125.0743 L446.3859,125.1189 L446.3446,125.1641 L446.3041,125.2101 L446.2644,125.2568 L446.2256,125.3041 L446.1876,125.3522 L446.1504,125.4009 L446.1141,125.4502 L446.0787,125.5002 L446.0441,125.5507 L446.0104,125.6019 L445.9777,125.6537 L445.9458,125.7060 L445.9149,125.7588 L445.8849,125.8123 L445.8558,125.8662 L445.8277,125.9206 L445.8005,125.9755 L445.7743,126.0309 L445.7491,126.0867 L445.7248,126.1429 L445.7016,126.1996 L445.6793,126.2567 L445.6581,126.3141 L445.6378,126.3719 L445.6186,126.4301 L445.6004,126.4886 L445.5832,126.5474 L445.5670,126.6065 L445.5519,126.6658 L445.5378,126.7254 L445.5248,126.7853 L445.5128,126.8454 L445.5019,126.9056 L445.4920,126.9661 L445.4832,127.0267 L445.4754,127.0875 L445.4688,127.1484 L445.4631,127.2094 L445.4586,127.2705 L445.4551,127.3316 L445.4527,127.3928 L445.4514,127.4541 L445.4511,127.5153 L445.4519,127.5766 L445.4538,127.6378 L445.4567,127.6990 L445.4607,127.7601 L445.4658,127.8211 L445.4720,127.8821 L445.4792,127.9429 L445.4875,128.0036 L445.4968,128.0642 L445.5072,128.1245 L445.5187,128.1847 L445.5312,128.2447 L445.5447,128.3044 L445.5593,128.3639 L445.5750,128.4231 L445.5916,128.4821 L445.6094,128.5407 L445.6281,128.5990 L445.6478,128.6570 L445.6686,128.7146 L445.6903,128.7719 L445.7131,128.8288 L445.7368,128.8852 L445.7616,128.9413 L445.7873,128.9969 L445.8140,129.0520 L445.8416,129.1067 L445.8702,129.1609 L445.8997,129.2145 L445.9302,129.2677 L445.9616,129.3203 L445.9939,129.3723 L446.0272,129.4238 L446.0613,129.4746 L446.0963,129.5249 L446.1321,129.5746 L446.1689,129.6236 L446.2065,129.6719 L446.2449,129.7196 L446.2842,129.7667 L446.3242,129.8130 L446.3651,129.8586 L446.4068,129.9035 L446.4493,129.9477 L446.4925,129.9911 L446.5364,130.0337 L446.5812,130.0756 L446.6266,130.1167 L446.6727,130.1569 L446.7196,130.1964 L446.7671,130.2350 L446.8153,130.2728 L446.8642,130.3098 L446.9137,130.3459 L446.9638,130.3811 L447.0145,130.4155 L447.0658,130.4489 L447.1177,130.4814 L447.1702,130.5131 L447.2232,130.5438 L447.2767,130.5735 L447.3308,130.6024 L447.3853,130.6303 L447.4403,130.6572 L447.4958,130.6831 L447.5518,130.7081 L447.6081,130.7321 L447.6649,130.7551 L447.7221,130.7771 L447.7796,130.7981 L447.8375,130.8181 L447.8957,130.8371 L447.9543,130.8551 L448.0132,130.8720 L448.0723,130.8879 L448.1318,130.9028 L448.1914,130.9166 L448.2513,130.9293 L448.3115,130.9411 L448.3718,130.9517 L448.4323,130.9613 L448.4929,130.9699 L448.5537,130.9774 L448.6147,130.9838 L448.6757,130.9892 L448.7368,130.9934 L448.7980,130.9967 L448.8592,130.9988 L448.9204,130.9999 L448.9817,130.9999 L449.0429,130.9988 L449.1041,130.9967 L449.1653,130.9934 L449.2264,130.9892 L449.2874,130.9838 L449.3484,130.9774 L449.4092,130.9699 L449.4698,130.9613 L449.5303,130.9517 L449.5906,130.9411 L449.6508,130.9293 L449.7107,130.9166 L449.7703,130.9028 L449.8298,130.8879 L449.8889,130.8720 L449.9478,130.8551 L450.0064,130.8371 L450.0646,130.8181 L450.1225,130.7981 L450.1800,130.7771 L450.2372,130.7551 L450.2940,130.7321 L450.3503,130.7081 L450.4063,130.6831 L450.4618,130.6572 L450.5168,130.6303 L450.5713,130.6024 L450.6254,130.5735 L450.6789,130.5438 L450.7319,130.5131 L450.7844,130.4814 L450.8363,130.4489 L450.8876,130.4155 L450.9383,130.3811 L450.9884,130.3459 L451.0379,130.3098 L451.0868,130.2728 L451.1350,130.2350 L451.1825,130.1964 L451.2294,130.1569 L451.2755,130.1167 L451.3209,130.0756 L451.3657,130.0337 L451.4096,129.9911 L451.4528,129.9477 L451.4953,129.9035 L451.5370,129.8586 L451.5779,129.8130 L451.6179,129.7667 L451.6572,129.7196 L451.6956,129.6719 L451.7332,129.6236 L451.7700,129.5746 L451.8058,129.5249 L451.8408,129.4746 L451.8749,129.4238 L451.9082,129.3723 L451.9405,129.3203 L451.9719,129.2677 L452.0023,129.2145 L452.0319,129.1609 L452.0605,129.1067 L452.0881,129.0520 L452.1148,128.9969 L452.1405,128.9413 L452.1653,128.8852 L452.1890,128.8288 L452.2118,128.7719 L452.2335,128.7146 L452.2543,128.6570 L452.2740,128.5990 L452.2927,128.5407 L452.3104,128.4821 L452.3271,128.4231 L452.3428,128.3639 L452.3574,128.3044 L452.3709,128.2447 L452.3834,128.1847 L452.3949,128.1245 L452.4053,128.0642 L452.4146,128.0036 L452.4229,127.9429 L452.4301,127.8821 L452.4363,127.8211 L452.4414,127.7601 L452.4454,127.6990 L452.4483,127.6378 L452.4502,127.5766 L452.4510,127.5153 L452.4507,127.4541 L452.4494,127.3928 L452.4470,127.3316 L452.4435,127.2705 L452.4390,127.2094 L452.4333,127.1484 L452.4267,127.0875 L452.4189,127.0267 L452.4101,126.9661 L452.4002,126.9056 L452.3893,126.8454 L452.3773,126.7853 L452.3643,126.7254 L452.3502,126.6658 L452.3351,126.6065 L452.3189,126.5474 L452.3017,126.4886 L452.2835,126.4301 L452.2643,126.3719 L452.2440,126.3141 L452.2228,126.2567 L452.2005,126.1996 L452.1773,126.1429 L452.1530,126.0867 L452.1278,126.0309 L452.1016,125.9755 L452.0744,125.9206 L452.0463,125.8662 L452.0172,125.8123 L451.9872,125.7588 L451.9563,125.7060 L451.9244,125.6537 L451.8917,125.6019 L451.8580,125.5507 L451.8234,125.5002 L451.7880,125.4502 L451.7517,125.4009 L451.7145,125.3522 L451.6765,125.3041 L451.6377,125.2568 L451.5980,125.2101 L451.5575,125.1641 L451.5162,125.1189 L451.4742,125.0743 L451.4313,125.0305 L451.3877,124.9875 L451.3434,124.9453 L451.2983,124.9038 L451.2525,124.8631 L451.2060,124.8232 L451.1588,124.7842 L451.1110,124.7459 L451.0624,124.7086 L451.0132,124.6720 L450.9634,124.6364 L450.9130,124.6016 L450.8620,124.5677 L450.8104,124.5347 L450.7582,124.5026 L450.7055,124.4715 L450.6522,124.4412 L450.5984,124.4119 L450.5441,124.3836 L450.4893,124.3562 L450.4341,124.3297 L450.3784,124.3043 L450.3222,124.2798 L450.2656,124.2563 L450.2087,124.2338 L450.1513,124.2122 L450.0936,124.1917 L450.0355,124.1722 L449.9771,124.1538 L449.9184,124.1363 L449.8594,124.1199 L449.8001,124.1045 L449.7405,124.0902 L449.6807,124.0769 L449.6207,124.0647 L449.5605,124.0535 L449.5001,124.0433 L449.4395,124.0343 L449.3788,124.0262 L449.3179,124.0193 L449.2569,124.0134 L449.1959,124.0086 L449.1347,124.0048 L449.0735,124.0021 L449.0123,124.0005 L448.9510,124.0000"></path>
	<path d="M467.1329,124.0000 L467.0716,124.0005 L467.0104,124.0021 L466.9492,124.0048 L466.8880,124.0086 L466.8270,124.0134 L466.7660,124.0193 L466.7051,124.0262 L466.6444,124.0343 L466.5838,124.0433 L466.5234,124.0535 L466.4632,124.0647 L466.4032,124.0769 L466.3434,124.0902 L466.2838,124.1045 L466.2245,124.1199 L466.1655,124.1363 L466.1068,124.1538 L466.0484,124.1722 L465.9903,124.1917 L465.9326,124.2122 L465.8752,124.2338 L465.8183,124.2563 L465.7617,124.2798 L465.7056,124.3043 L465.6498,124.3297 L465.5946,124.3562 L465.5398,124.3836 L465.4855,124.4119 L465.4317,124.4412 L465.3784,124.4715 L465.3257,124.5026 L465.2735,124.5347 L465.2219,124.5677 L465.1709,124.6016 L465.1205,124.6364 L465.0707,124.6720 L465.0215,124.7086 L464.9730,124.7459 L464.9251,124.7842 L464.8779,124.8232 L464.8314,124.8631 L464.7856,124.9038 L464.7405,124.9453 L464.6962,124.9875 L464.6526,125.0305 L464.6097,125.0743 L464.5677,125.1189 L464.5264,125.1641 L464.4859,125.2101 L464.4463,125.2568 L464.4074,125.3041 L464.3694,125.3522 L464.3322,125.4009 L464.2959,125.4502 L464.2605,125.5002 L464.2259,125.5507 L464.1922,125.6019 L464.1595,125.6537 L464.1276,125.7060 L464.0967,125.7588 L464.0667,125.8123 L464.0376,125.8662 L464.0095,125.9206 L463.9823,125.9755 L463.9561,126.0309 L463.9309,126.0867 L463.9067,126.1429 L463.8834,126.1996 L463.8611,126.2567 L463.8399,126.3141 L463.8196,126.3719 L463.8004,126.4301 L463.7822,126.4886 L463.7650,126.5474 L463.7488,126.6065 L463.7337,126.6658 L463.7196,126.7254 L463.7066,126.7853 L463.6946,126.8454 L463.6837,126.9056 L463.6738,126.9661 L463.6650,127.0267 L463.6573,127.0875 L463.6506,127.1484 L463.6450,127.2094 L463.6404,127.2705 L463.6369,127.3316 L463.6345,127.3928 L463.6332,127.4541 L463.6329,127.5153 L463.6337,127.5766 L463.6356,127.6378 L463.6385,127.6990 L463.6425,127.7601 L463.6476,127.8211 L463.6538,127.8821 L463.6610,127.9429 L463.6693,128.0036 L463.6786,128.0642 L463.6890,128.1245 L463.7005,128.1847 L463.7130,128.2447 L463.7266,128.3044 L463.7412,128.3639 L463.7568,128.4231 L463.7735,128.4821 L463.7912,128.5407 L463.8099,128.5990 L463.8296,128.6570 L463.8504,128.7146 L463.8722,128.7719 L463.8949,128.8288 L463.9187,128.8852 L463.9434,128.9413 L463.9691,128.9969 L463.9958,129.0520 L464.0234,129.1067 L464.0520,129.1609 L464.0816,129.2145 L464.1120,129.2677 L464.1434,129.3203 L464.1758,129.3723 L464.2090,129.4238 L464.2431,129.4746 L464.2781,129.5249 L464.3140,129.5746 L464.3507,129.6236 L464.3883,129.6719 L464.4267,129.7196 L464.4660,129.7667 L464.5061,129.8130 L464.5469,129.8586 L464.5886,129.9035 L464.6311,129.9477 L464.6743,129.9911 L464.7183,130.0337 L464.7630,130.0756 L464.8084,130.1167 L464.8546,130.1569 L464.9014,130.1964 L464.9489,130.2350 L464.9971,130.2728 L465.0460,130.3098 L465.0955,130.3459 L465.1456,130.3811 L465.1963,130.4155 L465.2477,130.4489 L465.2996,130.4814 L465.3520,130.5131 L465.4050,130.5438 L465.4586,130.5735 L465.5126,130.6024 L465.5671,130.6303 L465.6222,130.6572 L465.6776,130.6831 L465.7336,130.7081 L465.7899,130.7321 L465.8467,130.7551 L465.9039,130.7771 L465.9614,130.7981 L466.0193,130.8181 L466.0776,130.8371 L466.1361,130.8551 L466.1950,130.8720 L466.2541,130.8879 L466.3136,130.9028 L466.3733,130.9166 L466.4332,130.9293 L466.4933,130.9411 L466.5536,130.9517 L466.6141,130.9613 L466.6748,130.9699 L466.7356,130.9774 L466.7965,130.9838 L466.8575,130.9892 L466.9186,130.9934 L466.9798,130.9967 L467.0410,130.9988 L467.1022,130.9999 L467.1635,130.9999 L467.2247,130.9988 L467.2860,130.9967 L467.3471,130.9934 L467.4082,130.9892 L467.4693,130.9838 L467.5302,130.9774 L467.5910,130.9699 L467.6516,130.9613 L467.7121,130.9517 L467.7724,130.9411 L467.8326,130.9293 L467.8925,130.9166 L467.9522,130.9028 L468.0116,130.8879 L468.0707,130.8720 L468.1296,130.8551 L468.1882,130.8371 L468.2464,130.8181 L468.3043,130.7981 L468.3619,130.7771 L468.4190,130.7551 L468.4758,130.7321 L468.5322,130.7081 L468.5881,130.6831 L468.6436,130.6572 L468.6986,130.6303 L468.7531,130.6024 L468.8072,130.5735 L468.8607,130.5438 L468.9137,130.5131 L468.9662,130.4814 L469.0181,130.4489 L469.0694,130.4155 L469.1201,130.3811 L469.1702,130.3459 L469.2197,130.3098 L469.2686,130.2728 L469.3168,130.2350 L469.3643,130.1964 L469.4112,130.1569 L469.4573,130.1167 L469.5028,130.0756 L469.5475,130.0337 L469.5914,129.9911 L469.6347,129.9477 L469.6771,129.9035 L469.7188,129.8586 L469.7597,129.8130 L469.7998,129.7667 L469.8390,129.7196 L469.8774,129.6719 L469.9150,129.6236 L469.9518,129.5746 L469.9876,129.5249 L470.0226,129.4746 L470.0568,129.4238 L470.0900,129.3723 L470.1223,129.3203 L470.1537,129.2677 L470.1842,129.2145 L470.2137,129.1609 L470.2423,129.1067 L470.2699,129.0520 L470.2966,128.9969 L470.3223,128.9413 L470.3471,128.8852 L470.3708,128.8288 L470.3936,128.7719 L470.4153,128.7146 L470.4361,128.6570 L470.4558,128.5990 L470.4746,128.5407 L470.4923,128.4821 L470.5089,128.4231 L470.5246,128.3639 L470.5392,128.3044 L470.5527,128.2447 L470.5652,128.1847 L470.5767,128.1245 L470.5871,128.0642 L470.5964,128.0036 L470.6047,127.9429 L470.6119,127.8821 L470.6181,127.8211 L470.6232,127.7601 L470.6272,127.6990 L470.6302,127.6378 L470.6320,127.5766 L470.6328,127.5153 L470.6326,127.4541 L470.6312,127.3928 L470.6288,127.3316 L470.6253,127.2705 L470.6208,127.2094 L470.6152,127.1484 L470.6085,127.0875 L470.6007,127.0267 L470.5919,126.9661 L470.5820,126.9056 L470.5711,126.8454 L470.5591,126.7853 L470.5461,126.7254 L470.5320,126.6658 L470.5169,126.6065 L470.5007,126.5474 L470.4835,126.4886 L470.4653,126.4301 L470.4461,126.3719 L470.4258,126.3141 L470.4046,126.2567 L470.3823,126.1996 L470.3591,126.1429 L470.3348,126.0867 L470.3096,126.0309 L470.2834,125.9755 L470.2562,125.9206 L470.2281,125.8662 L470.1991,125.8123 L470.1690,125.7588 L470.1381,125.7060 L470.1063,125.6537 L470.0735,125.6019 L470.0398,125.5507 L470.0053,125.5002 L469.9698,125.4502 L469.9335,125.4009 L469.8963,125.3522 L469.8583,125.3041 L469.8195,125.2568 L469.7798,125.2101 L469.7393,125.1641 L469.6981,125.1189 L469.6560,125.0743 L469.6131,125.0305 L469.5696,124.9875 L469.5252,124.9453 L469.4801,124.9038 L469.4343,124.8631 L469.3878,124.8232 L469.3406,124.7842 L469.2928,124.7459 L469.2442,124.7086 L469.1951,124.6720 L469.1453,124.6364 L469.0948,124.6016 L469.0438,124.5677 L468.9922,124.5347 L468.9400,124.5026 L468.8873,124.4715 L468.8340,124.4412 L468.7802,124.4119 L468.7259,124.3836 L468.6711,124.3562 L468.6159,124.3297 L468.5602,124.3043 L468.5040,124.2798 L468.4475,124.2563 L468.3905,124.2338 L468.3331,124.2122 L468.2754,124.1917 L468.2173,124.1722 L468.1589,124.1538 L468.1002,124.1363 L468.0412,124.1199 L467.9819,124.1045 L467.9224,124.0902 L467.8626,124.0769 L467.8025,124.0647 L467.7423,124.0535 L467.6819,124.0433 L467.6213,124.0343 L467.5606,124.0262 L467.4997,124.0193 L467.4388,124.0134 L467.3777,124.0086 L467.3166,124.0048 L467.2554,124.0021 L467.1941,124.0005 L467.1329,124.0000"></path>
	<path d="M485.3147,124.0000 L485.2534,124.0005 L485.1922,124.0021 L485.1310,124.0048 L485.0699,124.0086 L485.0088,124.0134 L484.9478,124.0193 L484.8870,124.0262 L484.8262,124.0343 L484.7657,124.0433 L484.7052,124.0535 L484.6450,124.0647 L484.5850,124.0769 L484.5252,124.0902 L484.4656,124.1045 L484.4064,124.1199 L484.3473,124.1363 L484.2886,124.1538 L484.2302,124.1722 L484.1721,124.1917 L484.1144,124.2122 L484.0571,124.2338 L484.0001,124.2563 L483.9435,124.2798 L483.8874,124.3043 L483.8317,124.3297 L483.7764,124.3562 L483.7216,124.3836 L483.6673,124.4119 L483.6135,124.4412 L483.5603,124.4715 L483.5075,124.5026 L483.4554,124.5347 L483.4037,124.5677 L483.3527,124.6016 L483.3023,124.6364 L483.2525,124.6720 L483.2033,124.7086 L483.1548,124.7459 L483.1069,124.7842 L483.0597,124.8232 L483.0132,124.8631 L482.9674,124.9038 L482.9223,124.9453 L482.8780,124.9875 L482.8344,125.0305 L482.7916,125.0743 L482.7495,125.1189 L482.7082,125.1641 L482.6677,125.2101 L482.6281,125.2568 L482.5892,125.3041 L482.5512,125.3522 L482.5140,125.4009 L482.4777,125.4502 L482.4423,125.5002 L482.4077,125.5507 L482.3741,125.6019 L482.3413,125.6537 L482.3094,125.7060 L482.2785,125.7588 L482.2485,125.8123 L482.2194,125.8662 L482.1913,125.9206 L482.1641,125.9755 L482.1379,126.0309 L482.1127,126.0867 L482.0885,126.1429 L482.0652,126.1996 L482.0430,126.2567 L482.0217,126.3141 L482.0015,126.3719 L481.9822,126.4301 L481.9640,126.4886 L481.9468,126.5474 L481.9307,126.6065 L481.9155,126.6658 L481.9015,126.7254 L481.8884,126.7853 L481.8765,126.8454 L481.8655,126.9056 L481.8556,126.9661 L481.8468,127.0267 L481.8391,127.0875 L481.8324,127.1484 L481.8268,127.2094 L481.8222,127.2705 L481.8187,127.3316 L481.8163,127.3928 L481.8150,127.4541 L481.8147,127.5153 L481.8155,127.5766 L481.8174,127.6378 L481.8203,127.6990 L481.8244,127.7601 L481.8294,127.8211 L481.8356,127.8821 L481.8428,127.9429 L481.8511,128.0036 L481.8605,128.0642 L481.8709,128.1245 L481.8823,128.1847 L481.8948,128.2447 L481.9084,128.3044 L481.9230,128.3639 L481.9386,128.4231 L481.9553,128.4821 L481.9730,128.5407 L481.9917,128.5990 L482.0115,128.6570 L482.0322,128.7146 L482.0540,128.7719 L482.0767,128.8288 L482.1005,128.8852 L482.1252,128.9413 L482.1509,128.9969 L482.1776,129.0520 L482.2053,129.1067 L482.2338,129.1609 L482.2634,129.2145 L482.2939,129.2677 L482.3253,129.3203 L482.3576,129.3723 L482.3908,129.4238 L482.4249,129.4746 L482.4599,129.5249 L482.4958,129.5746 L482.5325,129.6236 L482.5701,129.6719 L482.6085,129.7196 L482.6478,129.7667 L482.6879,129.8130 L482.7288,129.8586 L482.7704,129.9035 L482.8129,129.9477 L482.8561,129.9911 L482.9001,130.0337 L482.9448,130.0756 L482.9902,130.1167 L483.0364,130.1569 L483.0832,130.1964 L483.1308,130.2350 L483.1790,130.2728 L483.2278,130.3098 L483.2773,130.3459 L483.3274,130.3811 L483.3782,130.4155 L483.4295,130.4489 L483.4814,130.4814 L483.5338,130.5131 L483.5868,130.5438 L483.6404,130.5735 L483.6944,130.6024 L483.7490,130.6303 L483.8040,130.6572 L483.8595,130.6831 L483.9154,130.7081 L483.9718,130.7321 L484.0285,130.7551 L484.0857,130.7771 L484.1432,130.7981 L484.2011,130.8181 L484.2594,130.8371 L484.3179,130.8551 L484.3768,130.8720 L484.4360,130.8879 L484.4954,130.9028 L484.5551,130.9166 L484.6150,130.9293 L484.6751,130.9411 L484.7354,130.9517 L484.7959,130.9613 L484.8566,130.9699 L484.9174,130.9774 L484.9783,130.9838 L485.0393,130.9892 L485.1004,130.9934 L485.1616,130.9967 L485.2228,130.9988 L485.2841,130.9999 L485.3453,130.9999 L485.4066,130.9988 L485.4678,130.9967 L485.5289,130.9934 L485.5901,130.9892 L485.6511,130.9838 L485.7120,130.9774 L485.7728,130.9699 L485.8334,130.9613 L485.8939,130.9517 L485.9543,130.9411 L486.0144,130.9293 L486.0743,130.9166 L486.1340,130.9028 L486.1934,130.8879 L486.2526,130.8720 L486.3114,130.8551 L486.3700,130.8371 L486.4282,130.8181 L486.4861,130.7981 L486.5437,130.7771 L486.6008,130.7551 L486.6576,130.7321 L486.7140,130.7081 L486.7699,130.6831 L486.8254,130.6572 L486.8804,130.6303 L486.9350,130.6024 L486.9890,130.5735 L487.0425,130.5438 L487.0955,130.5131 L487.1480,130.4814 L487.1999,130.4489 L487.2512,130.4155 L487.3019,130.3811 L487.3521,130.3459 L487.4016,130.3098 L487.4504,130.2728 L487.4986,130.2350 L487.5461,130.1964 L487.5930,130.1569 L487.6391,130.1167 L487.6846,130.0756 L487.7293,130.0337 L487.7733,129.9911 L487.8165,129.9477 L487.8589,129.9035 L487.9006,129.8586 L487.9415,129.8130 L487.9816,129.7667 L488.0208,129.7196 L488.0593,129.6719 L488.0969,129.6236 L488.1336,129.5746 L488.1695,129.5249 L488.2045,129.4746 L488.2386,129.4238 L488.2718,129.3723 L488.3041,129.3203 L488.3355,129.2677 L488.3660,129.2145 L488.3955,129.1609 L488.4241,129.1067 L488.4518,129.0520 L488.4784,128.9969 L488.5042,128.9413 L488.5289,128.8852 L488.5526,128.8288 L488.5754,128.7719 L488.5972,128.7146 L488.6179,128.6570 L488.6377,128.5990 L488.6564,128.5407 L488.6741,128.4821 L488.6908,128.4231 L488.7064,128.3639 L488.7210,128.3044 L488.7346,128.2447 L488.7471,128.1847 L488.7585,128.1245 L488.7689,128.0642 L488.7783,128.0036 L488.7865,127.9429 L488.7938,127.8821 L488.7999,127.8211 L488.8050,127.7601 L488.8090,127.6990 L488.8120,127.6378 L488.8138,127.5766 L488.8147,127.5153 L488.8144,127.4541 L488.8130,127.3928 L488.8106,127.3316 L488.8071,127.2705 L488.8026,127.2094 L488.7970,127.1484 L488.7903,127.0875 L488.7825,127.0267 L488.7737,126.9661 L488.7639,126.9056 L488.7529,126.8454 L488.7409,126.7853 L488.7279,126.7254 L488.7138,126.6658 L488.6987,126.6065 L488.6826,126.5474 L488.6654,126.4886 L488.6471,126.4301 L488.6279,126.3719 L488.6077,126.3141 L488.5864,126.2567 L488.5641,126.1996 L488.5409,126.1429 L488.5166,126.0867 L488.4914,126.0309 L488.4652,125.9755 L488.4381,125.9206 L488.4099,125.8662 L488.3809,125.8123 L488.3509,125.7588 L488.3199,125.7060 L488.2881,125.6537 L488.2553,125.6019 L488.2216,125.5507 L488.1871,125.5002 L488.1516,125.4502 L488.1153,125.4009 L488.0782,125.3522 L488.0401,125.3041 L488.0013,125.2568 L487.9616,125.2101 L487.9212,125.1641 L487.8799,125.1189 L487.8378,125.0743 L487.7950,125.0305 L487.7514,124.9875 L487.7070,124.9453 L487.6619,124.9038 L487.6162,124.8631 L487.5697,124.8232 L487.5225,124.7842 L487.4746,124.7459 L487.4261,124.7086 L487.3769,124.6720 L487.3271,124.6364 L487.2767,124.6016 L487.2256,124.5677 L487.1740,124.5347 L487.1218,124.5026 L487.0691,124.4715 L487.0158,124.4412 L486.9620,124.4119 L486.9077,124.3836 L486.8530,124.3562 L486.7977,124.3297 L486.7420,124.3043 L486.6858,124.2798 L486.6293,124.2563 L486.5723,124.2338 L486.5150,124.2122 L486.4572,124.1917 L486.3992,124.1722 L486.3408,124.1538 L486.2820,124.1363 L486.2230,124.1199 L486.1637,124.1045 L486.1042,124.0902 L486.0444,124.0769 L485.9844,124.0647 L485.9241,124.0535 L485.8637,124.0433 L485.8031,124.0343 L485.7424,124.0262 L485.6816,124.0193 L485.6206,124.0134 L485.5595,124.0086 L485.4984,124.0048 L485.4372,124.0021 L485.3759,124.0005 L485.3147,124.0000"></path>
	<path d="M503.4965,124.0000 L503.4352,124.0005 L503.3740,124.0021 L503.3128,124.0048 L503.2517,124.0086 L503.1906,124.0134 L503.1296,124.0193 L503.0688,124.0262 L503.0080,124.0343 L502.9475,124.0433 L502.8871,124.0535 L502.8268,124.0647 L502.7668,124.0769 L502.7070,124.0902 L502.6475,124.1045 L502.5882,124.1199 L502.5292,124.1363 L502.4704,124.1538 L502.4120,124.1722 L502.3540,124.1917 L502.2962,124.2122 L502.2389,124.2338 L502.1819,124.2563 L502.1253,124.2798 L502.0692,124.3043 L502.0135,124.3297 L501.9582,124.3562 L501.9034,124.3836 L501.8491,124.4119 L501.7954,124.4412 L501.7421,124.4715 L501.6894,124.5026 L501.6372,124.5347 L501.5856,124.5677 L501.5345,124.6016 L501.4841,124.6364 L501.4343,124.6720 L501.3851,124.7086 L501.3366,124.7459 L501.2887,124.7842 L501.2415,124.8232 L501.1950,124.8631 L501.1492,124.9038 L501.1042,124.9453 L501.0598,124.9875 L501.0162,125.0305 L500.9734,125.0743 L500.9313,125.1189 L500.8900,125.1641 L500.8496,125.2101 L500.8099,125.2568 L500.7710,125.3041 L500.7330,125.3522 L500.6959,125.4009 L500.6596,125.4502 L500.6241,125.5002 L500.5896,125.5507 L500.5559,125.6019 L500.5231,125.6537 L500.4913,125.7060 L500.4603,125.7588 L500.4303,125.8123 L500.4012,125.8662 L500.3731,125.9206 L500.3460,125.9755 L500.3198,126.0309 L500.2945,126.0867 L500.2703,126.1429 L500.2470,126.1996 L500.2248,126.2567 L500.2035,126.3141 L500.1833,126.3719 L500.1640,126.4301 L500.1458,126.4886 L500.1286,126.5474 L500.1125,126.6065 L500.0974,126.6658 L500.0833,126.7254 L500.0703,126.7853 L500.0583,126.8454 L500.0473,126.9056 L500.0375,126.9661 L500.0287,127.0267 L500.0209,127.0875 L500.0142,127.1484 L500.0086,127.2094 L500.0040,127.2705 L500.0006,127.3316 L499.9981,127.3928 L499.9968,127.4541 L499.9965,127.5153 L499.9973,127.5766 L499.9992,127.6378 L500.0022,127.6990 L500.0062,127.7601 L500.0113,127.8211 L500.0174,127.8821 L500.0246,127.9429 L500.0329,128.0036 L500.0423,128.0642 L500.0527,128.1245 L500.0641,128.1847 L500.0766,128.2447 L500.0902,128.3044 L500.1048,128.3639 L500.1204,128.4231 L500.1371,128.4821 L500.1548,128.5407 L500.1735,128.5990 L500.1933,128.6570 L500.2140,128.7146 L500.2358,128.7719 L500.2585,128.8288 L500.2823,128.8852 L500.3070,128.9413 L500.3327,128.9969 L500.3594,129.0520 L500.3871,129.1067 L500.4157,129.1609 L500.4452,129.2145 L500.4757,129.2677 L500.5071,129.3203 L500.5394,129.3723 L500.5726,129.4238 L500.6067,129.4746 L500.6417,129.5249 L500.6776,129.5746 L500.7143,129.6236 L500.7519,129.6719 L500.7904,129.7196 L500.8296,129.7667 L500.8697,129.8130 L500.9106,129.8586 L500.9523,129.9035 L500.9947,129.9477 L501.0379,129.9911 L501.0819,130.0337 L501.1266,130.0756 L501.1720,130.1167 L501.2182,130.1569 L501.2650,130.1964 L501.3126,130.2350 L501.3608,130.2728 L501.4096,130.3098 L501.4591,130.3459 L501.5092,130.3811 L501.5600,130.4155 L501.6113,130.4489 L501.6632,130.4814 L501.7156,130.5131 L501.7687,130.5438 L501.8222,130.5735 L501.8762,130.6024 L501.9308,130.6303 L501.9858,130.6572 L502.0413,130.6831 L502.0972,130.7081 L502.1536,130.7321 L502.2103,130.7551 L502.2675,130.7771 L502.3251,130.7981 L502.3830,130.8181 L502.4412,130.8371 L502.4998,130.8551 L502.5586,130.8720 L502.6178,130.8879 L502.6772,130.9028 L502.7369,130.9166 L502.7968,130.9293 L502.8569,130.9411 L502.9172,130.9517 L502.9777,130.9613 L503.0384,130.9699 L503.0992,130.9774 L503.1601,130.9838 L503.2211,130.9892 L503.2822,130.9934 L503.3434,130.9967 L503.4046,130.9988 L503.4659,130.9999 L503.5271,130.9999 L503.5884,130.9988 L503.6496,130.9967 L503.7108,130.9934 L503.7719,130.9892 L503.8329,130.9838 L503.8938,130.9774 L503.9546,130.9699 L504.0153,130.9613 L504.0758,130.9517 L504.1361,130.9411 L504.1962,130.9293 L504.2561,130.9166 L504.3158,130.9028 L504.3752,130.8879 L504.4344,130.8720 L504.4932,130.8551 L504.5518,130.8371 L504.6101,130.8181 L504.6680,130.7981 L504.7255,130.7771 L504.7827,130.7551 L504.8394,130.7321 L504.8958,130.7081 L504.9517,130.6831 L505.0072,130.6572 L505.0622,130.6303 L505.1168,130.6024 L505.1708,130.5735 L505.2244,130.5438 L505.2774,130.5131 L505.3298,130.4814 L505.3817,130.4489 L505.4330,130.4155 L505.4838,130.3811 L505.5339,130.3459 L505.5834,130.3098 L505.6322,130.2728 L505.6804,130.2350 L505.7280,130.1964 L505.7748,130.1569 L505.8210,130.1167 L505.8664,130.0756 L505.9111,130.0337 L505.9551,129.9911 L505.9983,129.9477 L506.0408,129.9035 L506.0824,129.8586 L506.1233,129.8130 L506.1634,129.7667 L506.2026,129.7196 L506.2411,129.6719 L506.2787,129.6236 L506.3154,129.5746 L506.3513,129.5249 L506.3863,129.4746 L506.4204,129.4238 L506.4536,129.3723 L506.4859,129.3203 L506.5173,129.2677 L506.5478,129.2145 L506.5773,129.1609 L506.6059,129.1067 L506.6336,129.0520 L506.6603,128.9969 L506.6860,128.9413 L506.7107,128.8852 L506.7345,128.8288 L506.7572,128.7719 L506.7790,128.7146 L506.7997,128.6570 L506.8195,128.5990 L506.8382,128.5407 L506.8559,128.4821 L506.8726,128.4231 L506.8882,128.3639 L506.9028,128.3044 L506.9164,128.2447 L506.9289,128.1847 L506.9403,128.1245 L506.9507,128.0642 L506.9601,128.0036 L506.9684,127.9429 L506.9756,127.8821 L506.9817,127.8211 L506.9868,127.7601 L506.9908,127.6990 L506.9938,127.6378 L506.9957,127.5766 L506.9965,127.5153 L506.9962,127.4541 L506.9949,127.3928 L506.9925,127.3316 L506.9890,127.2705 L506.9844,127.2094 L506.9788,127.1484 L506.9721,127.0875 L506.9644,127.0267 L506.9555,126.9661 L506.9457,126.9056 L506.9347,126.8454 L506.9228,126.7853 L506.9097,126.7254 L506.8956,126.6658 L506.8805,126.6065 L506.8644,126.5474 L506.8472,126.4886 L506.8290,126.4301 L506.8097,126.3719 L506.7895,126.3141 L506.7682,126.2567 L506.7460,126.1996 L506.7227,126.1429 L506.6985,126.0867 L506.6732,126.0309 L506.6470,125.9755 L506.6199,125.9206 L506.5918,125.8662 L506.5627,125.8123 L506.5327,125.7588 L506.5017,125.7060 L506.4699,125.6537 L506.4371,125.6019 L506.4035,125.5507 L506.3689,125.5002 L506.3335,125.4502 L506.2971,125.4009 L506.2600,125.3522 L506.2220,125.3041 L506.1831,125.2568 L506.1434,125.2101 L506.1030,125.1641 L506.0617,125.1189 L506.0196,125.0743 L505.9768,125.0305 L505.9332,124.9875 L505.8888,124.9453 L505.8438,124.9038 L505.7980,124.8631 L505.7515,124.8232 L505.7043,124.7842 L505.6564,124.7459 L505.6079,124.7086 L505.5587,124.6720 L505.5089,124.6364 L505.4585,124.6016 L505.4074,124.5677 L505.3558,124.5347 L505.3037,124.5026 L505.2509,124.4715 L505.1977,124.4412 L505.1439,124.4119 L505.0896,124.3836 L505.0348,124.3562 L504.9795,124.3297 L504.9238,124.3043 L504.8677,124.2798 L504.8111,124.2563 L504.7541,124.2338 L504.6968,124.2122 L504.6390,124.1917 L504.5810,124.1722 L504.5226,124.1538 L504.4639,124.1363 L504.4048,124.1199 L504.3455,124.1045 L504.2860,124.0902 L504.2262,124.0769 L504.1662,124.0647 L504.1059,124.0535 L504.0455,124.0433 L503.9850,124.0343 L503.9242,124.0262 L503.8634,124.0193 L503.8024,124.0134 L503.7413,124.0086 L503.6802,124.0048 L503.6190,124.0021 L503.5578,124.0005 L503.4965,124.0000"></path>
	<path d="M521.6783,124.0000 L521.6171,124.0005 L521.5558,124.0021 L521.4946,124.0048 L521.4335,124.0086 L521.3724,124.0134 L521.3115,124.0193 L521.2506,124.0262 L521.1899,124.0343 L521.1293,124.0433 L521.0689,124.0535 L521.0087,124.0647 L520.9486,124.0769 L520.8888,124.0902 L520.8293,124.1045 L520.7700,124.1199 L520.7110,124.1363 L520.6523,124.1538 L520.5938,124.1722 L520.5358,124.1917 L520.4781,124.2122 L520.4207,124.2338 L520.3637,124.2563 L520.3072,124.2798 L520.2510,124.3043 L520.1953,124.3297 L520.1400,124.3562 L520.0853,124.3836 L520.0310,124.4119 L519.9772,124.4412 L519.9239,124.4715 L519.8712,124.5026 L519.8190,124.5347 L519.7674,124.5677 L519.7164,124.6016 L519.6659,124.6364 L519.6161,124.6720 L519.5669,124.7086 L519.5184,124.7459 L519.4705,124.7842 L519.4234,124.8232 L519.3769,124.8631 L519.3311,124.9038 L519.2860,124.9453 L519.2416,124.9875 L519.1980,125.0305 L519.1552,125.0743 L519.1131,125.1189 L519.0719,125.1641 L519.0314,125.2101 L518.9917,125.2568 L518.9529,125.3041 L518.9148,125.3522 L518.8777,125.4009 L518.8414,125.4502 L518.8059,125.5002 L518.7714,125.5507 L518.7377,125.6019 L518.7049,125.6537 L518.6731,125.7060 L518.6421,125.7588 L518.6121,125.8123 L518.5831,125.8662 L518.5549,125.9206 L518.5278,125.9755 L518.5016,126.0309 L518.4764,126.0867 L518.4521,126.1429 L518.4289,126.1996 L518.4066,126.2567 L518.3853,126.3141 L518.3651,126.3719 L518.3459,126.4301 L518.3276,126.4886 L518.3105,126.5474 L518.2943,126.6065 L518.2792,126.6658 L518.2651,126.7254 L518.2521,126.7853 L518.2401,126.8454 L518.2292,126.9056 L518.2193,126.9661 L518.2105,127.0267 L518.2027,127.0875 L518.1960,127.1484 L518.1904,127.2094 L518.1859,127.2705 L518.1824,127.3316 L518.1800,127.3928 L518.1786,127.4541 L518.1784,127.5153 L518.1792,127.5766 L518.1810,127.6378 L518.1840,127.6990 L518.1880,127.7601 L518.1931,127.8211 L518.1992,127.8821 L518.2065,127.9429 L518.2147,128.0036 L518.2241,128.0642 L518.2345,128.1245 L518.2459,128.1847 L518.2585,128.2447 L518.2720,128.3044 L518.2866,128.3639 L518.3022,128.4231 L518.3189,128.4821 L518.3366,128.5407 L518.3553,128.5990 L518.3751,128.6570 L518.3958,128.7146 L518.4176,128.7719 L518.4404,128.8288 L518.4641,128.8852 L518.4889,128.9413 L518.5146,128.9969 L518.5412,129.0520 L518.5689,129.1067 L518.5975,129.1609 L518.6270,129.2145 L518.6575,129.2677 L518.6889,129.3203 L518.7212,129.3723 L518.7544,129.4238 L518.7885,129.4746 L518.8235,129.5249 L518.8594,129.5746 L518.8962,129.6236 L518.9337,129.6719 L518.9722,129.7196 L519.0114,129.7667 L519.0515,129.8130 L519.0924,129.8586 L519.1341,129.9035 L519.1765,129.9477 L519.2197,129.9911 L519.2637,130.0337 L519.3084,130.0756 L519.3539,130.1167 L519.4000,130.1569 L519.4469,130.1964 L519.4944,130.2350 L519.5426,130.2728 L519.5915,130.3098 L519.6409,130.3459 L519.6911,130.3811 L519.7418,130.4155 L519.7931,130.4489 L519.8450,130.4814 L519.8975,130.5131 L519.9505,130.5438 L520.0040,130.5735 L520.0581,130.6024 L520.1126,130.6303 L520.1676,130.6572 L520.2231,130.6831 L520.2790,130.7081 L520.3354,130.7321 L520.3922,130.7551 L520.4493,130.7771 L520.5069,130.7981 L520.5648,130.8181 L520.6230,130.8371 L520.6816,130.8551 L520.7404,130.8720 L520.7996,130.8879 L520.8590,130.9028 L520.9187,130.9166 L520.9786,130.9293 L521.0387,130.9411 L521.0991,130.9517 L521.1596,130.9613 L521.2202,130.9699 L521.2810,130.9774 L521.3419,130.9838 L521.4030,130.9892 L521.4641,130.9934 L521.5252,130.9967 L521.5864,130.9988 L521.6477,130.9999 L521.7089,130.9999 L521.7702,130.9988 L521.8314,130.9967 L521.8926,130.9934 L521.9537,130.9892 L522.0147,130.9838 L522.0756,130.9774 L522.1364,130.9699 L522.1971,130.9613 L522.2576,130.9517 L522.3179,130.9411 L522.3780,130.9293 L522.4379,130.9166 L522.4976,130.9028 L522.5570,130.8879 L522.6162,130.8720 L522.6751,130.8551 L522.7336,130.8371 L522.7919,130.8181 L522.8498,130.7981 L522.9073,130.7771 L522.9645,130.7551 L523.0213,130.7321 L523.0776,130.7081 L523.1335,130.6831 L523.1890,130.6572 L523.2440,130.6303 L523.2986,130.6024 L523.3526,130.5735 L523.4062,130.5438 L523.4592,130.5131 L523.5116,130.4814 L523.5635,130.4489 L523.6149,130.4155 L523.6656,130.3811 L523.7157,130.3459 L523.7652,130.3098 L523.8140,130.2728 L523.8622,130.2350 L523.9098,130.1964 L523.9566,130.1569 L524.0028,130.1167 L524.0482,130.0756 L524.0929,130.0337 L524.1369,129.9911 L524.1801,129.9477 L524.2226,129.9035 L524.2642,129.8586 L524.3051,129.8130 L524.3452,129.7667 L524.3845,129.7196 L524.4229,129.6719 L524.4605,129.6236 L524.4972,129.5746 L524.5331,129.5249 L524.5681,129.4746 L524.6022,129.4238 L524.6354,129.3723 L524.6678,129.3203 L524.6991,129.2677 L524.7296,129.2145 L524.7592,129.1609 L524.7878,129.1067 L524.8154,129.0520 L524.8421,128.9969 L524.8678,128.9413 L524.8925,128.8852 L524.9163,128.8288 L524.9390,128.7719 L524.9608,128.7146 L524.9816,128.6570 L525.0013,128.5990 L525.0200,128.5407 L525.0377,128.4821 L525.0544,128.4231 L525.0700,128.3639 L525.0846,128.3044 L525.0982,128.2447 L525.1107,128.1847 L525.1222,128.1245 L525.1326,128.0642 L525.1419,128.0036 L525.1502,127.9429 L525.1574,127.8821 L525.1636,127.8211 L525.1686,127.7601 L525.1727,127.6990 L525.1756,127.6378 L525.1775,127.5766 L525.1783,127.5153 L525.1780,127.4541 L525.1767,127.3928 L525.1743,127.3316 L525.1708,127.2705 L525.1662,127.2094 L525.1606,127.1484 L525.1539,127.0875 L525.1462,127.0267 L525.1374,126.9661 L525.1275,126.9056 L525.1166,126.8454 L525.1046,126.7853 L525.0915,126.7254 L525.0775,126.6658 L525.0623,126.6065 L525.0462,126.5474 L525.0290,126.4886 L525.0108,126.4301 L524.9916,126.3719 L524.9713,126.3141 L524.9500,126.2567 L524.9278,126.1996 L524.9045,126.1429 L524.8803,126.0867 L524.8551,126.0309 L524.8289,125.9755 L524.8017,125.9206 L524.7736,125.8662 L524.7445,125.8123 L524.7145,125.7588 L524.6836,125.7060 L524.6517,125.6537 L524.6189,125.6019 L524.5853,125.5507 L524.5507,125.5002 L524.5153,125.4502 L524.4790,125.4009 L524.4418,125.3522 L524.4038,125.3041 L524.3649,125.2568 L524.3253,125.2101 L524.2848,125.1641 L524.2435,125.1189 L524.2014,125.0743 L524.1586,125.0305 L524.1150,124.9875 L524.0707,124.9453 L524.0256,124.9038 L523.9798,124.8631 L523.9333,124.8232 L523.8861,124.7842 L523.8382,124.7459 L523.7897,124.7086 L523.7405,124.6720 L523.6907,124.6364 L523.6403,124.6016 L523.5893,124.5677 L523.5377,124.5347 L523.4855,124.5026 L523.4327,124.4715 L523.3795,124.4412 L523.3257,124.4119 L523.2714,124.3836 L523.2166,124.3562 L523.1613,124.3297 L523.1056,124.3043 L523.0495,124.2798 L522.9929,124.2563 L522.9359,124.2338 L522.8786,124.2122 L522.8209,124.1917 L522.7628,124.1722 L522.7044,124.1538 L522.6457,124.1363 L522.5867,124.1199 L522.5274,124.1045 L522.4678,124.0902 L522.4080,124.0769 L522.3480,124.0647 L522.2878,124.0535 L522.2274,124.0433 L522.1668,124.0343 L522.1060,124.0262 L522.0452,124.0193 L521.9842,124.0134 L521.9231,124.0086 L521.8620,124.0048 L521.8008,124.0021 L521.7396,124.0005 L521.6783,124.0000"></path>
	<path d="M539.8601,124.0000 L539.7989,124.0005 L539.7377,124.0021 L539.6765,124.0048 L539.6153,124.0086 L539.5542,124.0134 L539.4933,124.0193 L539.4324,124.0262 L539.3717,124.0343 L539.3111,124.0433 L539.2507,124.0535 L539.1905,124.0647 L539.1305,124.0769 L539.0707,124.0902 L539.0111,124.1045 L538.9518,124.1199 L538.8928,124.1363 L538.8341,124.1538 L538.7757,124.1722 L538.7176,124.1917 L538.6599,124.2122 L538.6025,124.2338 L538.5455,124.2563 L538.4890,124.2798 L538.4328,124.3043 L538.3771,124.3297 L538.3219,124.3562 L538.2671,124.3836 L538.2128,124.4119 L538.1590,124.4412 L538.1057,124.4715 L538.0530,124.5026 L538.0008,124.5347 L537.9492,124.5677 L537.8982,124.6016 L537.8477,124.6364 L537.7979,124.6720 L537.7488,124.7086 L537.7002,124.7459 L537.6524,124.7842 L537.6052,124.8232 L537.5587,124.8631 L537.5129,124.9038 L537.4678,124.9453 L537.4235,124.9875 L537.3799,125.0305 L537.3370,125.0743 L537.2950,125.1189 L537.2537,125.1641 L537.2132,125.2101 L537.1735,125.2568 L537.1347,125.3041 L537.0967,125.3522 L537.0595,125.4009 L537.0232,125.4502 L536.9878,125.5002 L536.9532,125.5507 L536.9195,125.6019 L536.8868,125.6537 L536.8549,125.7060 L536.8240,125.7588 L536.7940,125.8123 L536.7649,125.8662 L536.7368,125.9206 L536.7096,125.9755 L536.6834,126.0309 L536.6582,126.0867 L536.6339,126.1429 L536.6107,126.1996 L536.5884,126.2567 L536.5672,126.3141 L536.5469,126.3719 L536.5277,126.4301 L536.5095,126.4886 L536.4923,126.5474 L536.4761,126.6065 L536.4610,126.6658 L536.4469,126.7254 L536.4339,126.7853 L536.4219,126.8454 L536.4110,126.9056 L536.4011,126.9661 L536.3923,127.0267 L536.3845,127.0875 L536.3778,127.1484 L536.3722,127.2094 L536.3677,127.2705 L536.3642,127.3316 L536.3618,127.3928 L536.3604,127.4541 L536.3602,127.5153 L536.3610,127.5766 L536.3629,127.6378 L536.3658,127.6990 L536.3698,127.7601 L536.3749,127.8211 L536.3811,127.8821 L536.3883,127.9429 L536.3966,128.0036 L536.4059,128.0642 L536.4163,128.1245 L536.4278,128.1847 L536.4403,128.2447 L536.4538,128.3044 L536.4684,128.3639 L536.4841,128.4231 L536.5007,128.4821 L536.5184,128.5407 L536.5372,128.5990 L536.5569,128.6570 L536.5777,128.7146 L536.5994,128.7719 L536.6222,128.8288 L536.6459,128.8852 L536.6707,128.9413 L536.6964,128.9969 L536.7231,129.0520 L536.7507,129.1067 L536.7793,129.1609 L536.8088,129.2145 L536.8393,129.2677 L536.8707,129.3203 L536.9030,129.3723 L536.9362,129.4238 L536.9704,129.4746 L537.0054,129.5249 L537.0412,129.5746 L537.0780,129.6236 L537.1156,129.6719 L537.1540,129.7196 L537.1933,129.7667 L537.2333,129.8130 L537.2742,129.8586 L537.3159,129.9035 L537.3583,129.9477 L537.4016,129.9911 L537.4455,130.0337 L537.4902,130.0756 L537.5357,130.1167 L537.5818,130.1569 L537.6287,130.1964 L537.6762,130.2350 L537.7244,130.2728 L537.7733,130.3098 L537.8228,130.3459 L537.8729,130.3811 L537.9236,130.4155 L537.9749,130.4489 L538.0268,130.4814 L538.0793,130.5131 L538.1323,130.5438 L538.1858,130.5735 L538.2399,130.6024 L538.2944,130.6303 L538.3494,130.6572 L538.4049,130.6831 L538.4609,130.7081 L538.5172,130.7321 L538.5740,130.7551 L538.6311,130.7771 L538.6887,130.7981 L538.7466,130.8181 L538.8048,130.8371 L538.8634,130.8551 L538.9223,130.8720 L538.9814,130.8879 L539.0408,130.9028 L539.1005,130.9166 L539.1604,130.9293 L539.2206,130.9411 L539.2809,130.9517 L539.3414,130.9613 L539.4020,130.9699 L539.4628,130.9774 L539.5237,130.9838 L539.5848,130.9892 L539.6459,130.9934 L539.7070,130.9967 L539.7683,130.9988 L539.8295,130.9999 L539.8908,130.9999 L539.9520,130.9988 L540.0132,130.9967 L540.0744,130.9934 L540.1355,130.9892 L540.1965,130.9838 L540.2575,130.9774 L540.3182,130.9699 L540.3789,130.9613 L540.4394,130.9517 L540.4997,130.9411 L540.5598,130.9293 L540.6198,130.9166 L540.6794,130.9028 L540.7389,130.8879 L540.7980,130.8720 L540.8569,130.8551 L540.9154,130.8371 L540.9737,130.8181 L541.0316,130.7981 L541.0891,130.7771 L541.1463,130.7551 L541.2031,130.7321 L541.2594,130.7081 L541.3154,130.6831 L541.3708,130.6572 L541.4259,130.6303 L541.4804,130.6024 L541.5345,130.5735 L541.5880,130.5438 L541.6410,130.5131 L541.6935,130.4814 L541.7454,130.4489 L541.7967,130.4155 L541.8474,130.3811 L541.8975,130.3459 L541.9470,130.3098 L541.9959,130.2728 L542.0441,130.2350 L542.0916,130.1964 L542.1384,130.1569 L542.1846,130.1167 L542.2300,130.0756 L542.2747,130.0337 L542.3187,129.9911 L542.3619,129.9477 L542.4044,129.9035 L542.4461,129.8586 L542.4869,129.8130 L542.5270,129.7667 L542.5663,129.7196 L542.6047,129.6719 L542.6423,129.6236 L542.6790,129.5746 L542.7149,129.5249 L542.7499,129.4746 L542.7840,129.4238 L542.8173,129.3723 L542.8496,129.3203 L542.8810,129.2677 L542.9114,129.2145 L542.9410,129.1609 L542.9696,129.1067 L542.9972,129.0520 L543.0239,128.9969 L543.0496,128.9413 L543.0743,128.8852 L543.0981,128.8288 L543.1209,128.7719 L543.1426,128.7146 L543.1634,128.6570 L543.1831,128.5990 L543.2018,128.5407 L543.2195,128.4821 L543.2362,128.4231 L543.2519,128.3639 L543.2664,128.3044 L543.2800,128.2447 L543.2925,128.1847 L543.3040,128.1245 L543.3144,128.0642 L543.3237,128.0036 L543.3320,127.9429 L543.3392,127.8821 L543.3454,127.8211 L543.3505,127.7601 L543.3545,127.6990 L543.3574,127.6378 L543.3593,127.5766 L543.3601,127.5153 L543.3598,127.4541 L543.3585,127.3928 L543.3561,127.3316 L543.3526,127.2705 L543.3481,127.2094 L543.3424,127.1484 L543.3357,127.0875 L543.3280,127.0267 L543.3192,126.9661 L543.3093,126.9056 L543.2984,126.8454 L543.2864,126.7853 L543.2734,126.7254 L543.2593,126.6658 L543.2442,126.6065 L543.2280,126.5474 L543.2108,126.4886 L543.1926,126.4301 L543.1734,126.3719 L543.1531,126.3141 L543.1319,126.2567 L543.1096,126.1996 L543.0863,126.1429 L543.0621,126.0867 L543.0369,126.0309 L543.0107,125.9755 L542.9835,125.9206 L542.9554,125.8662 L542.9263,125.8123 L542.8963,125.7588 L542.8654,125.7060 L542.8335,125.6537 L542.8008,125.6019 L542.7671,125.5507 L542.7325,125.5002 L542.6971,125.4502 L542.6608,125.4009 L542.6236,125.3522 L542.5856,125.3041 L542.5468,125.2568 L542.5071,125.2101 L542.4666,125.1641 L542.4253,125.1189 L542.3833,125.0743 L542.3404,125.0305 L542.2968,124.9875 L542.2525,124.9453 L542.2074,124.9038 L542.1616,124.8631 L542.1151,124.8232 L542.0679,124.7842 L542.0200,124.7459 L541.9715,124.7086 L541.9223,124.6720 L541.8725,124.6364 L541.8221,124.6016 L541.7711,124.5677 L541.7195,124.5347 L541.6673,124.5026 L541.6146,124.4715 L541.5613,124.4412 L541.5075,124.4119 L541.4532,124.3836 L541.3984,124.3562 L541.3432,124.3297 L541.2874,124.3043 L541.2313,124.2798 L541.1747,124.2563 L541.1178,124.2338 L541.0604,124.2122 L541.0027,124.1917 L540.9446,124.1722 L540.8862,124.1538 L540.8275,124.1363 L540.7685,124.1199 L540.7092,124.1045 L540.6496,124.0902 L540.5898,124.0769 L540.5298,124.0647 L540.4696,124.0535 L540.4092,124.0433 L540.3486,124.0343 L540.2879,124.0262 L540.2270,124.0193 L540.1660,124.0134 L540.1050,124.0086 L540.0438,124.0048 L539.9826,124.0021 L539.9214,124.0005 L539.8601,124.0000"></path>
	<path d="M558.0420,124.0000 L557.9807,124.0005 L557.9195,124.0021 L557.8583,124.0048 L557.7971,124.0086 L557.7361,124.0134 L557.6751,124.0193 L557.6142,124.0262 L557.5535,124.0343 L557.4929,124.0433 L557.4325,124.0535 L557.3723,124.0647 L557.3123,124.0769 L557.2525,124.0902 L557.1929,124.1045 L557.1336,124.1199 L557.0746,124.1363 L557.0159,124.1538 L556.9575,124.1722 L556.8994,124.1917 L556.8417,124.2122 L556.7843,124.2338 L556.7274,124.2563 L556.6708,124.2798 L556.6147,124.3043 L556.5589,124.3297 L556.5037,124.3562 L556.4489,124.3836 L556.3946,124.4119 L556.3408,124.4412 L556.2875,124.4715 L556.2348,124.5026 L556.1826,124.5347 L556.1310,124.5677 L556.0800,124.6016 L556.0296,124.6364 L555.9798,124.6720 L555.9306,124.7086 L555.8821,124.7459 L555.8342,124.7842 L555.7870,124.8232 L555.7405,124.8631 L555.6947,124.9038 L555.6496,124.9453 L555.6053,124.9875 L555.5617,125.0305 L555.5188,125.0743 L555.4768,125.1189 L555.4355,125.1641 L555.3950,125.2101 L555.3553,125.2568 L555.3165,125.3041 L555.2785,125.3522 L555.2413,125.4009 L555.2050,125.4502 L555.1696,125.5002 L555.1350,125.5507 L555.1013,125.6019 L555.0686,125.6537 L555.0367,125.7060 L555.0058,125.7588 L554.9758,125.8123 L554.9467,125.8662 L554.9186,125.9206 L554.8914,125.9755 L554.8652,126.0309 L554.8400,126.0867 L554.8158,126.1429 L554.7925,126.1996 L554.7702,126.2567 L554.7490,126.3141 L554.7287,126.3719 L554.7095,126.4301 L554.6913,126.4886 L554.6741,126.5474 L554.6579,126.6065 L554.6428,126.6658 L554.6287,126.7254 L554.6157,126.7853 L554.6037,126.8454 L554.5928,126.9056 L554.5829,126.9661 L554.5741,127.0267 L554.5664,127.0875 L554.5597,127.1484 L554.5540,127.2094 L554.5495,127.2705 L554.5460,127.3316 L554.5436,127.3928 L554.5423,127.4541 L554.5420,127.5153 L554.5428,127.5766 L554.5447,127.6378 L554.5476,127.6990 L554.5516,127.7601 L554.5567,127.8211 L554.5629,127.8821 L554.5701,127.9429 L554.5784,128.0036 L554.5877,128.0642 L554.5981,128.1245 L554.6096,128.1847 L554.6221,128.2447 L554.6356,128.3044 L554.6502,128.3639 L554.6659,128.4231 L554.6826,128.4821 L554.7003,128.5407 L554.7190,128.5990 L554.7387,128.6570 L554.7595,128.7146 L554.7812,128.7719 L554.8040,128.8288 L554.8278,128.8852 L554.8525,128.9413 L554.8782,128.9969 L554.9049,129.0520 L554.9325,129.1067 L554.9611,129.1609 L554.9907,129.2145 L555.0211,129.2677 L555.0525,129.3203 L555.0848,129.3723 L555.1181,129.4238 L555.1522,129.4746 L555.1872,129.5249 L555.2231,129.5746 L555.2598,129.6236 L555.2974,129.6719 L555.3358,129.7196 L555.3751,129.7667 L555.4152,129.8130 L555.4560,129.8586 L555.4977,129.9035 L555.5402,129.9477 L555.5834,129.9911 L555.6274,130.0337 L555.6721,130.0756 L555.7175,130.1167 L555.7637,130.1569 L555.8105,130.1964 L555.8580,130.2350 L555.9062,130.2728 L555.9551,130.3098 L556.0046,130.3459 L556.0547,130.3811 L556.1054,130.4155 L556.1567,130.4489 L556.2086,130.4814 L556.2611,130.5131 L556.3141,130.5438 L556.3676,130.5735 L556.4217,130.6024 L556.4762,130.6303 L556.5313,130.6572 L556.5867,130.6831 L556.6427,130.7081 L556.6990,130.7321 L556.7558,130.7551 L556.8130,130.7771 L556.8705,130.7981 L556.9284,130.8181 L556.9866,130.8371 L557.0452,130.8551 L557.1041,130.8720 L557.1632,130.8879 L557.2227,130.9028 L557.2823,130.9166 L557.3423,130.9293 L557.4024,130.9411 L557.4627,130.9517 L557.5232,130.9613 L557.5839,130.9699 L557.6446,130.9774 L557.7056,130.9838 L557.7666,130.9892 L557.8277,130.9934 L557.8889,130.9967 L557.9501,130.9988 L558.0113,130.9999 L558.0726,130.9999 L558.1338,130.9988 L558.1951,130.9967 L558.2562,130.9934 L558.3173,130.9892 L558.3783,130.9838 L558.4393,130.9774 L558.5001,130.9699 L558.5607,130.9613 L558.6212,130.9517 L558.6815,130.9411 L558.7417,130.9293 L558.8016,130.9166 L558.8613,130.9028 L558.9207,130.8879 L558.9798,130.8720 L559.0387,130.8551 L559.0973,130.8371 L559.1555,130.8181 L559.2134,130.7981 L559.2710,130.7771 L559.3281,130.7551 L559.3849,130.7321 L559.4412,130.7081 L559.4972,130.6831 L559.5527,130.6572 L559.6077,130.6303 L559.6622,130.6024 L559.7163,130.5735 L559.7698,130.5438 L559.8228,130.5131 L559.8753,130.4814 L559.9272,130.4489 L559.9785,130.4155 L560.0292,130.3811 L560.0793,130.3459 L560.1288,130.3098 L560.1777,130.2728 L560.2259,130.2350 L560.2734,130.1964 L560.3203,130.1569 L560.3664,130.1167 L560.4119,130.0756 L560.4566,130.0337 L560.5005,129.9911 L560.5438,129.9477 L560.5862,129.9035 L560.6279,129.8586 L560.6688,129.8130 L560.7088,129.7667 L560.7481,129.7196 L560.7865,129.6719 L560.8241,129.6236 L560.8609,129.5746 L560.8967,129.5249 L560.9317,129.4746 L560.9659,129.4238 L560.9991,129.3723 L561.0314,129.3203 L561.0628,129.2677 L561.0933,129.2145 L561.1228,129.1609 L561.1514,129.1067 L561.1790,129.0520 L561.2057,128.9969 L561.2314,128.9413 L561.2562,128.8852 L561.2799,128.8288 L561.3027,128.7719 L561.3244,128.7146 L561.3452,128.6570 L561.3649,128.5990 L561.3837,128.5407 L561.4014,128.4821 L561.4180,128.4231 L561.4337,128.3639 L561.4483,128.3044 L561.4618,128.2447 L561.4743,128.1847 L561.4858,128.1245 L561.4962,128.0642 L561.5055,128.0036 L561.5138,127.9429 L561.5210,127.8821 L561.5272,127.8211 L561.5323,127.7601 L561.5363,127.6990 L561.5392,127.6378 L561.5411,127.5766 L561.5419,127.5153 L561.5417,127.4541 L561.5403,127.3928 L561.5379,127.3316 L561.5344,127.2705 L561.5299,127.2094 L561.5242,127.1484 L561.5176,127.0875 L561.5098,127.0267 L561.5010,126.9661 L561.4911,126.9056 L561.4802,126.8454 L561.4682,126.7853 L561.4552,126.7254 L561.4411,126.6658 L561.4260,126.6065 L561.4098,126.5474 L561.3926,126.4886 L561.3744,126.4301 L561.3552,126.3719 L561.3349,126.3141 L561.3137,126.2567 L561.2914,126.1996 L561.2682,126.1429 L561.2439,126.0867 L561.2187,126.0309 L561.1925,125.9755 L561.1653,125.9206 L561.1372,125.8662 L561.1081,125.8123 L561.0781,125.7588 L561.0472,125.7060 L561.0153,125.6537 L560.9826,125.6019 L560.9489,125.5507 L560.9143,125.5002 L560.8789,125.4502 L560.8426,125.4009 L560.8054,125.3522 L560.7674,125.3041 L560.7286,125.2568 L560.6889,125.2101 L560.6484,125.1641 L560.6071,125.1189 L560.5651,125.0743 L560.5222,125.0305 L560.4786,124.9875 L560.4343,124.9453 L560.3892,124.9038 L560.3434,124.8631 L560.2969,124.8232 L560.2497,124.7842 L560.2019,124.7459 L560.1533,124.7086 L560.1042,124.6720 L560.0544,124.6364 L560.0039,124.6016 L559.9529,124.5677 L559.9013,124.5347 L559.8491,124.5026 L559.7964,124.4715 L559.7431,124.4412 L559.6893,124.4119 L559.6350,124.3836 L559.5802,124.3562 L559.5250,124.3297 L559.4693,124.3043 L559.4131,124.2798 L559.3566,124.2563 L559.2996,124.2338 L559.2422,124.2122 L559.1845,124.1917 L559.1264,124.1722 L559.0680,124.1538 L559.0093,124.1363 L558.9503,124.1199 L558.8910,124.1045 L558.8314,124.0902 L558.7716,124.0769 L558.7116,124.0647 L558.6514,124.0535 L558.5910,124.0433 L558.5304,124.0343 L558.4697,124.0262 L558.4088,124.0193 L558.3479,124.0134 L558.2868,124.0086 L558.2256,124.0048 L558.1644,124.0021 L558.1032,124.0005 L558.0420,124.0000"></path>
	<path d="M576.2238,124.0000 L576.1625,124.0005 L576.1013,124.0021 L576.0401,124.0048 L575.9789,124.0086 L575.9179,124.0134 L575.8569,124.0193 L575.7961,124.0262 L575.7353,124.0343 L575.6747,124.0433 L575.6143,124.0535 L575.5541,124.0647 L575.4941,124.0769 L575.4343,124.0902 L575.3747,124.1045 L575.3154,124.1199 L575.2564,124.1363 L575.1977,124.1538 L575.1393,124.1722 L575.0812,124.1917 L575.0235,124.2122 L574.9662,124.2338 L574.9092,124.2563 L574.8526,124.2798 L574.7965,124.3043 L574.7408,124.3297 L574.6855,124.3562 L574.6307,124.3836 L574.5764,124.4119 L574.5226,124.4412 L574.4694,124.4715 L574.4166,124.5026 L574.3644,124.5347 L574.3128,124.5677 L574.2618,124.6016 L574.2114,124.6364 L574.1616,124.6720 L574.1124,124.7086 L574.0639,124.7459 L574.0160,124.7842 L573.9688,124.8232 L573.9223,124.8631 L573.8765,124.9038 L573.8314,124.9453 L573.7871,124.9875 L573.7435,125.0305 L573.7007,125.0743 L573.6586,125.1189 L573.6173,125.1641 L573.5768,125.2101 L573.5372,125.2568 L573.4983,125.3041 L573.4603,125.3522 L573.4231,125.4009 L573.3868,125.4502 L573.3514,125.5002 L573.3168,125.5507 L573.2832,125.6019 L573.2504,125.6537 L573.2185,125.7060 L573.1876,125.7588 L573.1576,125.8123 L573.1285,125.8662 L573.1004,125.9206 L573.0732,125.9755 L573.0470,126.0309 L573.0218,126.0867 L572.9976,126.1429 L572.9743,126.1996 L572.9521,126.2567 L572.9308,126.3141 L572.9105,126.3719 L572.8913,126.4301 L572.8731,126.4886 L572.8559,126.5474 L572.8398,126.6065 L572.8246,126.6658 L572.8106,126.7254 L572.7975,126.7853 L572.7855,126.8454 L572.7746,126.9056 L572.7647,126.9661 L572.7559,127.0267 L572.7482,127.0875 L572.7415,127.1484 L572.7359,127.2094 L572.7313,127.2705 L572.7278,127.3316 L572.7254,127.3928 L572.7241,127.4541 L572.7238,127.5153 L572.7246,127.5766 L572.7265,127.6378 L572.7294,127.6990 L572.7335,127.7601 L572.7385,127.8211 L572.7447,127.8821 L572.7519,127.9429 L572.7602,128.0036 L572.7695,128.0642 L572.7799,128.1245 L572.7914,128.1847 L572.8039,128.2447 L572.8175,128.3044 L572.8321,128.3639 L572.8477,128.4231 L572.8644,128.4821 L572.8821,128.5407 L572.9008,128.5990 L572.9205,128.6570 L572.9413,128.7146 L572.9631,128.7719 L572.9858,128.8288 L573.0096,128.8852 L573.0343,128.9413 L573.0600,128.9969 L573.0867,129.0520 L573.1143,129.1067 L573.1429,129.1609 L573.1725,129.2145 L573.2029,129.2677 L573.2343,129.3203 L573.2667,129.3723 L573.2999,129.4238 L573.3340,129.4746 L573.3690,129.5249 L573.4049,129.5746 L573.4416,129.6236 L573.4792,129.6719 L573.5176,129.7196 L573.5569,129.7667 L573.5970,129.8130 L573.6379,129.8586 L573.6795,129.9035 L573.7220,129.9477 L573.7652,129.9911 L573.8092,130.0337 L573.8539,130.0756 L573.8993,130.1167 L573.9455,130.1569 L573.9923,130.1964 L574.0399,130.2350 L574.0881,130.2728 L574.1369,130.3098 L574.1864,130.3459 L574.2365,130.3811 L574.2872,130.4155 L574.3386,130.4489 L574.3905,130.4814 L574.4429,130.5131 L574.4959,130.5438 L574.5495,130.5735 L574.6035,130.6024 L574.6580,130.6303 L574.7131,130.6572 L574.7686,130.6831 L574.8245,130.7081 L574.8808,130.7321 L574.9376,130.7551 L574.9948,130.7771 L575.0523,130.7981 L575.1102,130.8181 L575.1685,130.8371 L575.2270,130.8551 L575.2859,130.8720 L575.3451,130.8879 L575.4045,130.9028 L575.4642,130.9166 L575.5241,130.9293 L575.5842,130.9411 L575.6445,130.9517 L575.7050,130.9613 L575.7657,130.9699 L575.8265,130.9774 L575.8874,130.9838 L575.9484,130.9892 L576.0095,130.9934 L576.0707,130.9967 L576.1319,130.9988 L576.1931,130.9999 L576.2544,130.9999 L576.3157,130.9988 L576.3769,130.9967 L576.4380,130.9934 L576.4991,130.9892 L576.5602,130.9838 L576.6211,130.9774 L576.6819,130.9699 L576.7425,130.9613 L576.8030,130.9517 L576.8634,130.9411 L576.9235,130.9293 L576.9834,130.9166 L577.0431,130.9028 L577.1025,130.8879 L577.1617,130.8720 L577.2205,130.8551 L577.2791,130.8371 L577.3373,130.8181 L577.3952,130.7981 L577.4528,130.7771 L577.5099,130.7551 L577.5667,130.7321 L577.6231,130.7081 L577.6790,130.6831 L577.7345,130.6572 L577.7895,130.6303 L577.8440,130.6024 L577.8981,130.5735 L577.9516,130.5438 L578.0046,130.5131 L578.0571,130.4814 L578.1090,130.4489 L578.1603,130.4155 L578.2110,130.3811 L578.2612,130.3459 L578.3106,130.3098 L578.3595,130.2728 L578.4077,130.2350 L578.4552,130.1964 L578.5021,130.1569 L578.5482,130.1167 L578.5937,130.0756 L578.6384,130.0337 L578.6824,129.9911 L578.7256,129.9477 L578.7680,129.9035 L578.8097,129.8586 L578.8506,129.8130 L578.8907,129.7667 L578.9299,129.7196 L578.9684,129.6719 L579.0059,129.6236 L579.0427,129.5746 L579.0786,129.5249 L579.1136,129.4746 L579.1477,129.4238 L579.1809,129.3723 L579.2132,129.3203 L579.2446,129.2677 L579.2751,129.2145 L579.3046,129.1609 L579.3332,129.1067 L579.3609,129.0520 L579.3875,128.9969 L579.4132,128.9413 L579.4380,128.8852 L579.4617,128.8288 L579.4845,128.7719 L579.5063,128.7146 L579.5270,128.6570 L579.5467,128.5990 L579.5655,128.5407 L579.5832,128.4821 L579.5998,128.4231 L579.6155,128.3639 L579.6301,128.3044 L579.6436,128.2447 L579.6562,128.1847 L579.6676,128.1245 L579.6780,128.0642 L579.6874,128.0036 L579.6956,127.9429 L579.7029,127.8821 L579.7090,127.8211 L579.7141,127.7601 L579.7181,127.6990 L579.7211,127.6378 L579.7229,127.5766 L579.7237,127.5153 L579.7235,127.4541 L579.7221,127.3928 L579.7197,127.3316 L579.7162,127.2705 L579.7117,127.2094 L579.7061,127.1484 L579.6994,127.0875 L579.6916,127.0267 L579.6828,126.9661 L579.6729,126.9056 L579.6620,126.8454 L579.6500,126.7853 L579.6370,126.7254 L579.6229,126.6658 L579.6078,126.6065 L579.5916,126.5474 L579.5745,126.4886 L579.5562,126.4301 L579.5370,126.3719 L579.5168,126.3141 L579.4955,126.2567 L579.4732,126.1996 L579.4500,126.1429 L579.4257,126.0867 L579.4005,126.0309 L579.3743,125.9755 L579.3472,125.9206 L579.3190,125.8662 L579.2900,125.8123 L579.2600,125.7588 L579.2290,125.7060 L579.1972,125.6537 L579.1644,125.6019 L579.1307,125.5507 L579.0962,125.5002 L579.0607,125.4502 L579.0244,125.4009 L578.9873,125.3522 L578.9492,125.3041 L578.9104,125.2568 L578.8707,125.2101 L578.8302,125.1641 L578.7890,125.1189 L578.7469,125.0743 L578.7041,125.0305 L578.6605,124.9875 L578.6161,124.9453 L578.5710,124.9038 L578.5252,124.8631 L578.4787,124.8232 L578.4316,124.7842 L578.3837,124.7459 L578.3352,124.7086 L578.2860,124.6720 L578.2362,124.6364 L578.1857,124.6016 L578.1347,124.5677 L578.0831,124.5347 L578.0309,124.5026 L577.9782,124.4715 L577.9249,124.4412 L577.8711,124.4119 L577.8168,124.3836 L577.7621,124.3562 L577.7068,124.3297 L577.6511,124.3043 L577.5949,124.2798 L577.5384,124.2563 L577.4814,124.2338 L577.4240,124.2122 L577.3663,124.1917 L577.3082,124.1722 L577.2498,124.1538 L577.1911,124.1363 L577.1321,124.1199 L577.0728,124.1045 L577.0133,124.0902 L576.9535,124.0769 L576.8934,124.0647 L576.8332,124.0535 L576.7728,124.0433 L576.7122,124.0343 L576.6515,124.0262 L576.5906,124.0193 L576.5297,124.0134 L576.4686,124.0086 L576.4075,124.0048 L576.3463,124.0021 L576.2850,124.0005 L576.2238,124.0000"></path>
	<path d="M594.4056,124.0000 L594.3443,124.0005 L594.2831,124.0021 L594.2219,124.0048 L594.1608,124.0086 L594.0997,124.0134 L594.0387,124.0193 L593.9779,124.0262 L593.9171,124.0343 L593.8566,124.0433 L593.7962,124.0535 L593.7359,124.0647 L593.6759,124.0769 L593.6161,124.0902 L593.5566,124.1045 L593.4973,124.1199 L593.4382,124.1363 L593.3795,124.1538 L593.3211,124.1722 L593.2630,124.1917 L593.2053,124.2122 L593.1480,124.2338 L593.0910,124.2563 L593.0344,124.2798 L592.9783,124.3043 L592.9226,124.3297 L592.8673,124.3562 L592.8125,124.3836 L592.7582,124.4119 L592.7044,124.4412 L592.6512,124.4715 L592.5984,124.5026 L592.5463,124.5347 L592.4947,124.5677 L592.4436,124.6016 L592.3932,124.6364 L592.3434,124.6720 L592.2942,124.7086 L592.2457,124.7459 L592.1978,124.7842 L592.1506,124.8232 L592.1041,124.8631 L592.0583,124.9038 L592.0133,124.9453 L591.9689,124.9875 L591.9253,125.0305 L591.8825,125.0743 L591.8404,125.1189 L591.7991,125.1641 L591.7586,125.2101 L591.7190,125.2568 L591.6801,125.3041 L591.6421,125.3522 L591.6050,125.4009 L591.5686,125.4502 L591.5332,125.5002 L591.4986,125.5507 L591.4650,125.6019 L591.4322,125.6537 L591.4004,125.7060 L591.3694,125.7588 L591.3394,125.8123 L591.3103,125.8662 L591.2822,125.9206 L591.2551,125.9755 L591.2289,126.0309 L591.2036,126.0867 L591.1794,126.1429 L591.1561,126.1996 L591.1339,126.2567 L591.1126,126.3141 L591.0924,126.3719 L591.0731,126.4301 L591.0549,126.4886 L591.0377,126.5474 L591.0216,126.6065 L591.0065,126.6658 L590.9924,126.7254 L590.9793,126.7853 L590.9674,126.8454 L590.9564,126.9056 L590.9466,126.9661 L590.9377,127.0267 L590.9300,127.0875 L590.9233,127.1484 L590.9177,127.2094 L590.9131,127.2705 L590.9096,127.3316 L590.9072,127.3928 L590.9059,127.4541 L590.9056,127.5153 L590.9064,127.5766 L590.9083,127.6378 L590.9113,127.6990 L590.9153,127.7601 L590.9204,127.8211 L590.9265,127.8821 L590.9337,127.9429 L590.9420,128.0036 L590.9514,128.0642 L590.9618,128.1245 L590.9732,128.1847 L590.9857,128.2447 L590.9993,128.3044 L591.0139,128.3639 L591.0295,128.4231 L591.0462,128.4821 L591.0639,128.5407 L591.0826,128.5990 L591.1024,128.6570 L591.1231,128.7146 L591.1449,128.7719 L591.1676,128.8288 L591.1914,128.8852 L591.2161,128.9413 L591.2418,128.9969 L591.2685,129.0520 L591.2962,129.1067 L591.3248,129.1609 L591.3543,129.2145 L591.3848,129.2677 L591.4162,129.3203 L591.4485,129.3723 L591.4817,129.4238 L591.5158,129.4746 L591.5508,129.5249 L591.5867,129.5746 L591.6234,129.6236 L591.6610,129.6719 L591.6995,129.7196 L591.7387,129.7667 L591.7788,129.8130 L591.8197,129.8586 L591.8613,129.9035 L591.9038,129.9477 L591.9470,129.9911 L591.9910,130.0337 L592.0357,130.0756 L592.0811,130.1167 L592.1273,130.1569 L592.1741,130.1964 L592.2217,130.2350 L592.2699,130.2728 L592.3187,130.3098 L592.3682,130.3459 L592.4183,130.3811 L592.4691,130.4155 L592.5204,130.4489 L592.5723,130.4814 L592.6247,130.5131 L592.6777,130.5438 L592.7313,130.5735 L592.7853,130.6024 L592.8399,130.6303 L592.8949,130.6572 L592.9504,130.6831 L593.0063,130.7081 L593.0627,130.7321 L593.1194,130.7551 L593.1766,130.7771 L593.2341,130.7981 L593.2920,130.8181 L593.3503,130.8371 L593.4088,130.8551 L593.4677,130.8720 L593.5269,130.8879 L593.5863,130.9028 L593.6460,130.9166 L593.7059,130.9293 L593.7660,130.9411 L593.8263,130.9517 L593.8868,130.9613 L593.9475,130.9699 L594.0083,130.9774 L594.0692,130.9838 L594.1302,130.9892 L594.1913,130.9934 L594.2525,130.9967 L594.3137,130.9988 L594.3750,130.9999 L594.4362,130.9999 L594.4975,130.9988 L594.5587,130.9967 L594.6199,130.9934 L594.6810,130.9892 L594.7420,130.9838 L594.8029,130.9774 L594.8637,130.9699 L594.9244,130.9613 L594.9849,130.9517 L595.0452,130.9411 L595.1053,130.9293 L595.1652,130.9166 L595.2249,130.9028 L595.2843,130.8879 L595.3435,130.8720 L595.4023,130.8551 L595.4609,130.8371 L595.5191,130.8181 L595.5770,130.7981 L595.6346,130.7771 L595.6918,130.7551 L595.7485,130.7321 L595.8049,130.7081 L595.8608,130.6831 L595.9163,130.6572 L595.9713,130.6303 L596.0259,130.6024 L596.0799,130.5735 L596.1334,130.5438 L596.1864,130.5131 L596.2389,130.4814 L596.2908,130.4489 L596.3421,130.4155 L596.3929,130.3811 L596.4430,130.3459 L596.4925,130.3098 L596.5413,130.2728 L596.5895,130.2350 L596.6371,130.1964 L596.6839,130.1569 L596.7300,130.1167 L596.7755,130.0756 L596.8202,130.0337 L596.8642,129.9911 L596.9074,129.9477 L596.9498,129.9035 L596.9915,129.8586 L597.0324,129.8130 L597.0725,129.7667 L597.1117,129.7196 L597.1502,129.6719 L597.1878,129.6236 L597.2245,129.5746 L597.2604,129.5249 L597.2954,129.4746 L597.3295,129.4238 L597.3627,129.3723 L597.3950,129.3203 L597.4264,129.2677 L597.4569,129.2145 L597.4864,129.1609 L597.5150,129.1067 L597.5427,129.0520 L597.5694,128.9969 L597.5951,128.9413 L597.6198,128.8852 L597.6436,128.8288 L597.6663,128.7719 L597.6881,128.7146 L597.7088,128.6570 L597.7286,128.5990 L597.7473,128.5407 L597.7650,128.4821 L597.7817,128.4231 L597.7973,128.3639 L597.8119,128.3044 L597.8255,128.2447 L597.8380,128.1847 L597.8494,128.1245 L597.8598,128.0642 L597.8692,128.0036 L597.8775,127.9429 L597.8847,127.8821 L597.8908,127.8211 L597.8959,127.7601 L597.8999,127.6990 L597.9029,127.6378 L597.9048,127.5766 L597.9056,127.5153 L597.9053,127.4541 L597.9040,127.3928 L597.9015,127.3316 L597.8981,127.2705 L597.8935,127.2094 L597.8879,127.1484 L597.8812,127.0875 L597.8734,127.0267 L597.8646,126.9661 L597.8548,126.9056 L597.8438,126.8454 L597.8318,126.7853 L597.8188,126.7254 L597.8047,126.6658 L597.7896,126.6065 L597.7735,126.5474 L597.7563,126.4886 L597.7381,126.4301 L597.7188,126.3719 L597.6986,126.3141 L597.6773,126.2567 L597.6551,126.1996 L597.6318,126.1429 L597.6076,126.0867 L597.5823,126.0309 L597.5561,125.9755 L597.5290,125.9206 L597.5008,125.8662 L597.4718,125.8123 L597.4418,125.7588 L597.4108,125.7060 L597.3790,125.6537 L597.3462,125.6019 L597.3125,125.5507 L597.2780,125.5002 L597.2425,125.4502 L597.2062,125.4009 L597.1691,125.3522 L597.1311,125.3041 L597.0922,125.2568 L597.0525,125.2101 L597.0121,125.1641 L596.9708,125.1189 L596.9287,125.0743 L596.8859,125.0305 L596.8423,124.9875 L596.7979,124.9453 L596.7529,124.9038 L596.7071,124.8631 L596.6606,124.8232 L596.6134,124.7842 L596.5655,124.7459 L596.5170,124.7086 L596.4678,124.6720 L596.4180,124.6364 L596.3676,124.6016 L596.3165,124.5677 L596.2649,124.5347 L596.2127,124.5026 L596.1600,124.4715 L596.1067,124.4412 L596.0530,124.4119 L595.9987,124.3836 L595.9439,124.3562 L595.8886,124.3297 L595.8329,124.3043 L595.7768,124.2798 L595.7202,124.2563 L595.6632,124.2338 L595.6059,124.2122 L595.5481,124.1917 L595.4901,124.1722 L595.4317,124.1538 L595.3729,124.1363 L595.3139,124.1199 L595.2546,124.1045 L595.1951,124.0902 L595.1353,124.0769 L595.0753,124.0647 L595.0150,124.0535 L594.9546,124.0433 L594.8940,124.0343 L594.8333,124.0262 L594.7725,124.0193 L594.7115,124.0134 L594.6504,124.0086 L594.5893,124.0048 L594.5281,124.0021 L594.4668,124.0005 L594.4056,124.0000"></path>
	<path d="M612.5874,124.0000 L612.5262,124.0005 L612.4649,124.0021 L612.4037,124.0048 L612.3426,124.0086 L612.2815,124.0134 L612.2205,124.0193 L612.1597,124.0262 L612.0990,124.0343 L612.0384,124.0433 L611.9780,124.0535 L611.9177,124.0647 L611.8577,124.0769 L611.7979,124.0902 L611.7384,124.1045 L611.6791,124.1199 L611.6201,124.1363 L611.5613,124.1538 L611.5029,124.1722 L611.4449,124.1917 L611.3871,124.2122 L611.3298,124.2338 L611.2728,124.2563 L611.2163,124.2798 L611.1601,124.3043 L611.1044,124.3297 L611.0491,124.3562 L610.9944,124.3836 L610.9401,124.4119 L610.8863,124.4412 L610.8330,124.4715 L610.7803,124.5026 L610.7281,124.5347 L610.6765,124.5677 L610.6254,124.6016 L610.5750,124.6364 L610.5252,124.6720 L610.4760,124.7086 L610.4275,124.7459 L610.3796,124.7842 L610.3324,124.8232 L610.2859,124.8631 L610.2401,124.9038 L610.1951,124.9453 L610.1507,124.9875 L610.1071,125.0305 L610.0643,125.0743 L610.0222,125.1189 L609.9809,125.1641 L609.9405,125.2101 L609.9008,125.2568 L609.8619,125.3041 L609.8239,125.3522 L609.7868,125.4009 L609.7505,125.4502 L609.7150,125.5002 L609.6805,125.5507 L609.6468,125.6019 L609.6140,125.6537 L609.5822,125.7060 L609.5512,125.7588 L609.5212,125.8123 L609.4922,125.8662 L609.4640,125.9206 L609.4369,125.9755 L609.4107,126.0309 L609.3855,126.0867 L609.3612,126.1429 L609.3380,126.1996 L609.3157,126.2567 L609.2944,126.3141 L609.2742,126.3719 L609.2549,126.4301 L609.2367,126.4886 L609.2195,126.5474 L609.2034,126.6065 L609.1883,126.6658 L609.1742,126.7254 L609.1612,126.7853 L609.1492,126.8454 L609.1382,126.9056 L609.1284,126.9661 L609.1196,127.0267 L609.1118,127.0875 L609.1051,127.1484 L609.0995,127.2094 L609.0949,127.2705 L609.0915,127.3316 L609.0891,127.3928 L609.0877,127.4541 L609.0874,127.5153 L609.0883,127.5766 L609.0901,127.6378 L609.0931,127.6990 L609.0971,127.7601 L609.1022,127.8211 L609.1083,127.8821 L609.1156,127.9429 L609.1238,128.0036 L609.1332,128.0642 L609.1436,128.1245 L609.1550,128.1847 L609.1675,128.2447 L609.1811,128.3044 L609.1957,128.3639 L609.2113,128.4231 L609.2280,128.4821 L609.2457,128.5407 L609.2644,128.5990 L609.2842,128.6570 L609.3049,128.7146 L609.3267,128.7719 L609.3495,128.8288 L609.3732,128.8852 L609.3979,128.9413 L609.4237,128.9969 L609.4503,129.0520 L609.4780,129.1067 L609.5066,129.1609 L609.5361,129.2145 L609.5666,129.2677 L609.5980,129.3203 L609.6303,129.3723 L609.6635,129.4238 L609.6976,129.4746 L609.7326,129.5249 L609.7685,129.5746 L609.8052,129.6236 L609.8428,129.6719 L609.8813,129.7196 L609.9205,129.7667 L609.9606,129.8130 L610.0015,129.8586 L610.0432,129.9035 L610.0856,129.9477 L610.1288,129.9911 L610.1728,130.0337 L610.2175,130.0756 L610.2630,130.1167 L610.3091,130.1569 L610.3560,130.1964 L610.4035,130.2350 L610.4517,130.2728 L610.5005,130.3098 L610.5500,130.3459 L610.6002,130.3811 L610.6509,130.4155 L610.7022,130.4489 L610.7541,130.4814 L610.8066,130.5131 L610.8596,130.5438 L610.9131,130.5735 L610.9671,130.6024 L611.0217,130.6303 L611.0767,130.6572 L611.1322,130.6831 L611.1881,130.7081 L611.2445,130.7321 L611.3013,130.7551 L611.3584,130.7771 L611.4160,130.7981 L611.4739,130.8181 L611.5321,130.8371 L611.5907,130.8551 L611.6495,130.8720 L611.7087,130.8879 L611.7681,130.9028 L611.8278,130.9166 L611.8877,130.9293 L611.9478,130.9411 L612.0082,130.9517 L612.0686,130.9613 L612.1293,130.9699 L612.1901,130.9774 L612.2510,130.9838 L612.3120,130.9892 L612.3731,130.9934 L612.4343,130.9967 L612.4955,130.9988 L612.5568,130.9999 L612.6180,130.9999 L612.6793,130.9988 L612.7405,130.9967 L612.8017,130.9934 L612.8628,130.9892 L612.9238,130.9838 L612.9847,130.9774 L613.0455,130.9699 L613.1062,130.9613 L613.1667,130.9517 L613.2270,130.9411 L613.2871,130.9293 L613.3470,130.9166 L613.4067,130.9028 L613.4661,130.8879 L613.5253,130.8720 L613.5842,130.8551 L613.6427,130.8371 L613.7010,130.8181 L613.7589,130.7981 L613.8164,130.7771 L613.8736,130.7551 L613.9303,130.7321 L613.9867,130.7081 L614.0426,130.6831 L614.0981,130.6572 L614.1531,130.6303 L614.2077,130.6024 L614.2617,130.5735 L614.3153,130.5438 L614.3683,130.5131 L614.4207,130.4814 L614.4726,130.4489 L614.5239,130.4155 L614.5747,130.3811 L614.6248,130.3459 L614.6743,130.3098 L614.7231,130.2728 L614.7713,130.2350 L614.8189,130.1964 L614.8657,130.1569 L614.9119,130.1167 L614.9573,130.0756 L615.0020,130.0337 L615.0460,129.9911 L615.0892,129.9477 L615.1317,129.9035 L615.1733,129.8586 L615.2142,129.8130 L615.2543,129.7667 L615.2936,129.7196 L615.3320,129.6719 L615.3696,129.6236 L615.4063,129.5746 L615.4422,129.5249 L615.4772,129.4746 L615.5113,129.4238 L615.5445,129.3723 L615.5768,129.3203 L615.6082,129.2677 L615.6387,129.2145 L615.6683,129.1609 L615.6968,129.1067 L615.7245,129.0520 L615.7512,128.9969 L615.7769,128.9413 L615.8016,128.8852 L615.8254,128.8288 L615.8481,128.7719 L615.8699,128.7146 L615.8906,128.6570 L615.9104,128.5990 L615.9291,128.5407 L615.9468,128.4821 L615.9635,128.4231 L615.9791,128.3639 L615.9937,128.3044 L616.0073,128.2447 L616.0198,128.1847 L616.0312,128.1245 L616.0416,128.0642 L616.0510,128.0036 L616.0593,127.9429 L616.0665,127.8821 L616.0726,127.8211 L616.0777,127.7601 L616.0818,127.6990 L616.0847,127.6378 L616.0866,127.5766 L616.0874,127.5153 L616.0871,127.4541 L616.0858,127.3928 L616.0834,127.3316 L616.0799,127.2705 L616.0753,127.2094 L616.0697,127.1484 L616.0630,127.0875 L616.0553,127.0267 L616.0465,126.9661 L616.0366,126.9056 L616.0256,126.8454 L616.0137,126.7853 L616.0006,126.7254 L615.9866,126.6658 L615.9714,126.6065 L615.9553,126.5474 L615.9381,126.4886 L615.9199,126.4301 L615.9006,126.3719 L615.8804,126.3141 L615.8591,126.2567 L615.8369,126.1996 L615.8136,126.1429 L615.7894,126.0867 L615.7641,126.0309 L615.7380,125.9755 L615.7108,125.9206 L615.6827,125.8662 L615.6536,125.8123 L615.6236,125.7588 L615.5927,125.7060 L615.5608,125.6537 L615.5280,125.6019 L615.4944,125.5507 L615.4598,125.5002 L615.4244,125.4502 L615.3881,125.4009 L615.3509,125.3522 L615.3129,125.3041 L615.2740,125.2568 L615.2344,125.2101 L615.1939,125.1641 L615.1526,125.1189 L615.1105,125.0743 L615.0677,125.0305 L615.0241,124.9875 L614.9798,124.9453 L614.9347,124.9038 L614.8889,124.8631 L614.8424,124.8232 L614.7952,124.7842 L614.7473,124.7459 L614.6988,124.7086 L614.6496,124.6720 L614.5998,124.6364 L614.5494,124.6016 L614.4984,124.5677 L614.4467,124.5347 L614.3946,124.5026 L614.3418,124.4715 L614.2886,124.4412 L614.2348,124.4119 L614.1805,124.3836 L614.1257,124.3562 L614.0704,124.3297 L614.0147,124.3043 L613.9586,124.2798 L613.9020,124.2563 L613.8450,124.2338 L613.7877,124.2122 L613.7300,124.1917 L613.6719,124.1722 L613.6135,124.1538 L613.5548,124.1363 L613.4957,124.1199 L613.4365,124.1045 L613.3769,124.0902 L613.3171,124.0769 L613.2571,124.0647 L613.1969,124.0535 L613.1364,124.0433 L613.0759,124.0343 L613.0151,124.0262 L612.9543,124.0193 L612.8933,124.0134 L612.8322,124.0086 L612.7711,124.0048 L612.7099,124.0021 L612.6487,124.0005 L612.5874,124.0000"></path>
</g>
</svg>