<?xml version="1.0" encoding="utf-8"?>
<svg xmlns="http://www.w3.org/2000/svg" width="406.0000mm" height="209.0000mm" viewBox="-0.0000 -3.0000 406.0000 209.0000">
<g>
	<path d="M0.0000,0.0000 L0.0000,100.0000 L0.0000,200.0000 L0.0000,206.0000 L16.0000,206.0000 L16.0000,200.0000 L16.0000,200.0000 L32.0000,200.0000 L32.0000,206.0000 L32.0000,206.0000 L48.0000,206.0000 L48.0000,200.0000 L48.0000,200.0000 L64.0000,200.0000 L64.0000,206.0000 L64.0000,206.0000 L80.0000,206.0000 L80.0000,200.0000 L80.0000,200.0000 L96.0000,200.0000 L96.0000,206.0000 L96.0000,206.0000 L112.0000,206.0000 L112.0000,200.0000 L112.0000,200.0000 L128.0000,200.0000 L128.0000,206.0000 L128.0000,206.0000 L144.0000,206.0000 L144.0000,200.0000 L144.0000,200.0000 L160.0000,200.0000 L160.0000,206.0000 L160.0000,206.0000 L176.0000,206.0000 L176.0000,200.0000 L176.0000,200.0000 L192.0000,200.0000 L192.0000,206.0000 L192.0000,206.0000 L208.0000,206.0000 L208.0000,200.0000 L208.0000,200.0000 L224.0000,200.0000 L224.0000,206.0000 L224.0000,206.0000 L240.0000,206.0000 L240.0000,200.0000 L240.0000,200.0000 L256.0000,200.0000 L256.0000,206.0000 L256.0000,206.0000 L272.0000,206.0000 L272.0000,200.0000 L272.0000,200.0000 L288.0000,200.0000 L288.0000,206.0000 L288.0000,206.0000 L304.0000,206.0000 L304.0000,200.0000 L304.0000,200.0000 L320.0000,200.0000 L320.0000,206.0000 L320.0000,206.0000 L336.0000,206.0000 L336.0000,200.0000 L336.0000,200.0000 L352.0000,200.0000 L352.0000,206.0000 L352.0000,206.0000 L368.0000,206.0000 L368.0000,200.0000 L368.0000,200.0000 L384.0000,200.0000 L384.0000,206.0000 L384.0000,206.0000 L400.0000,206.0000 L400.0000,200.0000 L400.0000,184.6154 L406.0000,184.6154 L406.0000,184.6154 L406.0000,169.2308 L400.0000,169.2308 L400.0000,169.2308 L400.0000,153.8462 L406.0000,153.8462 L406.0000,153.8462 L406.0000,138.4615 L400.0000,138.4615 L400.0000,138.4615 L400.0000,123.0769 L406.0000,123.0769 L406.0000,123.0769 L406.0000,107.6923 L400.0000,107.6923 L400.0000,107.6923 L400.0000,92.3077 L406.0000,92.3077 L406.0000,92.3077 L406.0000,76.9231 L400.0000,76.9231 L400.0000,76.9231 L400.0000,61.5385 L406.0000,61.5385 L406.0000,61.5385 L406.0000,46.1538 L400.0000,46.1538 L400.0000,46.1538 L400.0000,30.7692 L406.0000,30.7692 L406.0000,30.7692 L406.0000,15.3846 L400.0000,15.3846 L400.0000,15.3846 L400.0000,0.0000 L400.0000,-3.0000 L384.0000,-3.0000 L384.0000,0.0000 L384.0000,0.0000 L368.0000,0.0000 L368.0000,-3.0000 L368.0000,-3.0000 L352.0000,-3.0000 L352.0000,0.0000 L352.0000,0.0000 L336.0000,0.0000 L336.0000,-3.0000 L336.0000,-3.0000 L320.0000,-3.0000 L320.0000,0.0000 L320.0000,0.0000 L304.0000,0.0000 L304.0000,-3.0000 L304.0000,-3.0000 L288.0000,-3.0000 L288.0000,0.0000 L288.0000,0.0000 L272.0000,0.0000 L272.0000,-3.0000 L272.0000,-3.0000 L256.0000,-3.0000 L256.0000,0.0000 L256.0000,0.0000 L240.0000,0.0000 L240.0000,-3.0000 L240.0000,-3.0000 L224.0000,-3.0000 L224.0000,0.0000 L224.0000,0.0000 L208.0000,0.0000 L208.0000,-3.0000 L208.0000,-3.0000 L192.0000,-3.0000 L192.0000,0.0000 L192.0000,0.0000 L176.0000,0.0000 L176.0000,-3.0000 L176.0000,-3.0000 L160.0000,-3.0000 L160.0000,0.0000 L160.0000,0.0000 L144.0000,0.0000 L144.0000,-3.0000 L144.0000,-3.0000 L128.0000,-3.0000 L128.0000,0.0000 L128.0000,0.0000 L112.0000,0.0000 L112.0000,-3.0000 L112.0000,-3.0000 L96.0000,-3.0000 L96.0000,0.0000 L96.0000,0.0000 L80.0000,0.0000 L80.0000,-3.0000 L80.0000,-3.0000 L64.0000,-3.0000 L64.0000,0.0000 L64.0000,0.0000 L48.0000,0.0000 L48.0000,-3.0000 L48.0000,-3.0000 L32.0000,-3.0000 L32.0000,0.0000 L32.0000,0.0000 L16.0000,0.0000 L16.0000,-3.0000 L16.0000,-3.0000 L-0.0000,-3.0000 L0.0000,0.0000"></path>
</g>
</svg>