<?xml version="1.0" encoding="utf-8"?>
<svg xmlns="http://www.w3.org/2000/svg" width="412.0000mm" height="209.0000mm" viewBox="-6.0000 430.7692 412.0000 209.0000">
<g>
	<path d="M0.0000,430.7692 L0.0000,483.7692 L0.0000,483.7692 L-6.0000,483.7692 L-6.0000,483.7692 L-6.0000,526.2692 L-6.0000,526.2692 L6.0000,526.2692 L6.0000,526.2692 L6.0000,541.2692 L6.0000,541.2692 L-6.0000,541.2692 L-6.0000,541.2692 L-6.0000,583.7692 L-6.0000,583.7692 L0.0000,583.7692 L0.0000,583.7692 L0.0000,639.7692 L0.0000,639.7692 L400.0000,639.7692 L400.0000,639.7692 L400.0000,583.7692 L400.0000,583.7692 L406.0000,583.7692 L406.0000,583.7692 L406.0000,483.7692 L406.0000,483.7692 L400.0000,483.7692 L400.0000,483.7692 L400.0000,430.7692 L0.0000,430.7692"></path>
	<path d="M37.0000,526.2692 L37.0000,541.2692 L313.0000,541.2692 L313.0000,526.2692 L37.0000,526.2692"></path>
</g>
</svg>